<svg xmlns="http://www.w3.org/2000/svg" viewBox="0 0 6128.57 5115.95"><defs><style>.cls-1{fill:#8f55a2;stroke-width:10px;stroke-dasharray:12;}.cls-1,.cls-23,.cls-24{stroke:#231f20;stroke-miterlimit:10;}.cls-1,.cls-22{opacity:0.75;}.cls-2{font-size:50px;}.cls-10,.cls-11,.cls-13,.cls-14,.cls-15,.cls-16,.cls-2,.cls-21,.cls-25,.cls-3,.cls-4,.cls-5,.cls-6,.cls-7,.cls-8{fill:#231f20;}.cls-14,.cls-15,.cls-2,.cls-21,.cls-4,.cls-5,.cls-6,.cls-7,.cls-8{font-family:HelveticaNeue, Helvetica Neue;}.cls-3{font-size:149px;}.cls-13,.cls-3{font-family:HelveticaNeue-Medium, Helvetica Neue;}.cls-10,.cls-4{font-size:80px;}.cls-5{font-size:60px;}.cls-11,.cls-6{font-size:70px;}.cls-7{font-size:100px;}.cls-8{font-size:90px;}.cls-9{letter-spacing:-0.11em;}.cls-10,.cls-11,.cls-16{font-family:MyriadPro-Regular, Myriad Pro;}.cls-12{letter-spacing:-0.11em;}.cls-13,.cls-16{font-size:200px;}.cls-14{font-size:45px;}.cls-15{font-size:36px;}.cls-17{letter-spacing:-0.01em;}.cls-18{letter-spacing:0em;}.cls-19{letter-spacing:-0.01em;}.cls-20{letter-spacing:0.01em;}.cls-21{font-size:74.02px;}.cls-22{fill:#2ca149;}.cls-23,.cls-24{fill:none;stroke-width:7px;}.cls-24{stroke-dasharray:12.66 12.66;}</style></defs><title>GreaterRajasthanWithMatsyaUnion</title><g id="Rajasthan_Union_1st_" data-name="Rajasthan Union (1st)"><path class="cls-1" d="M5548.42,2378.9c-3.28-7.69-8.77-14.23-14.72-20.11-32.91-32.52-72-28.57-110.58-8.33-16.6,8.7-31.83,22.07-50.52,23.49-14,1.06-27.47-4.88-41.31-7.24-45.5-7.78-88.16,22.95-133.71,30.45-17.34,2.86-35.19,2.32-52.27,6.48-6.6,1.6-13.13,4-18.59,8-3.56,2.64-5.16,8-9.49,8.91a36.93,36.93,0,0,1-12.6.85c-10.86-1.07-21.78-8.27-24-19-6.63-32.16,85.22-71,108.72-82.71,12.67-6.31,27.21-14.32,29.27-28.33,1.78-12.08-7.34-23.63-18.44-28.71-20.91-9.58-40.62,1.48-56.73-18.18-11.48-14-15.84-34.83-7.54-51.45,11.14-22.27,22.67-42.89,27.16-68,1.41-7.88,2.25-16,1.19-23.9-4-30.32-33.57-63.12-54.43-84.13-26.57-26.76-60.06-45.11-89.87-67.81-34.91-26.59-67.14-64.09-66.45-108,.33-20.86,7.8-43.57-3-61.43-5-8.25-13.22-14-21.58-18.79-26.2-15.06-57-23.48-86.89-19a97.88,97.88,0,0,0-43.07,17.7,86.45,86.45,0,0,0-17,16.39c-2,2.51-5.94,6.65-6.55,9.83-.27,1.38-2.24,1-3.45.23-3.6-2.17-7.88-2.87-12-3.52l-14.43-2.28c-6.42-1-13.06-2.11-18.48-5.7-7.47-4.95-7.09-12.75-9.68-20.07-3.32-9.42-9.62-18.94-10.77-28.93-1.23-10.69,2.2-23.28,4.86-33.54,5.44-21,14.31-40.87,21.34-61.33a360.53,360.53,0,0,0,18.78-93.57c.64-9.8.87-19.71-.9-29.38-6.42-35-35.85-53.12-68.25-58.74-33.3-5.78-61.55,17.53-77.78,45.4-15.61,26.81-22.56,57.69-35.09,86.07-8.22,18.61-26.62,43.17-45.83,22.84a353,353,0,0,1-33.13-40.75c-7-10.08-13.69-20.73-23.41-28.25-13-10.08-29.69-13.31-43.36-22.21-4.71-3.06-30.78-35.57-23-39.7-16.9,8.93-20,31.25-22.55,50.2s-10.27,41.51-29.09,44.83c-7.79,1.37-16.17-1.06-23.53,1.84-5.51,2.17-9.5,7-12.85,11.89a116.44,116.44,0,0,0-19.32,79.19c2.06,16.81,6,32.39-3.94,47.37-5.77,8.72-19.37,11.13-24,20.39a50.38,50.38,0,0,0-4.57,15.69c-.1-2.95-.13-5.89,0-8.83.35-12.77-10.33-19.63-19.73-26.92-21.89-17-73.42-36.64-84.19-62.07-3-7.11-2.62-15.13-2.31-22.84,1.16-28,.69-56.48-7.94-83.09-14.32-44.13-5.93-56.11,25.89-88.66,12.51-12.8,23.76-29.74,20.48-47.33-2.83-15.17-15.56-26.19-27.37-36.12q-46.89-39.42-90.53-82.51-37.26-36.78-72-76.05-17.34-19.62-34-39.82c-9.75-11.82-17.18-24.33-25.56-37.17-4.44-6.8-7.51-14.37-10.48-21.93,0-.37-.06-.75-.1-1.12a301.91,301.91,0,0,1-60.6-175.08c-.54-28.93,3.09-58-.94-86.7-4.86-34.5-20.56-66.39-36-97.61-11.74-23.67-25.1-49-49-60.36-20.75-9.89-45-7-67.91-8.43-49.9-3-83.48-21.4-110.5-63.31-17.84-27.66-34.33-61.18-70.06-62.41q-10.32-.35-20.54-.42c-36.14-.77-71.44,1.18-107,9.39-13.74,3.17-27.57,7.1-41.56,7.81-17.09-1.45-34.75-10.66-40.49-26.79-6.45-18.15,3.73-37.47,12-54.84,32.31-67.64,57-154.32,17.26-217.85a221.7,221.7,0,0,0-132.38-96.26c-25.2-6.33-51-8.08-77-8.2-32.44-.77-65.3,1.64-97.88,1.49-18.41-.43-36.7-1.88-54.76-5.4-28.39-5.52-58.12-18.13-71.45-43.8C2907.61,88.26,2923,49.18,2938.73,16c-1.75,2.24-8,6.05-15.23,10.08,1.55-3.46,3.13-6.87,4.72-10.22-4.46,5.69-38,21.59-42.72,25.14-14.15,10.6-26.87,22-42.19,31.19-30.07,18-62.77,31-95,44.63-48.8,20.65-98.7,44.33-132,85.55-21.47,26.59-34.59,58.78-47.42,90.47-16.8,39.21-30,80.42-46.64,119.37-17.48,40.94-50.48,80.08-74.41,117.68-35.35,55.55-70.77,111.18-101.74,169.34-25.66,48.2-67.51,100.16-114.17,129.84-38.3,24.36-83.61,34.5-126.37,49.74-61.33,21.86-118.37,55.35-167.92,97.53q-16.76,14.26-32.35,29.82a550.23,550.23,0,0,0-67.44,81.64q-7.41,11-14.28,22.33c-4.92,8.12-11.12,15.72-16.65,23.48l-25.44,35.71c-7.49,10.52-15.76,18.18-25.74,26.34-6.65,5.44-11.17,13.43-15.12,20.92-4.19,7.93-7.9,16.15-13,23.57-17.12,25-38.63,47.93-56.72,72.43-21.45,29.05-43.34,59-52.55,93.94-8.38,31.77-5.92,66.56-20.4,96.06-18.36,37.4-60.5,57.88-101.75,63.72a280.56,280.56,0,0,1-39.88,2.49c-24.76-.63-49.61-3.07-74.38-3.82q-6.33-.19-12.62-.19c-70.51-1.78-138.66,13.77-205.69,35.91a1229.44,1229.44,0,0,1-155.18,40.24c-17.28,3.3-34.88,6.21-52.41,6.51a135.68,135.68,0,0,1-14.83-1.5c-25.78-4.1-51.28-17.65-63.83-40.54-14-25.45-9.67-56.68-15.6-85.09-4.52-21.69-15-41.61-25.36-61.2-21.54-40.74-45.77-85.58-99.38-83.9l-1.09.05a88.54,88.54,0,0,0-9.43-.2c-28.5.9-53.74,17.62-77.25,33.75l-78.18,53.64c-12.55,8.61-25.26,17.36-35.07,29-15.29,18.1-22.3,41.54-30,63.93-35.26,101.88-93,195.35-170.53,270.26L207.91,1948.93c-30.45,29.42-74.08,65.93-86.31,108.17-12.52,43.24-23,85.84-14.13,131.2a205.83,205.83,0,0,0,61.7,110.83c32.55,30.15,73.65,48.57,114.79,63.84,17.84,6.63,33,16.78,50.4,23.46,23.28,8.93,47.27,16.32,70.84,24.48,15,5.2,25.71,8,32.91,22.6,9.16,18.64,8.18,37.67,6.26,57.77a921.76,921.76,0,0,0-3.29,127.11c1.46,33.95-4.34,68.83-1.67,103.14,2.6,33.5,21.39,64.39,31.91,95.85,10.44,31.22,19.58,62.84,29.36,94.27,10.3,33.15,21,67.12,42.5,94.4,19.51,24.79,50.11,43.17,81.1,41.34a72.05,72.05,0,0,0,19.87-1c25.74-5,48.35-24,73.92-26.15,28.27,3.27,49.68,30,57.4,57.8,10.52,37.83,2.64,75,7.17,112.66,4.59,38.23,15.46,76.48,28.8,112.51a561.53,561.53,0,0,0,95,164.42c41.24,49.4,59.4,118.56,72.56,181.55,5,24,14.13,45.95,10,70.67-2.07,12.53-5,25.18-3.52,37.79s8.75,25.52,20.82,29.45a32.73,32.73,0,0,0,14.1,1c10.42,1.83,21.36-2.4,32.08-4,1.12-.16,2.21-.28,3.28-.38,16.56,2.09,26.86,12.82,43.44,20.22,12.42,5.54,27.1,7.5,42.25,7.13,27,1.44,56.94-5.77,79-14.1,26.49-10,52.32-22.9,80.36-26.88,1.44-.2,2.87-.33,4.3-.43,28.16,2.6,53.69,21.51,80.48,19.34a56.68,56.68,0,0,0,11.4.08c11.11-1.09,19-8.69,30.6-10.35,15.42,2,30.79,10.36,42.82,19.52,23.78,18.1,46.88,42.26,76.75,42.88,1.9,0,3.79,0,5.65-.18,1.6.17,3.22.29,4.87.32,25.75.53,47.81-16.83,70.2-29.57a217.42,217.42,0,0,1,104.87-28,211.86,211.86,0,0,1,45.32,6.62c41.61,10.83,72.58,43,117,46.94,9,.8,17.78.85,23.28,1.45a648.42,648.42,0,0,0,162.21-2.77c46.69-6.72,92.79-18.56,139.93-20.35,37.89-1.44,77.74,4.18,111,23.39,8.68,5,14.12,8.63,18.52,10.13-8.29,9.39-16.33,18.89-24.79,28.19a281.87,281.87,0,0,0-40.45,57.58c-8.52,16.09-16.84,32.28-25.46,48.33a4.66,4.66,0,0,0-.81,3.3c.36,1.33,1.78,2,3.05,2.58,4.66,2,11.25,3.5,14.88,7.14,3.15,3.17,5.19,7,8.82,10,10.39,8.51,23,13.86,33.87,21.76a37.61,37.61,0,0,1,9.58,9.35c3.16,4.78,4.49,10.52,5.31,16.19a108.94,108.94,0,0,1-24.29,84.76c-6.42,7.59-13.79,14.55-18.9,23.15a34,34,0,0,0-4.83,13.29c-.63,5.29,1.19,10.56,2.82,15.54a99.24,99.24,0,0,0,11.55,23.87c-.9-1.35,6.19-4.88,7.05-5.13l.18-.05q1.56,2.71,3.28,5.33c-.9-1.35,6.19-4.88,7.05-5.13a65.62,65.62,0,0,1,9.12-2.11l1.11-.12a63.35,63.35,0,0,1,16.46,4.4,238.58,238.58,0,0,1,21.68,10.29c3.42,1.84,6.72,4.23,10.24,5.83,3,1.35,6,2.21,9,3.89a165.23,165.23,0,0,1,14.3,9.4,260.94,260.94,0,0,1,23.16,18.9,118.61,118.61,0,0,0,9.8,8.51c3.77,2.77,6.7,7.64,9.66,11.24,6.56,8,13.16,16,18.18,25.07a48.12,48.12,0,0,1,5.92,16c.87,5.77-.41,10.3-2.17,15.67-.83,2.54.82,6.18,1.44,8.84.73,3.15,1.42,6.31,2.11,9.46l6.1,27.85,8.35,38.15,4.18,19.08c.81,3.7,2.24,7.43,2.68,11.19.37,3.17.43,5.68,2.59,8.36a48.22,48.22,0,0,0,2.7,9.73c5.88,16,14.43,28.38,22.07,42.09,8.24,14.77,11.71,27.58,25.07,39.61,21.81,19.65,48.29,27.89,74.19,40.46,4.29,2.08,8.63,4.2,12.21,7.34,6,5.3,9.34,13,12.46,20.37,5.23,12.42,10.48,24.93,13.33,38.11,4.77,22.11,6.92,35.22,29.6,39.74,24.83,5,49.29,13.17,74.31,18.45l81.34,17.16c6.81,1.44,11.51,1.69,14.75.93.71.11,1.39.21,2,.28,5.55,2.38,11,4.36,15.93,8,12.31,9,24.6,18.1,37.46,26.35,15.35,9.84,31.22,19.74,41.93,34.9,14.68,20.77,20.67,46,30.94,68.9,5.18,11.57,12.46,20.88,19.07,31.42l3.39,5.4,21.12,33.65,0,.21c8.25,1,16.71,2.58,25,3s16.62-2.83,24.56-5.15a162.37,162.37,0,0,1,78.11-3.16c15.77,3.26,31.55,8.92,47.53,7,19.18-2.33,35.48-15.35,47.78-30.25,8.53-10.34,15.85-25,9-36.56-4.67-7.89-14.21-11.08-22.37-15.25a75.84,75.84,0,0,1-33.51-34.7c-4.5-9.45-4.75-15.58-3.67-25.92l1.95-18.69a53.57,53.57,0,0,0,12.77-14.8c7-12.68,7.13-27.91,10.55-42,11.82-48.66,60.9-77.79,107.11-97.06,5.77,0,12.72-6.67,16.78-10a91.34,91.34,0,0,1,12.57-8.4c3.63-2.12,8.65-4.06,11.39-7.21s4.56-7.94,7-11.48a120.84,120.84,0,0,1,8.64-11.07,122.35,122.35,0,0,1,20.33-18.47c1.93-1.39,23.9-13.71,24-13.4-15.76-80.06,16.59-160.63,42.85-237.88,8.39-24.68,16.19-51.88,6.95-76.26-5.11-13.49-15-24.56-24.6-35.3l-30-33.42c-4.23-4.72-8.56-9.29-12.09-14.59-.88-1.32-8.1-16.23-7.82-16.25l-.47,0,.54-.11c-.38-6.71-3.07-15.09-2.6-21.8,1.36-19.44-17.79-33.46-26.11-51.08-4.67-9.91-5.83-20.94-8-31.56-2-10.09-2.72-19.35,5.08-27.47-1.91,2-4.11,1.63-6.3.88,1.6.41,3.36.69,4.78-.12s2.14-2.66,2.66-4.31c7.79-24.57,14.66-48.68,23.75-72.63,5.18-13.65,9-28.09,8.37-42.67-.63-14.74-8.94-27-9.47-41.52-.44-11.88,2.87-22.75.49-33.67,2.49.13,5,.28,7.47.5,8.76.76,17.64,2.12,25.87,5.34q1.95.76,3.83,1.68c14.42,7.07,22.22,18.91,40.28,19.61a8.9,8.9,0,0,0,4.25-.6,38.74,38.74,0,0,0,6.27.75,8.67,8.67,0,0,0,4.37-.65c1.78-.93,2.77-2.86,3.48-4.73,4.4-11.64,1.82-24.83-3-36.32-16.7-40-45.62-71.27-70.08-106.47-4.65-6.7-9.53-14.26-8.4-22.33.59-4.24,2.82-8.08,5.49-11.43a46.25,46.25,0,0,1,31.14-16.7c50.34,6.46,35.55,87.23,83.06,89.38a37.56,37.56,0,0,1,10.52.15c12.37.56,24-5.34,35.37-10.15,18-7.59,35.29-10.06,54.25-13.2,16.53-2.74,18.16-8.69,18.34-26.53.13-12.66-9.86-24.9-8.85-35,1.31-13,21.81-27.41,31.87-33.11,15-8.52,31.55-15.68,48.64-16.75,42.95,3.63,53.78,32.73,37.4,69-6.44,14.26-11.14,32.71-.47,44.16,5.14,5.52,13.64,9.17,14.44,16.67.43,4-1.67,7.84-4,11.14-11.83,16.7-30.75,26.57-47.16,38.81s-31.75,29.91-30.47,50.34c3.48-.66,7-1.19,10.45-1.62,0,.59,0,1.18.07,1.77a173.08,173.08,0,0,1,30.81-2.92c45.54,1.69,91.48,16.3,137.58,16.75,1.36,0,2.71,0,4.07,0,2.15.08,4.3.14,6.44.16,31.55.31,62.93-6,94.43-6.25,4.88.2,9.76.57,14.64.75,2,.07,4,0,6-.07,1.51.08,3,.16,4.53.22h.68a16.17,16.17,0,0,1,2.53.52c9.93,3,19.67,8.27,29.26,12.29-.3-.13-.5-2.08-.62-4.85l.66.3c1.53,22.22,2.93,44.44,8.48,66.11,1.92,7.5,4.15,15.12,8.8,21.31,7.71,10.25,19.92,13.21,25.88,25,4.86,9.62,6.22,22.82,1.51,32.85-4.14,8.82-13.36,17.31-20.6,23.66a201.76,201.76,0,0,1-24.26,18.33c-11.3,7.22-24,13.73-30.74,25.3-4.63,7.91-5.93,17.29-6.72,26.43-4.24,49.28,3.62,98.91,1,148.3s-18.43,101.88-58.3,131.15c-32.81,24.08-75.69,28.21-116.25,31.52-7.26,8.49,1.23,21.16,9.82,28.29,33.37,27.72,83.6,52.37,130.14,51.14,17.17.92,34-1.38,49.64-8l3.21-1.39c18.24-8,35.83-17.76,51.73-29.81,16.6-12.59,32.53-26.18,48.71-39.34v.23c44.22-28.15,81.22-77.35,105.09-123.37,17-32.79,26.58-69,31.81-105.59A81.24,81.24,0,0,0,4270,4183c15.75,14.92,36.73,24.2,58.08,27.36a144.28,144.28,0,0,0,24.05,1.46c29.79,1.46,59.73-6.22,88.18-15.84,11-3.73,22.17-7.8,33.75-8.63,18.09,1.74,35.18,10.71,52,18.21a363.34,363.34,0,0,0,93.24,27.29c.19-.5.36-1,.54-1.52,3.32.6,6.64,1.16,10,1.67,16.63-44.85,13.23-96.72-9.12-139-4.54-8.59-10-17.4-9.66-27.11.46-14.4,13.4-25.87,14.87-40.21a27.27,27.27,0,0,0,.13-3.07c6.74,2.43,13.49,4.5,20.86,4.86l48.08,2.35a55.37,55.37,0,0,0,7.61,0l2.91.14c4.36.21,8.86.4,12.94-1.14,5.06-1.92,8.77-6.25,12.13-10.49,12.82-16.19,24.27-34.66,26-55.23,2.53-31-17.19-58.91-36-83.72-9.16-9.16-15.77-20.33-25.76-28.93-4.66-4-10.26-8.69-16-11-4.72-1.9-10-1.58-15.21-1.36a47.31,47.31,0,0,0-8.5-.23,8.8,8.8,0,0,1-2.42-.87c-3.91-2.16-5-7.19-5.43-11.64a91.6,91.6,0,0,1,.73-21.59c.53-3.54.6-5.81-.07-7.8l1.12,1.11c28.13-12.17,34.95-48.28,37.54-78.81s8.25-66.51,35.74-80.08c10.23-5,21.94-5.94,33.31-6.76l148.26-10.57c19.82-1.41,40.56-3.12,57.35-13.75,33.53-21.22,37.93-67.51,38.79-107.18q1.07-49.24,2.15-98.49c.14-6.24.2-12.8-2.76-18.29-3.64-6.75-11.08-10.49-18.32-13a124,124,0,0,0-43.91-6.47c-22.78-1.15-46.13,3.37-68,10.47-32.75,10.64-63.44,26.78-95.81,38.5-34.31,12.42-70.94,19.65-107.35,19.84a249.62,249.62,0,0,1-66.72-11.07c-59.82-18.79-112.49-64.43-131.91-124.05-6.51-20-9.28-41.05-10.48-62.06a434.41,434.41,0,0,1,10.73-123.79c-3.88,2.13-7.89,4.21-12,6.27v0c4-2.26,7.91-4.61,11.91-6.91,2.93-4.22,5.95-8.31,9-12.44,4.67-6.34,8.41-13.36,13.3-19.53,6.89-8.69,16.44-10.39,24.12-17.35,7.44-6.73,12.73-15.47,19.94-22.42a531.69,531.69,0,0,1,110.58-81.78c3.71-2.06,7.68-4.41,10.27-7.62,29.69-18.17,56.51-39.89,82-63.46a573.87,573.87,0,0,1,198.57-119.45,284.65,284.65,0,0,0,54.87-26.42c2.67-1.65,5.31-3.34,7.95-5,7.77-5,15.5-10.21,23.78-14.39a92.26,92.26,0,0,1,12.81-5.37c2.1-.69,4.43-1,6.48-1.75a16.69,16.69,0,0,1,5.65-1.42,12.68,12.68,0,0,0,5.17-1.87c3.43-1.82,6.6-4.11,10.07-5.87l62.25-31.44c44.06-22.26,81.1-54.45,120.84-83.57,37.62-27.57,82.52-41.74,124.93-59.94a433.16,433.16,0,0,0,104.12-63.35L5528,2422.8C5543.14,2410.26,5557.76,2400.84,5548.42,2378.9ZM3522.13,2821.29a269.78,269.78,0,0,0-16.82,21.72c-5.11,7.57-9.75,15.44-15,22.94-7.36,10.58-14.87,21.47-18,34-2.65,10.64-2,21.87-4.31,32.59-4.51,20.59-19.56,37.08-28.37,56.24-3.13,6.8-4,14.92-10.25,20-3.64,3-9.07,5.58-13.19,8a43.08,43.08,0,0,1-17.43,5.56,47.81,47.81,0,0,1-18.77-6.39c-9.36-5.63-14-15.25-24.2-19.33-9.68-3.87-19.39-6-29.47-5.16a51.8,51.8,0,0,0-18.86,1.27c-11.21,2.87-22.46,8.17-33.42,12.09-5.46,2-10.89,4.06-16.4,5.87-3.87,1.27-8.4.95-12.49,1.2-.5,0-1,0-1.5.06a93.47,93.47,0,0,1-18.7-3.33,92.11,92.11,0,0,1-15.95-6.2c-4.74-2.38-9.59-4.11-14.19-6.81a225.43,225.43,0,0,0-37.54-17.7c-16.57-6-35.1-10.42-53.13-9.73-12.55-.8-25.08.52-36.79,5.17A181.64,181.64,0,0,0,3005,3015c-8.48,8.66-16.74,16.64-25.44,25q-7.58,7.31-14.63,15.14c-4.09,4.55-9.06,7.76-13.42,11.91l0,0c-5.34,5.09-10.55,10.32-15.79,15.51-10.49,10.39-20.88,20.89-31,31.67-20.09,21.44-39.1,44-55.19,68.66-18.57,28.43-40.32,55.51-65.64,78.32a618.24,618.24,0,0,0-48.77,49.14q-3.1,3.49-6.12,7c.12-2.27.15-4.54.48-6.84,1.12-8,3.95-16.17,5.3-24.29,2.88-17.42,4.33-35,5.76-52.62,2.69-33.29,5.27-67.22,17.31-98.69,19.34-50.55,61-89.27,105.24-120.44s92.48-56.83,133.8-91.78c50.32-42.55,108.88-118.84,71.95-186.19-10.43-19-24.28-36.33-32-56.62-35.3-92.57,64.11-70.64,115.38-77.08,34.24-4.31,68.52-17.53,91.82-43,14.84-16.21,24.47-36.41,37-54.48,9.32-13.45,24.74-32.79,41.93-36.25h.09c8.73,1.6,17,5.82,25.58,3.89,6.21,1.22,12.39,1.08,18.82-3.9a29.93,29.93,0,0,0,2.3-2c-.63,3.41-1,7-1.57,10.33-1.79,10.93-2.2,21.61.69,32.41q7.24,27.15,14.89,54.19c6.34,22.43,12.92,44.91,22.77,66,14.55,31.23,35.84,58.74,57,85.91,15,19.25,31,39.24,52.79,49.77l.08.24-3.48-1.4c-2.71-1.07-8.38-2.94-9.52-6a159.93,159.93,0,0,1,9.26,39.21c.4,3.79.7,7.72,2.48,11.09,2.75,5.23,8.32,7.95,14.08,9.86a6.68,6.68,0,0,0-3.27-.4C3524.31,2818.75,3523.16,2820.06,3522.13,2821.29Zm207.55,266.57c-2.12,5.35-2.63,11.5-4.89,16.65-3.91,8.91-13.06,17.49-22,21a71,71,0,0,1-23.48,4.68,138.22,138.22,0,0,1-16.44-2.13,218.1,218.1,0,0,1-49.34-15.89c-9.19-4.16-18-9-27.1-13.41-4.61-2.23-9.29-4.35-14.08-6.18-2-.75-4-1.14-5.81-2-2.06-1-3.76-2.5-6-3.23-2.8-.93-5.86-.75-8.72-1.43-13.78-3.29-16.47-21.57-25.6-32.41-.24-.28-.49-.54-.74-.81,1.17.91,2.31,1.84,3.39,2.83-4.49-15,3.68-30.8,8.94-44.62,1-2.63,1.93-5.33,3-7.92,1-2.35,2.94-4.44,4.4-6.54,3.38-4.85,6.55-9.83,9.64-14.86,2-3.22,3.93-6.46,5.87-9.71l11.85-19.74,5.92-9.87c1.67-2.78,2.68-5.7,4.4-8.49,12.5-20.28,25.74-40.32,37.25-61.13l8.19-14.81c-.71-.37-1.4-.76-2.1-1.13.84.3,1.7.57,2.57.8l11.7-16.73c1.73-2.47,3.35-5.76,5.65-7.73,1.81-1.56,3.57-2.91,5.32-4.63a35.64,35.64,0,0,1,18.57-9.76,29.78,29.78,0,0,1,13.77,7.77c9.35,9,13.61,22.33,13.83,35.29.3,17-5.22,34.06-11.09,49.65a182.77,182.77,0,0,0-6.39,20.6c-1.24,5-1.92,10.12-2.88,15.14-1.06,5.56-2.47,10.74-2.59,16.47a72.2,72.2,0,0,0,11.9,40.38c5.44,8.4,12.39,15.69,19.75,22.42,3.69,3.37,7.82,6.38,11.36,9.88,3,2.94,5.52,7.28,7.69,10.89,2.55,4.24,4,9.36,6.93,13.26l.59.78c2.33,3,4.78,6,7.32,8.87A64.48,64.48,0,0,0,3729.68,3087.86ZM3933.87,1117.8q-.17-3.27-.45-6.52A24.43,24.43,0,0,1,3933.87,1117.8Zm721,1832.83a12.43,12.43,0,0,0,2.53-5.08c1.76-7.83.6-15.84-2.56-23.77a48.32,48.32,0,0,1,1.89,5.09C4658.49,2932.58,4661.32,2946.53,4654.88,2950.63Z"/><path class="cls-1" d="M2938.73,16a1.91,1.91,0,0,0,.5-1.06Z"/><path class="cls-1" d="M5343.07,4198.82c0-13.35,6.93-26.33,5-39.55-3-21.11-26.7-32.69-47.9-35a133.3,133.3,0,0,0-17.9-.72c-47.65-2.48-93.13,21.09-138.88,36.16a405.54,405.54,0,0,1-113.28,20.1q-2.48.08-5,.11c-13.45-.62-26.72-3.13-37.85-10.41-3.51-2.29-6.83-5.07-10.84-6.28a15.65,15.65,0,0,0-9.61.18c-.3-.11-.6-.23-.9-.32-12.6-3.8-24,9.15-28.6,21.48-8.75,23.35-7.41,49.06-7.28,74a700.22,700.22,0,0,1-17.43,158.93c-5.75,25.26,3.35,28,19.46,26.82,5.2.81,12,.08,19.87-.73,1.28-.13,2.57-.23,3.86-.29,18.16,1.34,37.09,8,52.16,16.32,7.67,4.22,16.16,9.39,24.57,7l.28-.1a18.37,18.37,0,0,0,10.24.24c4.54-1.31,8.14-4.66,11.68-7.79,39.16-34.68,89.9-53.75,141-64.75,27.22-5.86,54.94-9.66,81.55-17.84s52.55-21.25,70.66-42.39,27.16-51.4,18.08-77.71C5359.29,4236.55,5343.06,4219.62,5343.07,4198.82Z"/><g id="Shahpura"><text class="cls-2" transform="translate(3480.43 3283.91) rotate(-59.39)">S</text><text class="cls-2" transform="translate(3498.42 3252.41) rotate(-69.4)">h</text><text class="cls-2" transform="translate(3509.13 3223.05) rotate(-78.37)">a</text><text class="cls-2" transform="translate(3515.02 3193.22) rotate(-87.53)">h</text><text class="cls-2" transform="translate(3516.14 3161.56) rotate(-97.52)">p</text><text class="cls-2" transform="translate(3511.35 3128.47) rotate(-107.24)">u</text><text class="cls-2" transform="matrix(-0.42, -0.91, 0.91, -0.42, 3501.76, 3099.41)">r</text><text class="cls-2" transform="matrix(-0.53, -0.85, 0.85, -0.53, 3493.82, 3081.67)">a</text></g><g id="Kotah"><text class="cls-3" transform="translate(4196.01 3771.58) rotate(-33.54)">K</text><text class="cls-3" transform="matrix(0.87, -0.49, 0.49, 0.87, 4279.7, 3716.34)">o</text><text class="cls-3" transform="translate(4355.71 3673.93) rotate(-26.52)">t</text><text class="cls-3" transform="translate(4398.8 3651.94) rotate(-23.69)">a</text><text class="cls-3" transform="translate(4473.17 3619.2) rotate(-20.08)">h</text></g><g id="Dungarpur"><text class="cls-4" transform="translate(2593.9 4524.76) rotate(19.42)">D</text><text class="cls-4" transform="matrix(1, 0.05, -0.05, 1, 2657.63, 4544.28)">u</text><text class="cls-4" transform="translate(2708.98 4545.98) rotate(-8.2)">n</text><text class="cls-4" transform="translate(2758.09 4538.3) rotate(-16.61)">g</text><text class="cls-4" transform="matrix(0.93, -0.37, 0.37, 0.93, 2805.08, 4523.86)">a</text><text class="cls-4" transform="translate(2846.15 4507.04) rotate(-24.27)">r</text><text class="cls-4" transform="matrix(0.9, -0.43, 0.43, 0.9, 2870.41, 4496.1)">p</text><text class="cls-4" transform="translate(2913.3 4475.82) rotate(-25.34)">u<tspan x="44.46" y="0">r</tspan></text></g><g id="Partabhgarh"><text class="cls-5" transform="translate(3396.67 4491.64) rotate(-90.52)">P</text><text class="cls-5" transform="translate(3396.59 4453.83) rotate(-84.45)">a</text><text class="cls-5" transform="translate(3399.86 4422.29) rotate(-81.51)">r</text><text class="cls-5" transform="translate(3402.8 4402.79) rotate(-80.12)">t</text><text class="cls-5" transform="translate(3406.05 4384.27) rotate(-79.6)">a</text><text class="cls-5" transform="translate(3412.03 4352.53) rotate(-80.96)">b</text><text class="cls-5" transform="matrix(0.08, -1, 1, 0.08, 3418, 4315.48)">g</text><text class="cls-5" transform="translate(3421.08 4277.88) rotate(-92.4)">a</text><text class="cls-5" transform="translate(3419.01 4242.22) rotate(-100.05)">r</text><text class="cls-5" transform="translate(3415.01 4217.97) rotate(-109.91)">h</text></g><g id="Jhalawar"><text class="cls-6" transform="matrix(0.29, -0.96, 0.96, 0.29, 4062.64, 4313.24)">J</text><text class="cls-6" transform="matrix(0.32, -0.95, 0.95, 0.32, 4073.09, 4278.8)">h</text><text class="cls-6" transform="matrix(0.34, -0.94, 0.94, 0.34, 4085.32, 4242.19)">a</text><text class="cls-6" transform="translate(4098.21 4207.11) rotate(-68.9)">l</text><text class="cls-6" transform="translate(4103.62 4192.79) rotate(-67.82)">a</text><text class="cls-6" transform="translate(4117.55 4158.27) rotate(-65.97)">w</text><text class="cls-6" transform="matrix(0.44, -0.9, 0.9, 0.44, 4139.11, 4110.21)">a</text><text class="cls-6" transform="matrix(0.46, -0.89, 0.89, 0.46, 4155.46, 4076.64)">r</text></g><g id="Banswara"><text class="cls-4" transform="translate(3067.72 4790.26) rotate(-72.25)">B</text><text class="cls-4" transform="matrix(0.61, -0.79, 0.79, 0.61, 3083.94, 4742.64)">a</text><text class="cls-4" transform="translate(3108.54 4710.75) rotate(-40.85)">n</text><text class="cls-4" transform="matrix(0.81, -0.59, 0.59, 0.81, 3141.74, 4682.91)">s</text><text class="cls-4" transform="matrix(0.77, -0.64, 0.64, 0.77, 3176.73, 4659.07)">w</text><text class="cls-4" transform="translate(3228.86 4612.71) rotate(-54.57)">a</text><text class="cls-4" transform="translate(3256.23 4572.15) rotate(-64.23)">r</text><text class="cls-4" transform="matrix(0.28, -0.96, 0.96, 0.28, 3270.54, 4542.93)">a</text></g><g id="Bundi"><text class="cls-7" transform="matrix(0.54, -0.84, 0.84, 0.54, 3971.13, 3433.07)">B</text><text class="cls-7" transform="matrix(0.62, -0.78, 0.78, 0.62, 4007.17, 3376.93)">u</text><text class="cls-7" transform="translate(4040.83 3334.72) rotate(-45.94)">n</text><text class="cls-7" transform="matrix(0.76, -0.65, 0.65, 0.76, 4078.27, 3295.8)">d</text><text class="cls-7" transform="matrix(0.8, -0.59, 0.59, 0.8, 4122.91, 3258.58)">i</text></g><g id="Tonk"><text class="cls-8" transform="translate(3945.76 2889.22)"><tspan class="cls-9">T</tspan><tspan x="41.67" y="0">onk</tspan></text><text class="cls-10" transform="matrix(-0.47, -0.88, 0.88, -0.47, 4712.41, 3967.62)">T</text><text class="cls-10" transform="translate(4695.57 3936.04) rotate(-121.18)">o</text><text class="cls-10" transform="matrix(-0.57, -0.82, 0.82, -0.57, 4671.72, 3896.73)">n</text><text class="cls-10" transform="translate(4645.24 3858.71) rotate(-127.91)">k</text><text class="cls-11" transform="matrix(1, -0.01, 0.01, 1, 3218.61, 3940.19)">T</text><text class="cls-11" transform="translate(3250.67 3940.17) rotate(-4.58)">o</text><text class="cls-11" transform="matrix(0.99, -0.17, 0.17, 0.99, 3291.67, 3936.77)">n</text><text class="cls-11" transform="matrix(0.97, -0.25, 0.25, 0.97, 3332.38, 3929.57)">k</text></g><text class="cls-7" transform="translate(5026.65 4304.49)"><tspan class="cls-12">T</tspan><tspan x="46.3" y="0">onk</tspan></text><text class="cls-11" transform="translate(4153.87 4337.83) rotate(-54.31)">T</text><text class="cls-11" transform="translate(4172.46 4312.21) rotate(-57.75)">o</text><text class="cls-11" transform="matrix(0.47, -0.88, 0.88, 0.47, 4194.07, 4277.82)">n</text><text class="cls-11" transform="translate(4213.15 4241.67) rotate(-65.81)">k</text><g id="Udaipur"><text class="cls-13" transform="matrix(0.7, -0.72, 0.72, 0.7, 2767.32, 4050.71)">U</text><text class="cls-13" transform="matrix(0.7, -0.72, 0.72, 0.7, 2867.91, 3947.11)">d</text><text class="cls-13" transform="translate(2953.04 3859.45) rotate(-45.84)">a<tspan x="111.21" y="0">i</tspan><tspan x="159.4" y="0">p</tspan></text><text class="cls-13" transform="matrix(0.7, -0.72, 0.72, 0.7, 3149.23, 3657.41)">u</text><text class="cls-13" transform="translate(3229.19 3575.07) rotate(-45.84)">r</text></g><text class="cls-11" transform="translate(3570.1 2704.44) rotate(-129.41)">K</text><text class="cls-11" transform="translate(3546.42 2675) rotate(-125.24)">i</text><text class="cls-11" transform="translate(3537.2 2662.25) rotate(-121.99)">s</text><text class="cls-11" transform="matrix(-0.46, -0.89, 0.89, -0.46, 3522.86, 2639.63)">e</text><text class="cls-11" transform="matrix(-0.38, -0.93, 0.93, -0.38, 3507.07, 2609.5)">n</text><text class="cls-11" transform="translate(3492.82 2574.56) rotate(-106.48)">g</text><text class="cls-11" transform="translate(3482.09 2538.06) rotate(-101.2)">a</text><text class="cls-11" transform="translate(3475.86 2505.75) rotate(-97.03)">r</text><text class="cls-11" transform="translate(3472.79 2483.72) rotate(-92.37)">h</text><g id="Bikaner"><text class="cls-13" transform="translate(2487.26 1183.19) rotate(9.48)">B</text><text class="cls-13" transform="matrix(1, 0.08, -0.08, 1, 2657.01, 1208.25)">i</text><text class="cls-13" transform="translate(2734.7 1214.62) rotate(0.65)">k</text><text class="cls-13" transform="matrix(1, -0.08, 0.08, 1, 2873.66, 1214.84)">a</text><text class="cls-13" transform="matrix(0.98, -0.17, 0.17, 0.98, 3016.08, 1201.95)">n</text><text class="cls-13" transform="translate(3160.26 1174.87) rotate(-15.49)">e</text><text class="cls-13" transform="translate(3296.4 1134.99) rotate(-20.17)">r</text></g><g id="Jodhpur"><text class="cls-13" transform="matrix(1, -0.03, 0.03, 1, 1445.88, 3045.02)">J</text><text class="cls-13" transform="translate(1600.21 3038.61) rotate(-5.63)">o</text><text class="cls-13" transform="translate(1765.14 3020.78) rotate(-9.54)">d</text><text class="cls-13" transform="translate(1931.9 2991.03) rotate(-13.38)">h</text><text class="cls-13" transform="translate(2089.17 2952.11) rotate(-17.23)">p</text><text class="cls-13" transform="translate(2250.47 2900.29) rotate(-21.1)">u</text><text class="cls-13" transform="translate(2400.07 2840.47) rotate(-24.38)">r</text></g><g id="Jaipur"><text class="cls-13" transform="translate(3920.57 1572.29) rotate(95.24)">J</text><text class="cls-13" transform="matrix(-0.05, 1, -1, -0.05, 3910.46, 1683.14)">a</text><text class="cls-13" transform="translate(3905.77 1797.07) rotate(90.75)">i</text><text class="cls-13" transform="translate(3904.49 1848.31) rotate(88.74)">p</text><text class="cls-13" transform="translate(3907.47 1974.73) rotate(85.93)">u</text><text class="cls-13" transform="matrix(0.11, 0.99, -0.99, 0.11, 3916.35, 2092.5)">r</text></g><g id="Jaisalmer"><text class="cls-13" transform="translate(542.69 2289.78) rotate(-16.9)">J</text><text class="cls-13" transform="matrix(0.93, -0.37, 0.37, 0.93, 675.29, 2247.55)">a</text><text class="cls-13" transform="translate(802.17 2196.07) rotate(-23.31)">i</text><text class="cls-13" transform="translate(868.74 2167.17) rotate(-23.51)">s</text><text class="cls-13" transform="translate(986.48 2116.16) rotate(-23.33)">a<tspan x="135.78" y="0">l</tspan></text><text class="cls-13" transform="translate(1178 2033.55) rotate(-23.33)">m<tspan x="198.6" y="0">e</tspan></text><text class="cls-13" transform="translate(1493.14 1897.07) rotate(-29.24)">r</text></g><g id="Lawa"><text class="cls-14" transform="translate(3916.92 2743.86) rotate(15.48)">L</text><text class="cls-14" transform="translate(3942.69 2750.9) rotate(10.58)">a</text><text class="cls-14" transform="translate(3968.4 2755.85) rotate(4.81)">w</text><text class="cls-14" transform="translate(4004.44 2758.53) rotate(-1)">a</text><text class="cls-15" transform="translate(3047.43 4919.63) rotate(-13.37)">K</text><text class="cls-15" transform="matrix(1, -0.01, 0.01, 1, 3069.56, 4914.61)">u</text><text class="cls-15" transform="matrix(0.99, 0.1, -0.1, 0.99, 3088.88, 4914.48)">s</text><text class="cls-15" transform="translate(3106.47 4916.35) rotate(8.68)">h</text><text class="cls-15" transform="translate(3126.36 4919.5) rotate(7.85)">a</text><text class="cls-15" transform="translate(3146.37 4922.13) rotate(4.77)">l</text><text class="cls-15" transform="translate(3155.99 4923.24) rotate(-1.25)">g</text><text class="cls-15" transform="translate(3180.13 4922.29) rotate(-13.69)">a</text><text class="cls-15" transform="translate(3201.37 4916.56) rotate(-23.33)">r</text><text class="cls-15" transform="translate(3214.99 4910.8) rotate(-33.18)">h</text></g><g id="Matsya_Union" data-name="Matsya Union"><g id="Alwar"><text class="cls-3" transform="translate(4447.96 2088.87) rotate(-63.77)">A</text><text class="cls-3" transform="translate(4492 2001.14) rotate(-61.02)">l</text><text class="cls-3" transform="translate(4507.78 1970.36) rotate(-57.95)">w</text><text class="cls-3" transform="translate(4568.79 1873.9) rotate(-53.92)">a</text><text class="cls-3" transform="matrix(0.63, -0.78, 0.78, 0.63, 4617.13, 1808.14)">r</text></g><g id="Bharatpur"><text class="cls-8" transform="matrix(0.19, -0.98, 0.98, 0.19, 5017.86, 2405.3)">B</text><text class="cls-8" transform="translate(5029.75 2344.07) rotate(-81.1)">h</text><text class="cls-8" transform="matrix(0.1, -1, 1, 0.1, 5037.85, 2292.44)">a</text><text class="cls-8" transform="translate(5042.51 2241.81) rotate(-88.07)">r</text><text class="cls-8" transform="translate(5043.93 2208.68) rotate(-92.73)">a</text><text class="cls-8" transform="translate(5040.87 2156.72) rotate(-98.15)">t</text><text class="cls-8" transform="translate(5036.71 2123.8) rotate(-105.07)">p</text><text class="cls-8" transform="translate(5020.24 2065.37) rotate(-115.62)">u</text><text class="cls-8" transform="translate(4996.87 2018.49) rotate(-119.38)">r</text></g><text class="cls-7" transform="matrix(0.88, -0.47, 0.47, 0.88, 4716.1, 2806.92)">K</text><text class="cls-7" transform="matrix(0.83, -0.56, 0.56, 0.83, 4778.6, 2772.81)">a</text><text class="cls-7" transform="matrix(0.79, -0.62, 0.62, 0.79, 4825.46, 2740.54)">r</text><text class="cls-7" transform="translate(4854.27 2718.16) rotate(-42.4)">a</text><text class="cls-7" transform="translate(4896.78 2679.16) rotate(-47.61)">u</text><text class="cls-7" transform="matrix(0.62, -0.78, 0.78, 0.62, 4935.71, 2635.56)">l</text><text class="cls-7" transform="matrix(0.6, -0.8, 0.8, 0.6, 4950.56, 2616.94)">i</text><text class="cls-4" transform="translate(5156.71 2598.84) rotate(-36.52)">D</text><text class="cls-4" transform="matrix(0.82, -0.57, 0.57, 0.82, 5201.72, 2565.61)">h</text><text class="cls-4" transform="matrix(0.83, -0.55, 0.55, 0.83, 5237.87, 2540.27)">o</text><text class="cls-4" transform="translate(5275.98 2515.04) rotate(-32.71)">l</text><text class="cls-4" transform="matrix(0.85, -0.53, 0.53, 0.85, 5290.64, 2505.47)">p</text><text class="cls-4" transform="matrix(0.86, -0.51, 0.51, 0.86, 5330.72, 2480.7)">u</text><text class="cls-4" transform="matrix(0.87, -0.49, 0.49, 0.87, 5368.92, 2458.41)">r</text></g><g id="Layer_26" data-name="Layer 26"><text class="cls-16" transform="translate(4405.93 832.48)">G<tspan class="cls-17" x="129.2" y="0">r</tspan><tspan x="192.6" y="0">e</tspan><tspan class="cls-18" x="292.8" y="0">a</tspan><tspan class="cls-19" x="388.4" y="0">t</tspan><tspan x="453.4" y="0">er </tspan><tspan class="cls-20" x="661.39" y="0">R</tspan><tspan x="771.39" y="0">ajasthan</tspan></text></g><g id="Sirohi"><text class="cls-21" transform="translate(2167.09 3767.92) rotate(-60.26)">S</text><text class="cls-21" transform="translate(2191.66 3722.86) rotate(-66.29)">i</text><text class="cls-21" transform="translate(2199.18 3705.91) rotate(-70.06)">r</text><text class="cls-21" transform="translate(2208.59 3681.01) rotate(-75.89)">o</text><text class="cls-21" transform="translate(2219.67 3635.59) rotate(-83.43)">h</text><text class="cls-21" transform="translate(2224.03 3591.74) rotate(-88.67)">i</text></g></g><g id="Ajmer-Merwara"><path class="cls-22" d="M2739.34,3253.4q.66-5.6,1.2-11.21c1.64-16.89.52-34.3,4.12-50.86,1.92-8.84,1.81-17.52,3.55-26.45a155.71,155.71,0,0,1,7.93-27.2c2.75-7,6.51-13.35,9.65-20.13,2.8-6,5.09-12.14,8.7-17.83,11.81-18.62,30.74-35.39,46.39-50.77,18.37-18.06,40.94-31,61.9-46.21,3.64-2.64,6.14-6.74,9.58-9.52,4.27-3.46,10.19-5.76,14.95-8.53q15.16-8.83,29.84-18.45,23.12-15.15,44.93-32.17c13.91-10.86,29.06-20.85,41.12-33.84s23.74-26.69,33.26-41.78a162.61,162.61,0,0,0,23.4-65.13c3.27-25.15-5.76-50-18.9-71.07-6.2-10-13.52-18.75-18.83-29.36a141.7,141.7,0,0,1-11.78-32.65c-4-17.84,1.44-38,18.67-46.75,10.62-5.37,22.95-4.67,34.45-6.45a332.88,332.88,0,0,1,40.87-3.78c9.42-.29,18.89.65,28.28.35,8-.26,16.38-2.75,24-5.12,26.18-8.2,59.73-25,75.49-48.64a133.7,133.7,0,0,0,16.32-23c12.59-22.77,26.42-55.44,57.55-57.42,5.5-.35,12.4.12,17.57,2,5.41,1.93,9.16,3.91,15.18,2.11,5.39-1.61,10-5.31,13.53-9.65,3.4-4.13,5.44-10.91,9.38-14.23-.11,7.57-1.51,15.35-2.29,22.9a148.21,148.21,0,0,0-.58,15.09c0,6-2.45,11.2-.94,17.07,1.77,6.88,3.84,13.69,5.76,20.53,2.54,5.09,3.37,12,4.91,17.51,1.81,6.44,3.86,12.86,5.43,19.35,2.95,12.16,7.22,23.85,11.67,35.65q6.3,16.71,13.11,33.22c4.13,10,7.24,20.61,12.71,30a168.09,168.09,0,0,0,11.25,16.24c6.69,8.89,13.38,17.77,20.3,26.47q17.75,22.29,37.52,42.87c6,6.25,13.67,11.67,16.49,20a103.59,103.59,0,0,1,5.23,26.77c.34,5.32.73,10.2,3.34,15s7,7.06,11.51,9.86c-9.46,8.55-16.89,19.22-24.48,29.42s-15.36,20.89-20.65,32.72a181.87,181.87,0,0,0-11.92,36.6c-1.21,5.71-1.45,11.07-1.88,16.78-.44,5.87-4.66,10.8-7.31,15.93-5.11,9.9-10.14,19.84-15.16,29.78-2.42,4.79-5.22,9.53-7.31,14.46-1.9,4.46.26,10.61-3.68,14-3,2.63-6.83,1.51-10.15,4-3.06,2.29-5.85,4.86-9.41,6.4a50.3,50.3,0,0,1-50.18-6.62c-4.88-3.88-9-8.66-14.08-12.3-14.61-10.48-34.83-9.33-51.13-4.1-16.84,5.4-32.69,14.43-50.45,16.65-23.28,2.91-46.21-6.8-66.86-18-89.73-48.49-131.68-25.08-197.89,41.93-46.63,47.19-102.56,95.93-137.76,151.68q-1.87,3-3.82,5.89a393.22,393.22,0,0,1-28.28,37.18c-4.86,5.71-9.58,11.57-15.19,16.51q-9.16,8.07-18,16.44-17.15,16.14-33.25,33.35-8,8.6-15.82,17.45c-4.77,5.44-10.48,10.89-14.29,17-1.93,3.12-2.88,5.91-6.38,7.78,5.48-4.77,5.65-14.6,6.71-21.25,1.37-8.55,2.54-17.13,4.45-25.58A380.86,380.86,0,0,0,2739.34,3253.4Z"/><path class="cls-22" d="M3534.32,3064.73a49.29,49.29,0,0,1,2.86,5.93c2.18,5.56,5.1,11.53,10.63,13.81,3.17,1.3,6.71,1.17,10.11,1.62a14.87,14.87,0,0,1,7.7,3.48,30,30,0,0,0,8.55,4.68c7.92,3,15.49,5.65,22.82,9.81a196.89,196.89,0,0,0,55.9,21.27c11.16,2.39,22.65,5.46,34.07,6,14.56.73,29.45-2.74,39.77-13.61a52.63,52.63,0,0,0,10.88-18.18c1.41-3.82,2-7.68,3-11.55,1.25-4.93,4.29-9.58,6.64-14.14a16,16,0,0,0,1.26-2.93,8.11,8.11,0,0,0-1.18-6.79c-1.44-2-4.19-2-5.51-3.52-1.1-1.29-1.32-4.39-1.95-6a49.17,49.17,0,0,0-7-12c-6.84-8.92-15.52-16.37-23.45-24.28-47.2-47-9.53-93.6-1.71-145.6,3.45-23-7.41-52.14-30.58-54-20.34-1.64-35.14,18.18-45.66,35.66L3560,2973.27c-4.39,7.3-9.23,14.31-13.84,21.46-2,3.08-4.68,6.39-5.9,9.85-1.09,3.11-1.45,6.78-2.45,10-2.19,7.08-7,13-8.78,20-1.4,5.35-.89,11.56-.27,17C3529.29,3056.59,3531.85,3060.29,3534.32,3064.73Z"/><path class="cls-23" d="M3570.91,2993.31q-2.15-2.09-4.33-4.15"/><path class="cls-24" d="M3557.27,2980.59a476.58,476.58,0,0,0-144.8-89"/><path class="cls-23" d="M3406.56,2889.34q-2.81-1-5.63-2.06"/><path class="cls-25" d="M3592.62,3015.81c-6.35-14.35-12.41-33.92-13.23-48.91L3568,2990.47l-23.86,10.8C3559,3002.49,3578.45,3009.07,3592.62,3015.81Z"/><text class="cls-4" transform="translate(3170.61 2758.56)">Ajmer<tspan x="-68.08" y="96">-Merwara</tspan></text></g></svg>