<svg xmlns="http://www.w3.org/2000/svg" viewBox="0 0 6128.57 5115.95"><defs><style>.cls-1{fill:#fbb463;}.cls-1,.cls-14,.cls-3,.cls-30{opacity:0.75;}.cls-2{font-size:130px;}.cls-13,.cls-15,.cls-16,.cls-17,.cls-19,.cls-2,.cls-20,.cls-27,.cls-28,.cls-29,.cls-4,.cls-5,.cls-6,.cls-7,.cls-8{fill:#231f20;}.cls-15,.cls-16,.cls-17,.cls-2,.cls-28,.cls-29,.cls-5,.cls-6,.cls-7{font-family:HelveticaNeue, Helvetica Neue;}.cls-3{fill:#d9e8f1;}.cls-12,.cls-14,.cls-26,.cls-3,.cls-31{stroke:#231f20;stroke-miterlimit:10;}.cls-12,.cls-14,.cls-3{stroke-width:10px;}.cls-14,.cls-3{stroke-dasharray:12;}.cls-4{font-size:149px;}.cls-27,.cls-4{font-family:HelveticaNeue-Medium, Helvetica Neue;}.cls-5{font-size:90px;}.cls-6{font-size:100px;}.cls-19,.cls-7{font-size:80px;}.cls-27,.cls-8{font-size:200px;}.cls-19,.cls-20,.cls-8{font-family:MyriadPro-Regular, Myriad Pro;}.cls-9{letter-spacing:0.01em;}.cls-10{letter-spacing:0em;}.cls-11{letter-spacing:0em;}.cls-12,.cls-26,.cls-31{fill:none;}.cls-14{fill:#8f55a2;}.cls-15{font-size:50px;}.cls-16{font-size:60px;}.cls-17,.cls-20{font-size:70px;}.cls-18{letter-spacing:-0.11em;}.cls-21{letter-spacing:-0.11em;}.cls-22{letter-spacing:-0.01em;}.cls-23{letter-spacing:-0.01em;}.cls-24{letter-spacing:0.01em;}.cls-25{letter-spacing:0em;}.cls-26,.cls-31{stroke-width:7px;}.cls-28{font-size:45px;}.cls-29{font-size:36px;}.cls-30{fill:#2ca149;}.cls-31{stroke-dasharray:12.66 12.66;}</style></defs><title>GreaterRajasthan</title><g id="Sirohi"><path class="cls-1" d="M1891.45,3877.18c22.5,13.23,50.35,14.34,76,9.66,13.28-2.42,27.31-6.22,39.89-1.33,9.17,3.56,16,11.23,22.19,18.91a328.58,328.58,0,0,1,23.13,32.79c6.65,10.77,14.07,22,17.34,34.34a72.7,72.7,0,0,1,2.41,16.69,25.11,25.11,0,0,0,0,4.23c.34,1.58.31,1.35,2,2.05a69.1,69.1,0,0,1,7.45,3.61c2.31,1.3,5.65,2.77,7.36,4.8a93.73,93.73,0,0,0,21.1,18.81c2.86,1.87,6.35,4.61,9.7,5.44,3,.74,5.92,1.22,8.93,2.12,3.77,1.12,7.6,2,11.44,2.83a143.57,143.57,0,0,0,40.93,2.5c6.62-.55,13.25,0,19.9-.59a115.82,115.82,0,0,0,20.27-3.68c4.29-1.16,9.9-2.14,13.63-4.62,2.93-1.94,5.78-5.28,8.33-7.75,30.86-29.79,44.65-72,67.4-107.4,30.17-47,75.76-82.51,106.28-129.3,7.33-11.23,13.68-26.34,6-37.32-4.19-6-11.43-8.84-18-12-56.1-27-82.41-102.82-55.11-158.79,5.57-11.43,13-22,16.75-34.2s2.88-26.89-6.36-35.62c-12.67-12-33.71-7.19-49.43-14.73-20.52-9.83-25.44-36.12-29.75-58.46s-15.17-48.61-37.78-51.11c-15.79-1.75-29.85,9.42-41.29,20.45a489.94,489.94,0,0,0-90.32,118.5c-16.09,29.57-30,61.95-56.47,82.79-17.34,13.66-38.76,21.23-56.58,34.25-42.18,30.83-56.9,84-82.06,127.29a110.47,110.47,0,0,1-11.23,15.34c-4,4.79-9.62,8.29-14.59,12.1l-33,25.28c-2.26,1.73-4.21,3.7-6.55,5.41,3.12,2.15,3.92,6.72,5.47,10,2,4.27,4.07,8.53,5.95,12.86s3.4,8.85,6.14,13A68.78,68.78,0,0,0,1891.45,3877.18Z"/><text class="cls-2" transform="translate(2172.19 3914.51) rotate(-60.26)">S</text><text class="cls-2" transform="translate(2215.36 3835.34) rotate(-66.29)">i</text><text class="cls-2" transform="translate(2228.56 3805.55) rotate(-70.06)">r</text><text class="cls-2" transform="translate(2245.09 3761.78) rotate(-75.9)">o</text><text class="cls-2" transform="matrix(0.11, -0.99, 0.99, 0.11, 2264.56, 3681.99)">h</text><text class="cls-2" transform="matrix(0.02, -1, 1, 0.02, 2272.2, 3604.91)">i</text></g><g id="Matsya_Union" data-name="Matsya Union"><path class="cls-3" d="M5126.73,2411.63c5.46-4,12-6.39,18.59-8,17.07-4.15,34.93-3.62,52.27-6.48,45.54-7.5,88.21-38.23,133.71-30.45,13.84,2.37,27.31,8.3,41.31,7.24,18.69-1.42,33.91-14.79,50.52-23.49,38.61-20.24,77.67-24.19,110.58,8.33,5.95,5.88,11.44,12.42,14.72,20.11,9.34,21.94-5.28,31.36-20.4,43.9l-53.63,44.49a433.16,433.16,0,0,1-104.12,63.35c-42.41,18.2-87.31,32.38-124.93,59.94-39.74,29.13-76.78,61.32-120.84,83.57l-62.25,31.44c-3.47,1.75-6.63,4-10.07,5.87a12.68,12.68,0,0,1-5.17,1.87,16.69,16.69,0,0,0-5.65,1.42c-2,.75-4.38,1.06-6.48,1.75a92.25,92.25,0,0,0-12.81,5.37c-8.28,4.18-16,9.35-23.78,14.39-2.63,1.71-5.28,3.4-7.95,5a284.65,284.65,0,0,1-54.87,26.42,573.87,573.87,0,0,0-198.57,119.45c-25.55,23.59-52.4,45.33-82.13,63.51,6.57-4,3.71-18.1,2-23.84a57.49,57.49,0,0,0-4.09-9.7q-1.82-3.51-3.93-6.85c-3-4.72-6.14-10.18-10.18-14l-6.85-6.51-3.32-3.15c-.9-.85-2-2.39-3.09-2.94l-11-10.49c-1.84-1.75-3.66-3.52-5.52-5.24-1.49-1.38-3.49-2.27-5.21-3.4l-7.35-4.87-25.36-16.8c-3.53-2.34-6.91-4.82-10.39-7.26a66.11,66.11,0,0,1-9.91-8.54c-5.36-5.63-10.9-12.71-12.75-20.37-.71-3-.62-6-1-9-.85-5.91,2.79-13.09,6-17.86a50,50,0,0,1,10.72-11.39c4.06-3.2,8.23-6.44,12.58-9.24a221.36,221.36,0,0,1,20.11-11c7-3.52,14.14-7,20.65-11.33,1.27-.85,1.89-2.08,2.9-3.2q2.07-2.28,4.23-4.49,4.23-4.32,8.75-8.34,3.91-3.47,8-6.69c2.52-2,4.79-4.24,7.39-6.13,6.9-5,15.21-7.6,23-11.09,4-1.78,7.67-4.28,11.66-5.94a81.71,81.71,0,0,0,29.2-20.65,79.73,79.73,0,0,0,19.23-38.6q1-5.71,1.89-11.46a9.13,9.13,0,0,1,.52-2.35,6.28,6.28,0,0,0,.54-2.06c.14-1.69-.13-3.39.06-5.07a33.45,33.45,0,0,1,1.67-7.27,39.52,39.52,0,0,1,7.48-12.81l.6-.67a53.17,53.17,0,0,1,11.54-9.48,71.49,71.49,0,0,1,6.6-3.61c1.12-.54,2.26-1.11,3.42-1.56a30.08,30.08,0,0,0,3.06-1.6c7.84-4.05,16.32-6.63,24.77-9,5.12-1.46,10.27-2.85,15.33-4.49,2.53-.82,5-1.69,7.51-2.66,1.1-.43,2.13-.95,3.18-1.44,1.22-.58,2.57-.8,3.78-1.44s2.43-1.92,3.81-2.65c1.54-.81,3.3-1.32,4.88-2.07a63.26,63.26,0,0,0,17.14-11.94l.16-.15a93.05,93.05,0,0,0,13.3-17.24,189.24,189.24,0,0,0,10.63-18.93c9.66-20.36,15.26-44.13,11.17-66.54a111.07,111.07,0,0,0-29.26-56.46,91.45,91.45,0,0,0-14.72-12.68l-17.42-11.71c-3.4-2.28-6.81-4.66-9.06-8.16s-6-5.91-8.76-8.87a83.5,83.5,0,0,1-14.85-21.51c-5.18-11.13-9.8-22.58-14.77-33.81-10-22.67-20-45.37-28.65-68.61-3-7.94-6.54-15.71-9.8-23.53-1.24-3-1.29-7.86-4.83-9.14-6.26-2.26-10.75-9.35-16.39-12.8-9.82-6-21.59-10-32.71-12.67a23.11,23.11,0,0,0-8.76-.88c-3.17.46-6,2.11-8.79,3.72-13.45,7.83-27,15.41-40.61,23-9.79,5.5-16.85,13.87-26.66,19.66-8.24,4.86-17.1,9-26.59,10.23s-19.72-.85-26.88-7.19c-4.8-4.25-8-10.13-12.79-14.34-12.86-11.2-32.45-7.37-48.9-2.89-15.05,4.09-27.93,6.77-40.59,16.19-10.28,7.65-20.14,17.41-33.8,17.68-6.48.12-12.85-2.19-19.31-1.75-19.43,1.32-31,26-50.48,27.27-11.94.8-22.46-7.72-30.19-16.85-8.68-10.25-15-21.61-28.35-24.71-14.39-3.33-29.79-.32-43.88-5.35-31.32-11.18-40-59.67-33.45-88,3.18-13.78,9.94-26.38,16.36-39q1.14-2.24,2.25-4.47c14.07-28.37,24.36-58.44,33.89-88.63,12.12-38.42,23.16-78.08,21.1-118.31-.64-12.53,1.67-24.1,1.86-36.18.17-11-2.87-22.65-4.32-33.51-2.57-19.37-7.53-44.31,1.59-62.72,4.59-9.26,18.19-11.68,24-20.39,9.91-15,6-30.55,3.94-47.37a116.44,116.44,0,0,1,19.32-79.19c3.35-4.89,7.34-9.71,12.85-11.89,7.36-2.9,15.74-.46,23.53-1.84,18.83-3.32,26.54-25.89,29.09-44.83s5.65-41.27,22.55-50.2c-7.83,4.13,18.25,36.64,23,39.7,13.67,8.9,30.35,12.13,43.36,22.21,9.71,7.52,16.39,18.17,23.41,28.25a353,353,0,0,0,33.13,40.75c19.21,20.33,37.61-4.23,45.83-22.84,12.53-28.38,19.48-59.26,35.09-86.07,16.22-27.87,44.47-51.18,77.78-45.4,32.4,5.62,61.82,23.74,68.25,58.74,1.77,9.66,1.54,19.57.9,29.38a360.53,360.53,0,0,1-18.78,93.57c-7,20.46-15.91,40.34-21.34,61.33-2.66,10.26-6.09,22.85-4.86,33.54,1.15,10,7.45,19.51,10.77,28.93,2.58,7.33,2.2,15.12,9.68,20.07,5.42,3.59,12.06,4.69,18.48,5.7l14.43,2.28c4.16.66,8.43,1.36,12,3.52,1.21.73,3.18,1.15,3.45-.23.61-3.18,4.59-7.33,6.55-9.83a86.45,86.45,0,0,1,17-16.39,97.88,97.88,0,0,1,43.07-17.7c29.87-4.51,60.7,3.91,86.89,19,8.36,4.8,16.59,10.54,21.58,18.79,10.79,17.86,3.32,40.56,3,61.43-.69,43.88,31.54,81.38,66.45,108,29.81,22.7,63.3,41.05,89.87,67.81,20.86,21,50.41,53.81,54.43,84.13,1.05,7.94.21,16-1.19,23.9-4.48,25.07-16,45.7-27.16,68-8.31,16.61-3.94,37.44,7.54,51.45,16.11,19.66,35.82,8.6,56.73,18.18,11.1,5.09,20.22,16.64,18.44,28.71-2.07,14-16.6,22-29.27,28.33-23.5,11.7-115.34,50.55-108.72,82.71,2.2,10.69,13.13,17.88,24,19a36.93,36.93,0,0,0,12.6-.85C5121.57,2419.59,5123.16,2414.28,5126.73,2411.63Z"/><g id="Alwar"><text class="cls-4" transform="translate(4447.96 2088.87) rotate(-63.77)">A</text><text class="cls-4" transform="translate(4492 2001.14) rotate(-61.02)">l</text><text class="cls-4" transform="translate(4507.78 1970.36) rotate(-57.95)">w</text><text class="cls-4" transform="translate(4568.79 1873.9) rotate(-53.92)">a</text><text class="cls-4" transform="matrix(0.63, -0.78, 0.78, 0.63, 4617.13, 1808.14)">r</text></g><g id="Bharatpur"><text class="cls-5" transform="matrix(0.19, -0.98, 0.98, 0.19, 5017.86, 2405.3)">B</text><text class="cls-5" transform="translate(5029.75 2344.07) rotate(-81.1)">h</text><text class="cls-5" transform="matrix(0.1, -1, 1, 0.1, 5037.85, 2292.44)">a</text><text class="cls-5" transform="translate(5042.51 2241.81) rotate(-88.07)">r</text><text class="cls-5" transform="translate(5043.93 2208.68) rotate(-92.73)">a</text><text class="cls-5" transform="translate(5040.87 2156.72) rotate(-98.15)">t</text><text class="cls-5" transform="translate(5036.71 2123.8) rotate(-105.07)">p</text><text class="cls-5" transform="translate(5020.24 2065.37) rotate(-115.62)">u</text><text class="cls-5" transform="translate(4996.87 2018.49) rotate(-119.38)">r</text></g><text class="cls-6" transform="matrix(0.88, -0.47, 0.47, 0.88, 4716.1, 2806.92)">K</text><text class="cls-6" transform="matrix(0.83, -0.56, 0.56, 0.83, 4778.6, 2772.81)">a</text><text class="cls-6" transform="matrix(0.79, -0.62, 0.62, 0.79, 4825.46, 2740.54)">r</text><text class="cls-6" transform="translate(4854.27 2718.16) rotate(-42.4)">a</text><text class="cls-6" transform="translate(4896.78 2679.16) rotate(-47.61)">u</text><text class="cls-6" transform="matrix(0.62, -0.78, 0.78, 0.62, 4935.71, 2635.56)">l</text><text class="cls-6" transform="matrix(0.6, -0.8, 0.8, 0.6, 4950.56, 2616.94)">i</text><text class="cls-7" transform="translate(5156.71 2598.84) rotate(-36.52)">D</text><text class="cls-7" transform="matrix(0.82, -0.57, 0.57, 0.82, 5201.72, 2565.61)">h</text><text class="cls-7" transform="matrix(0.83, -0.55, 0.55, 0.83, 5237.87, 2540.27)">o</text><text class="cls-7" transform="translate(5275.98 2515.04) rotate(-32.71)">l</text><text class="cls-7" transform="matrix(0.85, -0.53, 0.53, 0.85, 5290.64, 2505.47)">p</text><text class="cls-7" transform="matrix(0.86, -0.51, 0.51, 0.86, 5330.72, 2480.7)">u</text><text class="cls-7" transform="matrix(0.87, -0.49, 0.49, 0.87, 5368.92, 2458.41)">r</text></g><g id="Layer_26" data-name="Layer 26"><text class="cls-8" transform="translate(4569.37 1261.21)"><tspan class="cls-9">M</tspan><tspan class="cls-10" x="162" y="0">a</tspan><tspan x="257.6" y="0">ts</tspan><tspan class="cls-11" x="402.99" y="0">y</tspan><tspan x="496.39" y="0">a Union</tspan></text><path class="cls-12" d="M4750.31,2016.22c275.31-160.09,427.2-415.6,388.42-661.4"/><path class="cls-13" d="M4697.3,2045.07c30-4.41,69.51-5.57,97.81.63l-37.94-33.44-7.77-50C4739.4,1989.49,4717.14,2022.19,4697.3,2045.07Z"/></g><g id="Rajasthan_Union_1st_" data-name="Rajasthan Union (1st)"><g id="Lawa"><path class="cls-14" d="M3036.23,4942.22c8.25,1,16.71,2.58,25,3s16.62-2.83,24.56-5.15a162.37,162.37,0,0,1,78.11-3.16c15.77,3.26,31.55,8.92,47.53,7,19.18-2.33,35.48-15.35,47.78-30.25,8.53-10.34,15.85-25,9-36.56-4.67-7.89-14.21-11.08-22.37-15.25a75.84,75.84,0,0,1-33.51-34.7c-4.5-9.45-4.75-15.58-3.67-25.92L3212,4769c.3-.48.58-1,.85-1.44,7-12.68,7.13-27.91,10.55-42,11.82-48.66,60.9-77.79,107.11-97.06,5.77,0,12.72-6.67,16.78-10a91.34,91.34,0,0,1,12.57-8.4c3.63-2.12,8.65-4.06,11.39-7.21s4.56-7.94,7-11.48a120.84,120.84,0,0,1,8.64-11.07,122.35,122.35,0,0,1,20.33-18.47c1.93-1.39,23.9-13.71,24-13.4-15.76-80.06,16.59-160.63,42.85-237.88,8.39-24.68,16.19-51.88,6.95-76.26-5.11-13.49-15-24.56-24.6-35.3l-30-33.42c-4.23-4.72-8.56-9.29-12.09-14.59-.88-1.32-8.1-16.23-7.82-16.25l-.47,0,.54-.11c-.38-6.71-3.07-15.09-2.6-21.8,1.36-19.44-17.79-33.46-26.11-51.08-4.67-9.91-5.83-20.94-8-31.56-2-10.09-2.72-19.35,5.08-27.47-1.91,2-4.11,1.63-6.3.88,1.6.41,3.36.69,4.78-.12s2.14-2.66,2.66-4.31c7.79-24.57,14.66-48.68,23.75-72.63,5.18-13.65,9-28.09,8.37-42.67-.63-14.74-8.94-27-9.47-41.52-.44-12,2.93-22.91.44-33.92l.73.05c1.17.07,2.36.06,3.53.09,4.59.14,9.19.35,13.77.75,8.76.76,17.64,2.12,25.87,5.34q1.95.76,3.83,1.68c14.42,7.07,22.22,18.91,40.28,19.61a8.67,8.67,0,0,0,4.37-.65c1.78-.93,2.77-2.86,3.48-4.73,4.4-11.64,1.82-24.83-3-36.32-16.7-40-45.62-71.27-70.08-106.47-4.65-6.7-9.53-14.26-8.4-22.33.59-4.24,2.82-8.08,5.49-11.43a46.33,46.33,0,0,1,38.6-16.86c54,3.52,37.67,87.5,86.12,89.68,12.37.56,24-5.34,35.37-10.15,18-7.59,35.29-10.06,54.25-13.2,16.53-2.74,18.16-8.69,18.34-26.53.13-12.66-9.86-24.9-8.85-35,1.31-13,21.81-27.41,31.87-33.11,17.57-10,37.16-18.09,57.31-16.76,44.5,2.94,55.86,32.37,39.24,69.19-6.44,14.26-11.14,32.71-.47,44.16,5.14,5.52,13.64,9.17,14.44,16.67.43,4-1.67,7.84-4,11.14-11.83,16.7-30.75,26.57-47.16,38.81s-31.75,29.91-30.47,50.34c59-11.27,118.82,13.38,178.91,14,35,.35,69.76-7.5,104.73-6.11,5,.2,9.9.58,14.85.76,4.58.17,9.43-.63,13.73.68,9.93,3,19.67,8.27,29.26,12.29-.68-.29-.8-9.61-.85-16.94,2,26.32,2.79,52.8,9.37,78.51,1.92,7.5,4.15,15.12,8.8,21.31,7.71,10.25,19.92,13.21,25.88,25,4.86,9.62,6.22,22.82,1.51,32.85-4.14,8.82-13.36,17.31-20.6,23.66a201.76,201.76,0,0,1-24.26,18.33c-11.3,7.22-24,13.72-30.74,25.3-4.63,7.91-5.93,17.29-6.72,26.43-4.24,49.28,3.62,98.91,1,148.3s-18.43,101.88-58.3,131.15c-32.81,24.08-75.69,28.21-116.25,31.52-7.26,8.49,1.23,21.16,9.82,28.29,43.06,35.77,114.19,66.44,169.26,43l3.21-1.39c18.24-8,35.83-17.76,51.73-29.81,16.6-12.59,32.53-26.18,48.71-39.34v.23c44.22-28.15,81.22-77.35,105.09-123.37,18.12-34.94,27.81-73.75,32.78-112.8,1-8-.15-16.08.53-24.08,4.94,8,3.2,18.4,7,27.19a79.15,79.15,0,0,0,18.45,25.77c15.75,14.92,36.73,24.2,58.08,27.36,34.21,5.07,69-3.45,101.71-14.53,11.66-3.94,23.43-8.27,35.73-8.75,21.3-.84,41.1,9.8,60.57,18.47a363.34,363.34,0,0,0,93.24,27.29c16.63-44.85,13.23-96.72-9.12-139-4.54-8.59-10-17.4-9.66-27.11.46-14.4,13.4-25.87,14.87-40.21a28.38,28.38,0,0,0-.15-6.88c10.55,3.71,20.39,8.27,31.66,8.82l48.08,2.35c4.36.21,8.86.4,12.94-1.14,5.06-1.92,8.77-6.25,12.13-10.49,12.82-16.19,24.27-34.66,26-55.23,2.53-31-17.19-58.91-36-83.72-9.16-9.16-15.77-20.33-25.76-28.93-4.66-4-10.26-8.69-16-11s-12.34-1.33-18.63-1.25c-2.56,0-5.26,0-7.5-1.21-3.91-2.16-5-7.19-5.43-11.64a91.6,91.6,0,0,1,.73-21.59c.53-3.54.6-5.81-.07-7.8l1.12,1.11c28.13-12.17,34.95-48.28,37.54-78.81s8.25-66.51,35.74-80.08c10.23-5,21.94-5.94,33.31-6.76l148.26-10.57c19.82-1.41,40.56-3.12,57.35-13.75,33.53-21.22,37.93-67.51,38.79-107.18q1.07-49.24,2.15-98.49c.14-6.24.2-12.8-2.76-18.29-3.64-6.75-11.08-10.49-18.32-13-32.5-11.35-68.62-6.5-101.37,4.14s-63.44,26.78-95.81,38.5c-59,21.34-124.76,27.41-184.58,8.62s-112.49-64.43-131.91-124.05c-6.51-20-9.28-41.05-10.48-62.06a434.41,434.41,0,0,1,10.73-123.79c-4.05,2.23-8.24,4.4-12.5,6.55,4.15-2.35,8.27-4.82,12.46-7.23,2.93-4.22,5.95-8.31,9-12.44,4.67-6.34,8.41-13.36,13.3-19.53,6.89-8.69,16.44-10.39,24.12-17.35,7.44-6.73,12.73-15.47,19.94-22.42a531.69,531.69,0,0,1,110.58-81.78c5.44-3,11.45-6.65,12.81-12.71,8.4-37.25-49.32-78.75-74.57-94.89-11-7-22.67-13.19-31.92-22.36s-15.85-22.23-13.42-35c6.08-32.06,49.22-38.62,69.79-57.34,11.68-10.62,22.24-22.75,35.76-30.91,12.18-7.36,26.21-11.15,38.57-18.2,18.71-10.67,32.25-29.21,38.23-49.76,5.29-18.18,1-33.39,15-47.39,30.72-30.75,84.93-22.52,112-60.83,35.32-50,42.74-107.6-5.42-152.52-16.67-15.54-37.85-26.39-51.44-44.66-6.48-8.72-10.92-18.75-15.31-28.69-10.51-23.82-21.13-47.59-31.54-71.46-3.72-8.52-6.11-17.54-9.51-26.18-2.83-7.17-11-16.34-7.21-24.33-1,2-31.47-17.35-33.75-18.48-10.24-5.07-22.09-7.73-33.21-5.07-8,1.9-15,6.36-21.93,10.74-5.18,3.29-10.59,7.86-16.27,10.2-4.32,1.78-8,2.4-12,5.3-8.23,6-14.51,14.3-23.16,19.77a51.88,51.88,0,0,1-31.56,8.19c-9.92-.51-15.44-4.81-22.09-12-8.54-9.29-21.43-19-34.57-17.57a161.71,161.71,0,0,0-75.73,28.41c-4.25,3-8.4,6.22-13.18,8.28-12.09,5.22-23.71-4-36.32,1.36-7.81,3.29-14.32,9-21.09,14s-14.29,9.8-22.72,10.64c-26,2.6-31.18-29-51.48-37.45-5.37-2.24-11.2-3.09-17-3.92l-19.49-2.82c-5.9-.86-13.64-.66-19.19-2.8-7.95-3.07-14.58-13.64-18.63-20.78a89.71,89.71,0,0,1-11.64-45.9c.62-28.65,16.06-53.48,26.84-79.44,23.91-57.58,46.14-116.58,49.67-179.49,1.71-30.55-1-61.12-3.62-91.54-1.31-15-3.71-30.41-3.29-45.5.35-12.77-10.33-19.63-19.73-26.92-21.89-17-73.42-36.64-84.19-62.07-3-7.11-2.62-15.13-2.31-22.84,1.16-28,.69-56.48-7.94-83.09-14.32-44.13-5.93-56.11,25.89-88.66,12.51-12.8,23.76-29.74,20.48-47.33-2.83-15.17-15.56-26.19-27.37-36.12q-46.89-39.42-90.53-82.51-37.26-36.78-72-76.05-17.34-19.62-34-39.82c-9.75-11.82-17.18-24.33-25.56-37.17-4.44-6.8-7.51-14.37-10.48-21.93,0-.37-.06-.75-.1-1.12a301.91,301.91,0,0,1-60.6-175.08c-.54-28.93,3.09-58-.94-86.7-4.86-34.5-20.56-66.39-36-97.61-11.74-23.67-25.1-49-49-60.36-20.75-9.89-45-7-67.91-8.43-49.9-3-83.48-21.4-110.5-63.31-17.84-27.66-34.33-61.18-70.06-62.41-39.65-1.36-78.19.15-117,9.12-16.93,3.9-34,9-51.31,7.73s-35.44-10.48-41.25-26.85c-6.45-18.15,3.73-37.47,12-54.84,32.31-67.64,57-154.32,17.26-217.85a221.7,221.7,0,0,0-132.38-96.26c-74.55-18.73-154.17,2.57-229.63-12.11-28.39-5.52-58.12-18.13-71.45-43.8C2907.61,88.26,2923,49.18,2938.73,16c-4.46,5.69-38,21.59-42.72,25.14-14.15,10.6-26.87,22-42.19,31.19-30.07,18-62.77,31-95,44.63-48.8,20.65-98.7,44.33-132,85.55-21.47,26.59-34.59,58.78-47.42,90.47-16.8,39.21-30,80.42-46.64,119.37-17.48,40.94-50.48,80.08-74.41,117.68-35.35,55.55-70.77,111.18-101.74,169.34-25.66,48.2-67.51,100.16-114.17,129.84-38.3,24.36-83.61,34.5-126.37,49.74-61.33,21.86-118.37,55.35-167.92,97.53q-16.76,14.26-32.35,29.82a550.23,550.23,0,0,0-67.44,81.64q-7.41,11-14.28,22.33c-4.92,8.12-11.12,15.72-16.65,23.48L1792,1169.47c-7.49,10.52-15.76,18.18-25.74,26.34-6.65,5.44-11.17,13.43-15.12,20.92-4.19,7.93-7.9,16.15-13,23.57-17.12,25-38.63,47.93-56.72,72.43-21.45,29.05-43.34,59-52.55,93.94-8.38,31.77-5.92,66.56-20.4,96.06-18.36,37.4-60.5,57.88-101.75,63.72s-83.13-.22-124.77-1.47c-71.26-2.15-140.1,13.5-207.8,35.86A1229.44,1229.44,0,0,1,1019,1641.08c-25.64,4.89-52,9-77.76,4.87S890,1628.3,877.44,1605.4c-14-25.45-9.67-56.68-15.6-85.09-4.52-21.69-15-41.61-25.36-61.2-21.54-40.74-45.77-85.58-99.38-83.9-28.5.9-53.74,17.62-77.25,33.75l-78.18,53.64c-12.55,8.61-25.26,17.36-35.07,29-15.29,18.1-22.3,41.54-30,63.93-35.26,101.88-93,195.35-170.53,270.26L218.42,1949.08c-30.45,29.42-74.08,65.93-86.31,108.17-12.52,43.24-23,85.84-14.13,131.2a205.83,205.83,0,0,0,61.7,110.83c32.55,30.15,73.65,48.57,114.79,63.84,17.84,6.63,33,16.78,50.4,23.46,23.28,8.93,47.27,16.32,70.84,24.48,15,5.2,25.71,8,32.91,22.6,9.16,18.64,8.18,37.67,6.26,57.77a921.76,921.76,0,0,0-3.29,127.11c1.46,33.95-4.34,68.83-1.67,103.14,2.6,33.5,21.39,64.39,31.91,95.85,10.44,31.22,19.58,62.84,29.36,94.27,10.3,33.15,21,67.12,42.5,94.4s56.38,46.81,90.45,40.17c28.16-5.48,52.56-27.74,81.21-26.28,29.87,1.52,52.62,29.25,60.63,58.08,10.52,37.83,2.64,75,7.17,112.66,4.59,38.23,15.46,76.48,28.8,112.51a561.53,561.53,0,0,0,95,164.42c41.24,49.4,59.4,118.56,72.56,181.55,5,24,14.13,45.95,10,70.67-2.07,12.53-5,25.18-3.52,37.79s8.75,25.52,20.82,29.45c11.48,3.74,23.71-1.35,35.66-3.09,25.6-3.73,36.51,10.74,57.24,20,32.12,14.34,79.38,4.72,110.77-7.11,26.49-10,52.32-22.9,80.36-26.88,34.54-4.9,64.44,22.11,96.18,19,13-1.27,21.57-11.46,36.84-10.63,16.83.92,33.95,9.94,47.09,19.94,23.78,18.1,46.88,42.26,76.75,42.88,25.75.53,47.81-16.83,70.2-29.57a217.76,217.76,0,0,1,160.7-21.26c11,2.86,22.08,6,33,9.34,5.3,1.63,10.43,5.88,15,9.08q7.73,5.42,15,11.5l29.48-22.52c5.46-4.17,10.93-8.36,16.07-12.93s9.39-10,14.26-14.89c4.11-4.11,6-9.13,8.47-14.21,2.86-5.94,6.86-11.46,10-17.3a279.87,279.87,0,0,0,12.59-27,156.46,156.46,0,0,1,13.45-25.83c10.78-17,23.25-33.07,37.89-46.94,18-17,43.09-23.22,62-38.9,20.09-16.66,34-39.47,46.27-62.53s23.21-47,38.94-67.81a126.3,126.3,0,0,1,14.82-16.1c4.6-4.32,5.82-10.82,10-15.18,5.24-5.48,10.55-10.88,15.83-16.32l16.83-17.36,8.42-8.68c6.94-7.16,14.27-13,24.15-15.65,7.21-1.93,15.12-1.75,21.92,1.32a34,34,0,0,1,12.74,10.54c8.79,11.46,12.93,25.63,15.62,39.58,2.21,11.45,3.93,23.12,8.5,33.85A49.67,49.67,0,0,0,2303,3484c6.23,5.28,13.6,6.76,21.49,8.1,14.34,2.42,32.56,2.45,40.09,17.22a40.89,40.89,0,0,1,3.89,22.3,51,51,0,0,1-8.6,23.7c-4.25,6.24-6.57,11.82-9.63,18.74-6.87,15.56-11.67,31.94-11.6,49.07a113.5,113.5,0,0,0,13.26,52.5,166.57,166.57,0,0,0,17.86,27.43c6.64,8.12,14.21,16,22.89,21.85a106.75,106.75,0,0,0,20.21,10.7c5.92,2.36,11,8.66,13.69,14.33l1-1.4c-.24.48-.46,1-.64,1.44-2.27,5.77-1.19,13.5-3.33,19.81a68.42,68.42,0,0,1-5.92,12.71c-5.65,9.57-13.15,17.89-20.59,26.15-5.82,3.88-10.93,12.12-15.64,17.35l-16.29,18.07c-10,11-19.35,22.34-29.35,33.34a281.87,281.87,0,0,0-40.45,57.58c-8.52,16.09-16.84,32.28-25.46,48.33a4.66,4.66,0,0,0-.81,3.3c.36,1.33,1.78,2,3.05,2.58,4.66,2,11.25,3.5,14.88,7.14,3.15,3.17,5.19,7,8.82,10,10.39,8.51,23,13.86,33.87,21.76a37.61,37.61,0,0,1,9.58,9.35c3.16,4.78,4.49,10.52,5.31,16.19a108.94,108.94,0,0,1-24.29,84.76c-6.42,7.59-13.79,14.55-18.9,23.15a34,34,0,0,0-4.83,13.29c-.63,5.29,1.19,10.56,2.82,15.54a99.24,99.24,0,0,0,11.55,23.87c-.9-1.35,6.19-4.88,7.05-5.13a65.62,65.62,0,0,1,9.12-2.11c9.38-1.23,19.45.85,28.09,4.42a238.58,238.58,0,0,1,21.68,10.29c3.42,1.84,6.72,4.23,10.24,5.83,3,1.35,6,2.21,9,3.89a165.23,165.23,0,0,1,14.3,9.4,260.94,260.94,0,0,1,23.16,18.9,118.61,118.61,0,0,0,9.8,8.51c3.77,2.77,6.7,7.64,9.66,11.24,6.56,8,13.16,16,18.18,25.07a48.12,48.12,0,0,1,5.92,16c.87,5.77-.41,10.3-2.17,15.67-.83,2.54.82,6.18,1.44,8.84.73,3.15,1.42,6.31,2.11,9.46l6.1,27.85,8.35,38.15,4.18,19.08c.81,3.7,2.24,7.43,2.68,11.19.37,3.17.43,5.68,2.59,8.36a48.22,48.22,0,0,0,2.7,9.73c5.88,16,14.43,28.38,22.07,42.09,8.24,14.77,11.71,27.58,25.07,39.61,21.81,19.65,48.29,27.89,74.19,40.46,4.29,2.08,8.63,4.2,12.21,7.34,6,5.3,9.34,13,12.46,20.37,5.23,12.42,10.48,24.93,13.33,38.11,4.77,22.11,6.92,35.22,29.6,39.74,24.83,5,49.29,13.17,74.31,18.45l81.34,17.16c7.43,1.57,12.35,1.73,15.6.7,6,2.62,11.87,4.62,17.13,8.48,12.31,9,24.6,18.1,37.46,26.35,15.35,9.84,31.22,19.74,41.93,34.9,14.68,20.77,20.67,46,30.94,68.9,5.18,11.57,12.46,20.88,19.07,31.42l3.39,5.4,21.12,33.65m-598.78-1206.8,1.79-2.42,1.3-1.48C2439.67,3732.56,2438.61,3733.87,2437.49,3735.21Zm283.13-394.88a64.29,64.29,0,0,0-5.35,7.78,26,26,0,0,1,1.05-2.42,24.71,24.71,0,0,1,4.71-5.86Zm484.16,1437.8a52.46,52.46,0,0,0,7.16-9C3211.17,4771.93,3208,4775.29,3204.78,4778.13Zm311-1935c-5.11,7.57-9.75,15.44-15,22.94-7.36,10.58-14.87,21.47-18,34-2.65,10.64-2,21.87-4.31,32.59-4.51,20.59-19.56,37.08-28.37,56.24-3.13,6.8-4,14.92-10.25,20-3.64,3-9.07,5.58-13.19,8-14.25,8.31-32.73,7.43-46.71-1-9.36-5.63-14-15.25-24.2-19.33-12.32-4.92-24.69-7.11-37.81-3.75-11.21,2.87-22.46,8.17-33.42,12.09-5.46,2-10.89,4.06-16.4,5.87-3.87,1.27-8.4.95-12.49,1.2a92.74,92.74,0,0,1-46.66-9.62c-4.74-2.38-9.59-4.11-14.19-6.81a225.43,225.43,0,0,0-37.54-17.7c-24.83-9-54-14.49-79.41-4.41a181.63,181.63,0,0,0-62.45,41.64c-8.48,8.66-16.74,16.64-25.44,25q-7.58,7.31-14.63,15.14c-4.09,4.55-9.06,7.76-13.42,11.91l0,0c-5.34,5.09-10.55,10.32-15.79,15.51-10.49,10.39-20.88,20.89-31,31.67-20.09,21.44-39.1,44-55.19,68.66-18.57,28.43-40.32,55.51-65.64,78.32a618.32,618.32,0,0,0-48.77,49.14c-6.81,7.68-13.35,15.57-19.84,23.52a6.22,6.22,0,0,0,.55-2.07c.07-.89-.3-1.72-.16-2.55.34-2,1.53-4.09,2-6.11,1.07-4.29.65-8.46,1.25-12.73,1.12-8,3.95-16.17,5.3-24.29,2.88-17.42,4.33-35,5.76-52.62,2.69-33.29,5.27-67.22,17.31-98.69,19.34-50.55,61-89.27,105.24-120.44s92.48-56.83,133.8-91.78c50.32-42.55,108.88-118.84,71.95-186.19-10.43-19-24.28-36.33-32-56.62-35.3-92.57,64.11-70.64,115.38-77.08,34.24-4.31,68.52-17.53,91.82-43,14.84-16.21,24.47-36.41,37-54.48,9.32-13.45,24.74-32.79,41.93-36.25,15.75-3.17,29.46,11.61,44.49,0,6.3-4.87,10.76-12.85,15.56-19.12-.3.39.71,5.08.64,6-.25,3-1.88,5-2.6,7.76-1.16,4.41-1.6,9.31-2.34,13.84-1.79,10.93-2.2,21.61.69,32.41q7.24,27.15,14.89,54.19c6.34,22.43,12.92,44.91,22.77,66,14.55,31.22,35.84,58.74,57,85.91,16.26,20.87,33.76,42.63,58.42,52.24l-9-3.63c-2.71-1.07-8.38-2.94-9.52-6a159.93,159.93,0,0,1,9.26,39.21c.4,3.79.7,7.72,2.48,11.09,2.75,5.23,8.32,7.95,14.08,9.86a6.68,6.68,0,0,0-3.27-.4c-1.57.32-2.72,1.63-3.75,2.86A269.83,269.83,0,0,0,3515.83,2843.16ZM3740.19,3088c-2.12,5.35-2.63,11.5-4.89,16.65-3.91,8.91-13.06,17.49-22,21-15.86,6.29-33.67,5.55-50.43,2.41a218.1,218.1,0,0,1-49.34-15.89c-9.19-4.16-18-9-27.1-13.41-4.61-2.23-9.29-4.35-14.08-6.18-2-.75-4-1.14-5.81-2-2.06-1-3.76-2.5-6-3.23-2.8-.93-5.86-.75-8.72-1.43-13.78-3.29-16.47-21.57-25.6-32.41-.24-.28-.49-.54-.74-.81,1.17.91,2.31,1.84,3.39,2.83-4.49-15,3.68-30.8,8.94-44.62,1-2.63,1.93-5.33,3-7.92,1-2.35,2.94-4.44,4.4-6.54,3.38-4.85,6.55-9.83,9.64-14.86,2-3.22,3.93-6.46,5.87-9.71l11.85-19.74,5.92-9.87c1.67-2.78,2.68-5.7,4.4-8.49,12.5-20.28,25.74-40.32,37.25-61.13l8.19-14.81c-.71-.37-1.4-.76-2.1-1.13.84.3,1.7.57,2.57.8l11.7-16.73c1.73-2.47,3.35-5.76,5.65-7.73,1.81-1.56,3.57-2.91,5.32-4.63,6.85-6.73,16.56-11,26.27-10.08,6.26.61,12.05,3.88,16.59,8.24,9.35,9,13.61,22.33,13.83,35.29.3,17-5.22,34.05-11.09,49.65a182.77,182.77,0,0,0-6.39,20.6c-1.24,5-1.92,10.12-2.88,15.14-1.06,5.56-2.47,10.74-2.59,16.47a72.2,72.2,0,0,0,11.9,40.38c5.44,8.4,12.39,15.69,19.75,22.42,3.69,3.37,7.82,6.38,11.36,9.88,3,2.94,5.52,7.28,7.69,10.89,2.55,4.24,4,9.36,6.93,13.26l.59.78c2.33,3,4.78,6,7.32,8.87A64.47,64.47,0,0,0,3740.19,3088Zm193.67-1970.2q-.17-3.27-.45-6.52A24.43,24.43,0,0,1,3933.87,1117.8Z"/><path class="cls-14" d="M5366.08,4256.21c-6.79-19.66-23-36.59-23-57.39,0-13.35,6.93-26.33,5-39.55-3-21.11-26.7-32.69-47.9-35-50.35-5.52-98.16,19.74-146.27,35.59a405.54,405.54,0,0,1-113.28,20.1c-18.41.61-37.94-.36-53.36-10.44-3.51-2.29-6.83-5.07-10.84-6.28-12.6-3.8-24,9.15-28.6,21.48-8.75,23.35-7.41,49.06-7.28,74a700.22,700.22,0,0,1-17.43,158.93c-6.79,29.81,7.1,28.2,28.81,25.94,22.09-2.3,47.43,5.67,66.54,16.17,7.67,4.22,16.16,9.39,24.57,7,4.54-1.31,8.14-4.66,11.68-7.79,39.16-34.68,89.9-53.75,141-64.75,27.22-5.86,54.94-9.66,81.55-17.84s52.55-21.25,70.66-42.39S5375.17,4282.52,5366.08,4256.21Z"/></g><path class="cls-14" d="M2938.73,16a1.91,1.91,0,0,0,.5-1.06Z"/><g id="Shahpura"><text class="cls-15" transform="translate(3480.43 3283.91) rotate(-59.39)">S</text><text class="cls-15" transform="translate(3498.42 3252.41) rotate(-69.4)">h</text><text class="cls-15" transform="translate(3509.13 3223.05) rotate(-78.37)">a</text><text class="cls-15" transform="translate(3515.02 3193.22) rotate(-87.53)">h</text><text class="cls-15" transform="translate(3516.14 3161.56) rotate(-97.52)">p</text><text class="cls-15" transform="translate(3511.35 3128.47) rotate(-107.24)">u</text><text class="cls-15" transform="matrix(-0.42, -0.91, 0.91, -0.42, 3501.76, 3099.41)">r</text><text class="cls-15" transform="matrix(-0.53, -0.85, 0.85, -0.53, 3493.82, 3081.67)">a</text></g><g id="Kotah"><text class="cls-4" transform="translate(4196.01 3771.58) rotate(-33.54)">K</text><text class="cls-4" transform="matrix(0.87, -0.49, 0.49, 0.87, 4279.7, 3716.34)">o</text><text class="cls-4" transform="translate(4355.71 3673.93) rotate(-26.52)">t</text><text class="cls-4" transform="translate(4398.8 3651.94) rotate(-23.69)">a</text><text class="cls-4" transform="translate(4473.17 3619.2) rotate(-20.08)">h</text></g><g id="Dungarpur"><text class="cls-7" transform="translate(2593.9 4524.76) rotate(19.42)">D</text><text class="cls-7" transform="matrix(1, 0.05, -0.05, 1, 2657.63, 4544.28)">u</text><text class="cls-7" transform="translate(2708.98 4545.98) rotate(-8.2)">n</text><text class="cls-7" transform="translate(2758.09 4538.3) rotate(-16.61)">g</text><text class="cls-7" transform="matrix(0.93, -0.37, 0.37, 0.93, 2805.08, 4523.86)">a</text><text class="cls-7" transform="translate(2846.15 4507.04) rotate(-24.27)">r</text><text class="cls-7" transform="matrix(0.9, -0.43, 0.43, 0.9, 2870.41, 4496.1)">p</text><text class="cls-7" transform="translate(2913.3 4475.82) rotate(-25.34)">u<tspan x="44.46" y="0">r</tspan></text></g><g id="Partabhgarh"><text class="cls-16" transform="translate(3396.67 4491.64) rotate(-90.52)">P</text><text class="cls-16" transform="translate(3396.59 4453.83) rotate(-84.45)">a</text><text class="cls-16" transform="translate(3399.86 4422.29) rotate(-81.51)">r</text><text class="cls-16" transform="translate(3402.8 4402.79) rotate(-80.12)">t</text><text class="cls-16" transform="translate(3406.05 4384.27) rotate(-79.6)">a</text><text class="cls-16" transform="translate(3412.03 4352.53) rotate(-80.96)">b</text><text class="cls-16" transform="matrix(0.08, -1, 1, 0.08, 3418, 4315.48)">g</text><text class="cls-16" transform="translate(3421.08 4277.88) rotate(-92.4)">a</text><text class="cls-16" transform="translate(3419.01 4242.22) rotate(-100.05)">r</text><text class="cls-16" transform="translate(3415.01 4217.97) rotate(-109.91)">h</text></g><g id="Jhalawar"><text class="cls-17" transform="matrix(0.29, -0.96, 0.96, 0.29, 4062.64, 4313.24)">J</text><text class="cls-17" transform="matrix(0.32, -0.95, 0.95, 0.32, 4073.09, 4278.8)">h</text><text class="cls-17" transform="matrix(0.34, -0.94, 0.94, 0.34, 4085.32, 4242.19)">a</text><text class="cls-17" transform="translate(4098.21 4207.11) rotate(-68.9)">l</text><text class="cls-17" transform="translate(4103.62 4192.79) rotate(-67.82)">a</text><text class="cls-17" transform="translate(4117.55 4158.27) rotate(-65.97)">w</text><text class="cls-17" transform="matrix(0.44, -0.9, 0.9, 0.44, 4139.11, 4110.21)">a</text><text class="cls-17" transform="matrix(0.46, -0.89, 0.89, 0.46, 4155.46, 4076.64)">r</text></g><g id="Banswara"><text class="cls-7" transform="translate(3067.72 4790.26) rotate(-72.25)">B</text><text class="cls-7" transform="matrix(0.61, -0.79, 0.79, 0.61, 3083.94, 4742.64)">a</text><text class="cls-7" transform="translate(3108.54 4710.75) rotate(-40.85)">n</text><text class="cls-7" transform="matrix(0.81, -0.59, 0.59, 0.81, 3141.74, 4682.91)">s</text><text class="cls-7" transform="matrix(0.77, -0.64, 0.64, 0.77, 3176.73, 4659.07)">w</text><text class="cls-7" transform="translate(3228.86 4612.71) rotate(-54.57)">a</text><text class="cls-7" transform="translate(3256.23 4572.15) rotate(-64.23)">r</text><text class="cls-7" transform="matrix(0.28, -0.96, 0.96, 0.28, 3270.54, 4542.93)">a</text></g><g id="Bundi"><text class="cls-6" transform="matrix(0.54, -0.84, 0.84, 0.54, 3971.13, 3433.07)">B</text><text class="cls-6" transform="matrix(0.62, -0.78, 0.78, 0.62, 4007.17, 3376.93)">u</text><text class="cls-6" transform="translate(4040.83 3334.72) rotate(-45.94)">n</text><text class="cls-6" transform="matrix(0.76, -0.65, 0.65, 0.76, 4078.27, 3295.8)">d</text><text class="cls-6" transform="matrix(0.8, -0.59, 0.59, 0.8, 4122.91, 3258.58)">i</text></g><g id="Tonk"><text class="cls-5" transform="translate(3945.76 2889.22)"><tspan class="cls-18">T</tspan><tspan x="41.67" y="0">onk</tspan></text><text class="cls-19" transform="matrix(-0.47, -0.88, 0.88, -0.47, 4712.41, 3967.62)">T</text><text class="cls-19" transform="translate(4695.57 3936.04) rotate(-121.18)">o</text><text class="cls-19" transform="matrix(-0.57, -0.82, 0.82, -0.57, 4671.72, 3896.73)">n</text><text class="cls-19" transform="translate(4645.24 3858.71) rotate(-127.91)">k</text><text class="cls-20" transform="matrix(1, -0.01, 0.01, 1, 3218.61, 3940.19)">T</text><text class="cls-20" transform="translate(3250.67 3940.17) rotate(-4.58)">o</text><text class="cls-20" transform="matrix(0.99, -0.17, 0.17, 0.99, 3291.67, 3936.77)">n</text><text class="cls-20" transform="matrix(0.97, -0.25, 0.25, 0.97, 3332.38, 3929.57)">k</text></g><text class="cls-6" transform="translate(5026.65 4304.49)"><tspan class="cls-21">T</tspan><tspan x="46.3" y="0">onk</tspan></text><text class="cls-20" transform="translate(4153.87 4337.83) rotate(-54.31)">T</text><text class="cls-20" transform="translate(4172.46 4312.21) rotate(-57.75)">o</text><text class="cls-20" transform="matrix(0.47, -0.88, 0.88, 0.47, 4194.07, 4277.82)">n</text><text class="cls-20" transform="translate(4213.15 4241.67) rotate(-65.81)">k</text><text class="cls-8" transform="translate(5214.66 3131.45)">G<tspan class="cls-22" x="129.2" y="0">r</tspan><tspan x="192.6" y="0">e</tspan><tspan class="cls-11" x="292.8" y="0">a</tspan><tspan class="cls-23" x="388.4" y="0">t</tspan><tspan x="453.4" y="0">er</tspan><tspan class="cls-24"><tspan x="-98.1" y="240">R</tspan><tspan class="cls-25" x="11.9" y="240">ajasthan</tspan></tspan></text><path class="cls-26" d="M5172.72,4153c-75.78-272.53,82.3-542.76,299.41-710.13"/><path class="cls-13" d="M5185.62,4193.22c1-21.18,5.61-48.49,13.71-67.08l-28.11,21.51-35.37-1.45C5153.17,4156.76,5172.61,4176.48,5185.62,4193.22Z"/><g id="Udaipur"><text class="cls-27" transform="matrix(0.7, -0.72, 0.72, 0.7, 2767.32, 4050.71)">U</text><text class="cls-27" transform="matrix(0.7, -0.72, 0.72, 0.7, 2867.91, 3947.11)">d</text><text class="cls-27" transform="translate(2953.04 3859.45) rotate(-45.84)">a<tspan x="111.21" y="0">i</tspan><tspan x="159.4" y="0">p</tspan></text><text class="cls-27" transform="matrix(0.7, -0.72, 0.72, 0.7, 3149.23, 3657.41)">u</text><text class="cls-27" transform="translate(3229.19 3575.07) rotate(-45.84)">r</text></g><text class="cls-20" transform="translate(3570.1 2704.44) rotate(-129.41)">K</text><text class="cls-20" transform="translate(3546.42 2675) rotate(-125.24)">i</text><text class="cls-20" transform="translate(3537.2 2662.25) rotate(-121.99)">s</text><text class="cls-20" transform="matrix(-0.46, -0.89, 0.89, -0.46, 3522.86, 2639.63)">e</text><text class="cls-20" transform="matrix(-0.38, -0.93, 0.93, -0.38, 3507.07, 2609.5)">n</text><text class="cls-20" transform="translate(3492.82 2574.56) rotate(-106.48)">g</text><text class="cls-20" transform="translate(3482.09 2538.06) rotate(-101.2)">a</text><text class="cls-20" transform="translate(3475.86 2505.75) rotate(-97.03)">r</text><text class="cls-20" transform="translate(3472.79 2483.72) rotate(-92.37)">h</text><g id="Bikaner"><text class="cls-27" transform="translate(2487.26 1183.19) rotate(9.48)">B</text><text class="cls-27" transform="matrix(1, 0.08, -0.08, 1, 2657.01, 1208.25)">i</text><text class="cls-27" transform="translate(2734.7 1214.62) rotate(0.65)">k</text><text class="cls-27" transform="matrix(1, -0.08, 0.08, 1, 2873.66, 1214.84)">a</text><text class="cls-27" transform="matrix(0.98, -0.17, 0.17, 0.98, 3016.08, 1201.95)">n</text><text class="cls-27" transform="translate(3160.26 1174.87) rotate(-15.49)">e</text><text class="cls-27" transform="translate(3296.4 1134.99) rotate(-20.17)">r</text></g><g id="Jodhpur"><text class="cls-27" transform="matrix(1, -0.03, 0.03, 1, 1445.88, 3045.02)">J</text><text class="cls-27" transform="translate(1600.21 3038.61) rotate(-5.63)">o</text><text class="cls-27" transform="translate(1765.14 3020.78) rotate(-9.54)">d</text><text class="cls-27" transform="translate(1931.9 2991.03) rotate(-13.38)">h</text><text class="cls-27" transform="translate(2089.17 2952.11) rotate(-17.23)">p</text><text class="cls-27" transform="translate(2250.47 2900.29) rotate(-21.1)">u</text><text class="cls-27" transform="translate(2400.07 2840.47) rotate(-24.38)">r</text></g><g id="Jaipur"><text class="cls-27" transform="translate(3920.57 1572.29) rotate(95.24)">J</text><text class="cls-27" transform="matrix(-0.05, 1, -1, -0.05, 3910.46, 1683.14)">a</text><text class="cls-27" transform="translate(3905.77 1797.07) rotate(90.75)">i</text><text class="cls-27" transform="translate(3904.49 1848.31) rotate(88.74)">p</text><text class="cls-27" transform="translate(3907.47 1974.73) rotate(85.93)">u</text><text class="cls-27" transform="matrix(0.11, 0.99, -0.99, 0.11, 3916.35, 2092.5)">r</text></g><g id="Jaisalmer"><text class="cls-27" transform="translate(542.69 2289.78) rotate(-16.9)">J</text><text class="cls-27" transform="matrix(0.93, -0.37, 0.37, 0.93, 675.29, 2247.55)">a</text><text class="cls-27" transform="translate(802.17 2196.07) rotate(-23.31)">i</text><text class="cls-27" transform="translate(868.74 2167.17) rotate(-23.51)">s</text><text class="cls-27" transform="translate(986.48 2116.16) rotate(-23.33)">a<tspan x="135.78" y="0">l</tspan></text><text class="cls-27" transform="translate(1178 2033.55) rotate(-23.33)">m<tspan x="198.6" y="0">e</tspan></text><text class="cls-27" transform="translate(1493.14 1897.07) rotate(-29.24)">r</text></g><path class="cls-12" d="M5050.76,3129.73l-805.95-32.65"/><path class="cls-13" d="M4184.51,3094.63c28.8-9.38,64.73-25.92,87.33-44.06l-19.11,46.82L4268,3145.6C4246.94,3125.69,4212.46,3106.3,4184.51,3094.63Z"/><g id="Kushalgarh"><text class="cls-28" transform="translate(3932.28 2748.6) rotate(15.48)">L</text><text class="cls-28" transform="translate(3958.05 2755.64) rotate(10.58)">a</text><text class="cls-28" transform="translate(3983.77 2760.6) rotate(4.81)">w</text><text class="cls-28" transform="translate(4019.8 2763.27) rotate(-1)">a</text><text class="cls-29" transform="translate(3062.79 4924.37) rotate(-13.37)">K</text><text class="cls-29" transform="matrix(1, -0.01, 0.01, 1, 3084.92, 4919.35)">u</text><text class="cls-29" transform="matrix(0.99, 0.1, -0.1, 0.99, 3104.24, 4919.22)">s</text><text class="cls-29" transform="translate(3121.83 4921.1) rotate(8.68)">h</text><text class="cls-29" transform="translate(3141.72 4924.24) rotate(7.85)">a</text><text class="cls-29" transform="translate(3161.73 4926.87) rotate(4.77)">l</text><text class="cls-29" transform="translate(3171.35 4927.98) rotate(-1.25)">g</text><text class="cls-29" transform="translate(3195.49 4927.03) rotate(-13.69)">a</text><text class="cls-29" transform="translate(3216.73 4921.31) rotate(-23.33)">r</text><text class="cls-29" transform="translate(3230.35 4915.55) rotate(-33.18)">h</text></g></g><g id="Ajmer-Merwara"><path class="cls-30" d="M2739.34,3253.4q.66-5.6,1.2-11.21c1.64-16.89.52-34.3,4.12-50.86,1.92-8.84,1.81-17.52,3.55-26.45a155.71,155.71,0,0,1,7.93-27.2c2.75-7,6.51-13.35,9.65-20.13,2.8-6,5.09-12.14,8.7-17.83,11.81-18.62,30.74-35.39,46.39-50.77,18.37-18.06,40.94-31,61.9-46.21,3.64-2.64,6.14-6.74,9.58-9.52,4.27-3.46,10.19-5.76,14.95-8.53q15.16-8.83,29.84-18.45,23.12-15.15,44.93-32.17c13.91-10.86,29.06-20.85,41.12-33.84s23.74-26.69,33.26-41.78a162.61,162.61,0,0,0,23.4-65.13c3.27-25.15-5.76-50-18.9-71.07-6.2-10-13.52-18.75-18.83-29.36a141.7,141.7,0,0,1-11.78-32.65c-4-17.84,1.44-38,18.67-46.75,10.62-5.37,22.95-4.67,34.45-6.45a332.88,332.88,0,0,1,40.87-3.78c9.42-.29,18.89.65,28.28.35,8-.26,16.38-2.75,24-5.12,26.18-8.2,59.73-25,75.49-48.64a133.7,133.7,0,0,0,16.32-23c12.59-22.77,26.42-55.44,57.55-57.42,5.5-.35,12.4.12,17.57,2,5.41,1.93,9.16,3.91,15.18,2.11,5.39-1.61,10-5.31,13.53-9.65,3.4-4.13,5.44-10.91,9.38-14.23-.11,7.57-1.51,15.35-2.29,22.9a148.21,148.21,0,0,0-.58,15.09c0,6-2.45,11.2-.94,17.07,1.77,6.88,3.84,13.69,5.76,20.53,2.54,5.09,3.37,12,4.91,17.51,1.81,6.44,3.86,12.86,5.43,19.35,2.95,12.16,7.22,23.85,11.67,35.65q6.3,16.71,13.11,33.22c4.13,10,7.24,20.61,12.71,30a168.09,168.09,0,0,0,11.25,16.24c6.69,8.89,13.38,17.77,20.3,26.47q17.75,22.29,37.52,42.87c6,6.25,13.67,11.67,16.49,20a103.59,103.59,0,0,1,5.23,26.77c.34,5.32.73,10.2,3.34,15s7,7.06,11.51,9.86c-9.46,8.55-16.89,19.22-24.48,29.42s-15.36,20.89-20.65,32.72a181.87,181.87,0,0,0-11.92,36.6c-1.21,5.71-1.45,11.07-1.88,16.78-.44,5.87-4.66,10.8-7.31,15.93-5.11,9.9-10.14,19.84-15.16,29.78-2.42,4.79-5.22,9.53-7.31,14.46-1.9,4.46.26,10.61-3.68,14-3,2.63-6.83,1.51-10.15,4-3.06,2.29-5.85,4.86-9.41,6.4a50.3,50.3,0,0,1-50.18-6.62c-4.88-3.88-9-8.66-14.08-12.3-14.61-10.48-34.83-9.33-51.13-4.1-16.84,5.4-32.69,14.43-50.45,16.65-23.28,2.91-46.21-6.8-66.86-18-89.73-48.49-131.68-25.08-197.89,41.93-46.63,47.19-102.56,95.93-137.76,151.68q-1.87,3-3.82,5.89a393.22,393.22,0,0,1-28.28,37.18c-4.86,5.71-9.58,11.57-15.19,16.51q-9.16,8.07-18,16.44-17.15,16.14-33.25,33.35-8,8.6-15.82,17.45c-4.77,5.44-10.48,10.89-14.29,17-1.93,3.12-2.88,5.91-6.38,7.78,5.48-4.77,5.65-14.6,6.71-21.25,1.37-8.55,2.54-17.13,4.45-25.58A380.86,380.86,0,0,0,2739.34,3253.4Z"/><path class="cls-30" d="M3534.32,3064.73a49.29,49.29,0,0,1,2.86,5.93c2.18,5.56,5.1,11.53,10.63,13.81,3.17,1.3,6.71,1.17,10.11,1.62a14.87,14.87,0,0,1,7.7,3.48,30,30,0,0,0,8.55,4.68c7.92,3,15.49,5.65,22.82,9.81a196.89,196.89,0,0,0,55.9,21.27c11.16,2.39,22.65,5.46,34.07,6,14.56.73,29.45-2.74,39.77-13.61a52.63,52.63,0,0,0,10.88-18.18c1.41-3.82,2-7.68,3-11.55,1.25-4.93,4.29-9.58,6.64-14.14a16,16,0,0,0,1.26-2.93,8.11,8.11,0,0,0-1.18-6.79c-1.44-2-4.19-2-5.51-3.52-1.1-1.29-1.32-4.39-1.95-6a49.17,49.17,0,0,0-7-12c-6.84-8.92-15.52-16.37-23.45-24.28-47.2-47-9.53-93.6-1.71-145.6,3.45-23-7.41-52.14-30.58-54-20.34-1.64-35.14,18.18-45.66,35.66L3560,2973.27c-4.39,7.3-9.23,14.31-13.84,21.46-2,3.08-4.68,6.39-5.9,9.85-1.09,3.11-1.45,6.78-2.45,10-2.19,7.08-7,13-8.78,20-1.4,5.35-.89,11.56-.27,17C3529.29,3056.59,3531.85,3060.29,3534.32,3064.73Z"/><path class="cls-26" d="M3570.91,2993.31q-2.15-2.09-4.33-4.15"/><path class="cls-31" d="M3557.27,2980.59a476.58,476.58,0,0,0-144.8-89"/><path class="cls-26" d="M3406.56,2889.34q-2.81-1-5.63-2.06"/><path class="cls-13" d="M3592.62,3015.81c-6.35-14.35-12.41-33.92-13.23-48.91L3568,2990.47l-23.86,10.8C3559,3002.49,3578.45,3009.07,3592.62,3015.81Z"/><text class="cls-7" transform="translate(3170.61 2758.56)">Ajmer<tspan x="-68.08" y="96">-Merwara</tspan></text></g></svg>