<svg xmlns="http://www.w3.org/2000/svg" viewBox="0 0 6128.57 5115.95"><defs><style>.cls-1{fill:#6b3f98;}.cls-1,.cls-11,.cls-13,.cls-14,.cls-15,.cls-19,.cls-20,.cls-21,.cls-23,.cls-24,.cls-26,.cls-3,.cls-33,.cls-34,.cls-35,.cls-4,.cls-8,.cls-9{opacity:0.75;}.cls-2,.cls-28{font-size:200px;}.cls-10,.cls-12,.cls-16,.cls-2,.cls-22,.cls-25,.cls-27,.cls-28,.cls-6,.cls-7{fill:#231f20;}.cls-2,.cls-25{font-family:HelveticaNeue-Medium, Helvetica Neue;}.cls-3{fill:#e42029;}.cls-4{fill:#80b1d5;}.cls-18,.cls-32,.cls-36,.cls-5{fill:none;}.cls-18,.cls-26,.cls-32,.cls-36,.cls-5{stroke:#231f20;}.cls-11,.cls-18,.cls-26,.cls-32,.cls-36,.cls-5{stroke-miterlimit:10;}.cls-36,.cls-5{stroke-width:7px;}.cls-7{font-size:80px;}.cls-10,.cls-12,.cls-16,.cls-22,.cls-27,.cls-7{font-family:HelveticaNeue, Helvetica Neue;}.cls-26,.cls-8{fill:#d9e8f1;}.cls-9{fill:#443b6a;}.cls-10{font-size:60px;}.cls-11{fill:#94acba;stroke:#2e3192;}.cls-12{font-size:70px;}.cls-13{fill:#caa87a;}.cls-14{fill:#f8f39e;}.cls-15{fill:#b3d56a;}.cls-16{font-size:130px;}.cls-17{letter-spacing:-0.11em;}.cls-18{stroke-width:9px;}.cls-19{fill:#1679b5;}.cls-20{fill:#fbb463;}.cls-21{fill:#f47e20;}.cls-22{font-size:100px;}.cls-23{fill:#b35b28;}.cls-24{fill:#c9b2d6;}.cls-25{font-size:149px;}.cls-26,.cls-32{stroke-width:10px;}.cls-26{stroke-dasharray:12;}.cls-27{font-size:90px;}.cls-28{font-family:MyriadPro-Regular, Myriad Pro;}.cls-29{letter-spacing:0.01em;}.cls-30{letter-spacing:0em;}.cls-31{letter-spacing:0em;}.cls-33{fill:#bb80b8;}.cls-34{fill:#f47f71;}.cls-35{fill:#2ca149;}.cls-36{stroke-dasharray:12.66 12.66;}</style></defs><title>MatsyaUnion</title><g id="Bikaner"><path class="cls-1" d="M1803.09,1185.57l-20.86-2.33,35.25-49.48c5.52-7.76,11.73-15.36,16.65-23.48q6.87-11.34,14.28-22.33a550.24,550.24,0,0,1,67.44-81.64q15.58-15.54,32.35-29.82c49.55-42.18,106.59-75.67,167.92-97.53,42.76-15.24,88.07-25.38,126.37-49.74,46.66-29.68,88.51-81.64,114.17-129.84,31-58.16,66.38-113.79,101.74-169.34,23.93-37.6,56.93-76.74,74.41-117.68,16.63-39,29.83-80.16,46.64-119.37,12.82-31.68,25.94-63.88,47.42-90.47,33.29-41.22,83.19-64.91,132-85.55,32.19-13.62,64.89-26.62,95-44.63,15.31-9.17,28-20.59,42.19-31.19,5.08-3.81,43.22-21.8,43.22-26.2-15.88,33.41-31.79,73-14.73,105.8,13.34,25.66,43.06,38.28,71.45,43.8,75.46,14.68,155.07-6.62,229.63,12.11A221.7,221.7,0,0,1,3358,272.91c39.78,63.53,15,150.21-17.26,217.85-8.3,17.38-18.48,36.7-12,54.84,5.82,16.37,23.93,25.61,41.25,26.85s34.39-3.82,51.31-7.73c38.84-9,77.38-10.47,117-9.12,35.74,1.22,52.23,34.74,70.06,62.41,27,41.91,60.61,60.28,110.5,63.31,22.95,1.4,47.16-1.47,67.91,8.43,23.85,11.37,37.21,36.69,49,60.36,15.48,31.21,31.18,63.11,36,97.61,4,28.65.4,57.77.94,86.7a301.91,301.91,0,0,0,60.6,175.08c7.48,76.69-34.3,159.63-106.16,187.43-14.44,5.59-34.64,7.27-41.77-6.48-3.91-7.53-1.9-16.6-2.41-25.07-1.38-22.92-23-41.21-45.77-43.91s-45.57,7.53-63.11,22.34-30.77,34-44.17,52.6-27.51,37.31-46.2,50.64c-37,26.39-89.63,30.28-117.95,65.83-14.25,17.9-25,44.59-23.66,67.36a196.5,196.5,0,0,1-11.74,78.78,194.21,194.21,0,0,1-21.29,41.71c-5.08,7.52-11.68,12.18-9.53,21.22,2,8.55,7.48,13,6.35,23.22s-5.29,19.77-9.41,29.16c-4.77,10.89-7.91,22.42-12.41,33.42a92.12,92.12,0,0,1-8,15.83c-1.69,2.56-3.27,4.26-4,7.27-.81,3.38-1.58,6.76-2.38,10.15q-4.17,1.37-8.4,2.52a179.56,179.56,0,0,1-57.88,6c-9.5-.56-18.83-2.09-28.29-2.66-10.05-.61-20.12-1.29-30.07-2.9-10.11-1.63-20.15-3.68-30.15-5.9-5-1.11-10-2.26-15-3.42-4.06-.95-7.75-.59-11.91-.75-18.5-.74-37.18.5-54.07,8.76a93.37,93.37,0,0,0-25,17.93c-7.2,7.21-12,15.8-18,23.79-7.75,10.2-12.1,22.53-15.08,34.87-2.93,12.12-4.66,24.49-7.67,36.59-2.6,10.47-8.58,18.79-17.25,25.34-7,5.29-16.12,8.25-24.67,6.32-14.35-3.23-18.34-16.56-20.4-29.22-1.38-8.5-5.32-16.77-8.3-24.81a22.64,22.64,0,0,0-1.63-3.71c-5.12-8.66-15.11-10.38-24.27-9.62a56.8,56.8,0,0,0-17.83,4.75c-11.24,4.89-21.31,12.17-32.57,17a81.22,81.22,0,0,1-14.4,4.66c-18.32,4.11-35.69,1.34-53-5.18-3.38-1.27-7-1.22-10.44-2.36-4.67-1.55-9.25-3.38-13.78-5.31-9.11-3.91-18-8.33-27.08-12.31a149.2,149.2,0,0,0-22.08-7.86c-17.57-4.59-35.28-4-51.6,4.41-15.44,7.91-27.62,20.72-39.52,33l-1.83,1.89c-12.07,12.43-25,25-41.31,31.69-14.86,6.07-31.79,8.42-43.28,20.81a59,59,0,0,0-4.88,6c-4.69,6.62-8,14.11-11.21,21.55-1.28,1.28-2,4.61-2.74,6.3l-3.24,7.44-6.23,14.31c-7.83,18-14.86,36.06-27.63,51.3a116.16,116.16,0,0,1-37.31,29.48c-14.57,7.21-35.65,1.34-48.31-7.54-10.35-7.25-16.56-18.14-25.79-26.25-9.84-8.64-18.41-19.26-26.19-29.76a249.31,249.31,0,0,1-26.52-45,246.33,246.33,0,0,1-9.57-24.31c-1.36-4.07-2.15-8.58-3.8-12.52-1.43-3.41-2.66-7.81-4.66-11a26,26,0,0,0-6.32-6.9,26.33,26.33,0,0,0-19.45-5,24.19,24.19,0,0,0-14.88,8.1c-4.41,5.22-4.24,10-4.69,16.3-.42,5.8-3.83,13.25-6.48,18.39-3.68,7.13-10.34,13.55-18.36,13.71s-14.6-5.66-20.37-11.12l-10.73-10.15c-3.18-3-7.22-6-9.58-9.59-4.93-7.56-8.83-15.27-15-22.06-5.39-6-11.94-9.76-17.87-14.93-4.08-3.56-3.58-12.15-3.54-17.11.1-15.16,4.15-30,3.91-45.2-.17-11.14-2-24.16-11.77-29.59a18.08,18.08,0,0,0-12.33-1.76,29.3,29.3,0,0,0-10.84,4.78c-3.23,2.22-6.66,4.11-9.67,6.65-6.11,5.15-10.77,11.75-15.31,18.27s-8.94,12.86-14.77,18.08a43.49,43.49,0,0,1-4.59,3.6,28.26,28.26,0,0,1-3.29,2.38c-3.4,1.62-9,1-12.56.49a35.61,35.61,0,0,1-7.39-1.84c-1.64-.6-5.47-1.71-6.43-3.24-.6-.95-.38-3.38-.5-4.51q-.26-2.55-.51-5.1c-.32-3.27-.61-6.55-.86-9.83-.92-12.18-1.22-24.48.34-36.62.73-5.68,2.56-11.08,3.34-16.69l2.49-18c.31-2.26,1.25-5.11.51-7.3a29.28,29.28,0,0,0-2.87-5.51,45.58,45.58,0,0,0-8.54-9.93c-6.8-6.09-14.8-10.71-22.83-15-3-1.61-5.71-2.9-8-5.43a86.19,86.19,0,0,1-6.07-7.39,88.23,88.23,0,0,1-14.55-31.28c-1.34-5.52-1.19-10.7-1-16.37a103.66,103.66,0,0,1,2.16-17.59c10.17-49.17,43.34-89,56.29-137.46,5.63-21,8.06-43.18,5.32-64.87a149.57,149.57,0,0,0-3.18-16.61c-.95-3.89-.66-7.66-1.32-11.63a55.93,55.93,0,0,0-6.68-18.32c-17.8-31.46-58-49-65.19-86.66-2.3-12-1-24.64-5.13-36.08-5.69-15.61-20.86-26.15-36.77-30.94s-32.8-4.76-49.4-5.42a576.81,576.81,0,0,1-59.15-5.42q-14.71-2.11-29.29-5c-9.33-1.83-18.59-3-28.09-4.07Z"/><text class="cls-2" transform="translate(2487.26 1183.19) rotate(9.48)">B</text><text class="cls-2" transform="matrix(1, 0.08, -0.08, 1, 2657.01, 1208.25)">i</text><text class="cls-2" transform="translate(2734.7 1214.62) rotate(0.65)">k</text><text class="cls-2" transform="matrix(1, -0.08, 0.08, 1, 2873.66, 1214.84)">a</text><text class="cls-2" transform="matrix(0.98, -0.17, 0.17, 0.98, 3016.08, 1201.95)">n</text><text class="cls-2" transform="translate(3160.26 1174.87) rotate(-15.49)">e</text><text class="cls-2" transform="translate(3296.4 1134.99) rotate(-20.17)">r</text></g><g id="Jodhpur"><path class="cls-3" d="M3713.45,2199.73c-21.84,17.65-38.37,31.47-59.22,50.28a318.39,318.39,0,0,1-112.47,65.44c-2.74.91-6.77,1.35-9.22,2.77-2.82,1.64-4.74,5.65-6.65,8.31,1.06-1.59,1-8.17,1.13-10.36.24-3.38-.51-7.06-1.15-10.37a76.88,76.88,0,0,0-6.74-19.83,75.83,75.83,0,0,0-28.34-31.06c-22.25-13.4-51.59-14.11-74.46-1.79,20.05,36,6.5,80.59-7.41,119.35q-12,33.52-24.07,67c-3.93,10.94-8.28,22.48-17.47,29.59-15,11.63-28.74-3.15-44.49,0-17.19,3.46-32.61,22.8-41.93,36.25-12.51,18.07-22.14,38.27-37,54.48-23.3,25.46-57.58,38.68-91.82,43-51.27,6.44-150.68-15.49-115.38,77.08,7.74,20.29,21.59,37.58,32,56.62,36.93,67.35-21.63,143.64-71.95,186.19-41.32,34.95-89.56,60.61-133.8,91.78s-85.9,69.89-105.24,120.44c-12,31.47-14.62,65.4-17.31,98.69-1.43,17.59-2.88,35.2-5.76,52.62-1.35,8.12-4.18,16.25-5.3,24.29-.6,4.27-.18,8.44-1.25,12.73-.51,2-1.7,4.1-2,6.11-.14.83.23,1.66.16,2.55a6.44,6.44,0,0,1-.71,2.42,16.84,16.84,0,0,1-2.87,3.71c-2.26,2.4-4.9,4.66-6.41,7.61s-2.12,5.91-3.52,8.73c-3.71,7.53-7.87,14.85-12.24,22-18.45,30.23-41.42,57.37-64.32,84.28-10.29,12.09-20.76,24-31.15,36-9.36,10.81-17.92,22.2-28.63,31.55-20.79,18.17-36.67,41.24-50.18,65.13-5.65,10-10.94,20.2-16.15,30.44-4.91,9.66-9.75,19.36-14.76,29-4.81,9.22-12,17.74-17.94,26.32-12.49,18-25.06,36-38.15,53.63L2426.52,3750c-2.69-5.68-7.77-12-13.69-14.33a106.75,106.75,0,0,1-20.21-10.7c-8.68-5.87-16.25-13.73-22.89-21.85a166.57,166.57,0,0,1-17.86-27.43,113.5,113.5,0,0,1-13.26-52.5c-.08-17.13,4.72-33.51,11.6-49.07,3.06-6.92,5.38-12.5,9.63-18.74a51,51,0,0,0,8.6-23.7,40.89,40.89,0,0,0-3.89-22.3c-7.54-14.77-25.75-14.8-40.09-17.22-7.88-1.33-15.26-2.82-21.49-8.1a49.67,49.67,0,0,1-13.16-18.55c-4.57-10.73-6.29-22.4-8.5-33.85-2.69-13.95-6.83-28.11-15.62-39.58a34,34,0,0,0-12.74-10.54c-6.8-3.07-14.71-3.25-21.92-1.32-9.88,2.64-17.21,8.49-24.15,15.65l-8.42,8.68-16.83,17.36c-5.28,5.44-10.59,10.84-15.83,16.32-4.18,4.36-5.4,10.86-10,15.18a126.3,126.3,0,0,0-14.82,16.1c-15.73,20.83-26.71,44.76-38.94,67.81s-26.18,45.87-46.27,62.53c-18.91,15.68-44,21.9-62,38.9-14.64,13.87-27.11,29.93-37.89,46.94a156.46,156.46,0,0,0-13.45,25.83,279.87,279.87,0,0,1-12.59,27c-3.11,5.84-7.11,11.36-10,17.3-2.45,5.08-4.36,10.1-8.47,14.21-4.88,4.88-9.07,10.27-14.26,14.89s-10.61,8.76-16.07,12.93l-29.48,22.52q-7.23-6.08-15-11.5c-4.57-3.2-9.7-7.44-15-9.08-10.88-3.36-21.94-6.47-33-9.34a217.76,217.76,0,0,0-160.7,21.26c-22.39,12.74-44.45,30.1-70.2,29.57-29.87-.62-53-24.78-76.75-42.88-13.14-10-30.26-19-47.09-19.94-15.27-.83-23.85,9.36-36.84,10.63-31.74,3.12-61.64-23.89-96.18-19-28,4-53.87,16.9-80.36,26.88-31.39,11.83-78.65,21.45-110.77,7.11-20.73-9.25-31.64-23.72-57.24-20-12,1.74-24.18,6.83-35.66,3.09-12.07-3.93-19.3-16.84-20.82-29.45s1.45-25.26,3.52-37.79c4.09-24.72-5-46.65-10-70.67-13.16-63-31.32-132.15-72.56-181.55a561.53,561.53,0,0,1-95-164.42c-13.34-36-24.21-74.28-28.8-112.51-4.53-37.64,3.35-74.83-7.17-112.66-8-28.83-30.76-56.56-60.63-58.08-28.65-1.46-53,20.8-81.21,26.28-34.07,6.64-69-12.89-90.45-40.17s-32.2-61.25-42.5-94.4c-9.77-31.43-18.92-63-29.36-94.27-10.21-30.55-26.07-60.23-32.26-91.71,9.88-1,20.1,0,30-1.83,9.57-1.77,17.44-6.13,27.7-5.39,20.43,1.47,39.67,9.55,60.48,11.36,24.34,2.13,48.81,6.6,72.83,11,53.39,9.88,95.16,22.28,149.06,11.08,71.55-14.87,161.83-46.17,219.54-92.53,51.45-41.32,97.66-72.71,159.69-95.28,26.8-9.75,42.93-18.58,72.81-17.88,28.17.66,59.75,5,82.09-16.36,33.21-31.72,13.26-106.58,11.36-147.21-1.38-29.23-2.74-58.74,2.27-87.58,8.67-50,42.07-89.71,86.41-112.86,14.57-7.61,30-13.34,44.41-21.37a41.75,41.75,0,0,0,4.37-2.45,37.46,37.46,0,0,0,4.09-4.16l8.33-8.54c1.82-1.86,3.64-3.73,5.31-5.72a53.11,53.11,0,0,0,9.21-15.95c2-5.61,1.22-12.71-1.22-18.09-2-4.34-5.78-9.52-10.2-11.52-5.74-2.6-12.09-3.08-18.27-3.83-2.73-.33-5.44-1.18-8.13-1.48-3.17-.35-5.68-.28-8.48-2.16a18.35,18.35,0,0,1-6.17-7.58,25.27,25.27,0,0,1-2.12-13.65c.28-2.31,1.18-4.43,1.59-6.67s.71-4.67,1.3-7c2.46-9.58,7.22-18.43,12.46-26.75,2.33-3.71,4.79-7.34,7.27-10.95,13.82-20.07,33.11-42.65,57.15-38.73,29.55,4.82,36.56,35.86,52.94,55.8,17.15,20.88,42,38.78,69.28,41.71,45.48,4.91,113.34-6.56,147-38.83,20.58-19.74,36-44.23,55.66-64.9,19.34-20.35,45.67-35.69,71.12-47a281.72,281.72,0,0,1,87.13-23.1c6.49-.64,13.47-.28,19.77-1.72s12.9-3.47,19.13-5.5a150.3,150.3,0,0,0,36.58-17.36c7.83-5.19,16.69-11.93,21.61-20.09,3.15-5.23,4.77-12.22,5.94-18.15a79.64,79.64,0,0,0,1.28-9.48c.07-1,.92-8.81.12-9.18A47.14,47.14,0,0,0,2126,1822c3.91.54,9.06,1.1,12.93.15,3.69-.9,7.62-5,10.28-7.6a60.54,60.54,0,0,0,8.54-10.16c6-9,12.09-18.52,20.66-25.3a97.57,97.57,0,0,1,12.66-8.55c4.6-2.53,10.17-3.64,15.24-1.89,5.48,1.91,9.52,6.78,11.78,12.13a49.18,49.18,0,0,1,3.4,17.35c.2,5.69-1.21,11.2-1.05,16.85.22,7.67-1.24,15.11-2.26,22.68-1,7.14-1.36,14.77,1.1,21.67,2.59,7.29,10.74,8.47,15.94,13.76,6.56,6.68,11.63,14.66,16.56,22.57,5.26,8.42,14,14.75,21.27,21.47,3.87,3.58,7.79,7.19,12.38,9.8,5.34,3,11.74,5.08,17.07,1.48a36.53,36.53,0,0,0,12.67-13.77c7.41-14.59-.22-35.87,19.25-39.55,35.34-8.83,36.37,30.59,44.55,50,7,16.7,16.91,32,27.32,46.77,4.94,7,9.44,14.06,15.1,20.46l19.41,21.93c4.32,4.87,8.45,10,12.92,14.74,3.77,4,9.34,6.95,14.21,9.45,50.36,25.92,87.11-32,104.07-71.44,9.78-22.72,21.53-61.92,44.84-72.48,11.66-5.28,24.61-7.29,36.15-12.82,20.77-10,34.52-30,51.19-45.87,73.5-70.18,136,34.47,210.15,9.14,13.41-4.58,24.56-14,37.33-20.17s29.38-8.34,40.1.92c16.6,14.36,8.38,45.72,25.94,58.88,15.77,11.81,39.29-2.12,47.28-20.12,9.43-21.26,5.87-43.14,17.46-64.13,15.25-27.64,28.44-51.54,60.62-62.61,36.17-12.44,79.56,4,116.35,8.8,31.58,0,60.91,7.84,92.56-.21,12.13-3.09,19.39-9.42,27.12-6.39a17.42,17.42,0,0,1,6,4.23c7.31,7.49,6.75,44,8.42,54.87,2.49,16.19,5,32.46,9.92,48.08,5.49,17.37,13.87,33.65,22.22,49.83q13.28,25.73,26.54,51.45c4.38,8.49,8.87,17.13,15.59,23.91,32.06,32.3,98.12.57,138.5,12,19.38,5.47,37.86,17.65,46.05,36,5.74,12.89,6,27.44,6.4,41.54s1.31,28.75,8.11,41.11c16.05,29.14,66.66,11.28,73.61,41.57C3745,2164.56,3727.89,2188.06,3713.45,2199.73Z"/><text class="cls-2" transform="matrix(1, -0.03, 0.03, 1, 1445.88, 3045.02)">J</text><text class="cls-2" transform="translate(1600.21 3038.61) rotate(-5.63)">o</text><text class="cls-2" transform="translate(1765.14 3020.78) rotate(-9.54)">d</text><text class="cls-2" transform="translate(1931.9 2991.03) rotate(-13.38)">h</text><text class="cls-2" transform="translate(2089.17 2952.11) rotate(-17.23)">p</text><text class="cls-2" transform="translate(2250.47 2900.29) rotate(-21.1)">u</text><text class="cls-2" transform="translate(2400.07 2840.47) rotate(-24.38)">r</text></g><g id="Kushalgarh"><path class="cls-4" d="M3061.25,4945.2c8.41.4,16.62-2.83,24.56-5.15a162.37,162.37,0,0,1,78.11-3.16c15.77,3.26,31.55,8.91,47.53,7,19.18-2.33,35.48-15.35,47.78-30.25,8.53-10.34,15.85-25,9-36.56-4.67-7.89-14.21-11.08-22.37-15.25a75.84,75.84,0,0,1-33.51-34.7c-4.5-9.45-4.75-15.58-3.67-25.92l3.42-32.82c-.5,4.8-9.85,12-13.37,14.71-5.15,4-10.63,7.5-17.14,8-13.72,1.12-26.6,3.32-39.59,8.12-25.73,9.52-50.42,25.6-67.94,46.89-22.44,27.28-30.13,62.65-37.85,96.08C3044.48,4943.17,3052.94,4944.8,3061.25,4945.2Z"/><path class="cls-5" d="M3195.7,4843c66.87-50.71,151-78.59,234.94-77.06"/><path class="cls-6" d="M3169.12,4865.17c16.42-5.72,38.58-10.66,55.21-10.22l-25-14.75-9.78-27.33C3186.85,4829.29,3177.83,4850.13,3169.12,4865.17Z"/><text class="cls-7" transform="translate(3452.19 4787.73)">Kushalgarh</text></g><g id="Dungarpur"><path class="cls-8" d="M2926.19,4547.89c38.1-51.53,88.75-92.18,138.8-132.21l49.29-39.42c-39.62-14.38-83.16-10.18-125.23-12.76-4.27-.26-8.76-.67-12.29-3.09s-5.45-6.3-7.94-9.68c-11.35-15.36-32.88-18.82-52-18s-38.73,4.53-56.93-1.28c-19.66-6.27-36.39-23.31-57-22.32-6.18.3-12.13,2.25-18,4.2l-141.48,46.77c-13.73,4.54-27.53,9.11-40.3,15.89-9.46,5-18.26,11.21-27,17.37l-58.22,41c-6.59,4.63-13.67,10-15.39,17.86-1.22,5.6.57,11.37,2.54,16.75,5.88,16,14.43,28.38,22.07,42.09,8.24,14.77,11.71,27.58,25.07,39.61,21.82,19.65,48.29,27.89,74.19,40.46,4.29,2.08,8.63,4.2,12.21,7.34,6,5.3,9.34,13,12.46,20.37,5.23,12.42,10.48,24.93,13.33,38.11,4.77,22.11,6.92,35.22,29.6,39.74,24.83,5,49.29,13.16,74.31,18.45l81.34,17.16c25.27,5.33,21.72-5.48,21-25a209.68,209.68,0,0,1,6.1-56.8C2885.72,4613.32,2903.55,4578.51,2926.19,4547.89Z"/><text class="cls-7" transform="translate(2593.9 4524.76) rotate(19.42)">D</text><text class="cls-7" transform="matrix(1, 0.05, -0.05, 1, 2657.63, 4544.28)">u</text><text class="cls-7" transform="translate(2708.98 4545.98) rotate(-8.2)">n</text><text class="cls-7" transform="translate(2758.09 4538.3) rotate(-16.61)">g</text><text class="cls-7" transform="matrix(0.93, -0.37, 0.37, 0.93, 2805.08, 4523.86)">a</text><text class="cls-7" transform="translate(2846.15 4507.04) rotate(-24.27)">r</text><text class="cls-7" transform="matrix(0.9, -0.43, 0.43, 0.9, 2870.41, 4496.1)">p</text><text class="cls-7" transform="translate(2913.3 4475.82) rotate(-25.34)">u<tspan x="44.46" y="0">r</tspan></text></g><g id="Partabhgarh"><path class="cls-9" d="M3199,4394.31c20.8.15,41.68-3.65,62.31-1a101.25,101.25,0,0,1,63.17,34.09c8.78,10.22,15.67,23.17,14.42,36.58-.67,7.19-3.63,13.94-6.14,20.71-8.15,22-11.83,46.3-6.29,69.12s21.32,43.83,43.37,51.9a121.19,121.19,0,0,1,61.43-57.31c-15.76-80.06,16.59-160.63,42.85-237.88,8.39-24.68,16.19-51.88,6.95-76.26-5.11-13.49-15-24.56-24.6-35.3l-30-33.42c-4.23-4.72-8.56-9.29-12.09-14.59-.88-1.32-8.1-16.23-7.82-16.25-16.66,1.46-33.42.38-50.14.75-14.11.31-28.43,1.69-41.82,6.41-12.07,4.26-27.29,4.68-40.16,3.83-9-.6-18.64-4.13-27.5-3.65-19.24,1-37.45,3.1-55.53,10.29-4.38,1.74-7.71,2.18-8.08,7.24a35.39,35.39,0,0,0,1.44,12.2c1.16,4,4.07,7.52,5.26,11.66,1.74,6.06,5.28,9.69,9.42,14.25a146.13,146.13,0,0,0,17,15.93c7.68,6.13,15.72,15.12,18,25,2.58,11.34-2.19,22.62-4.23,33.64-1.86,10.07,2.44,22.88-7.22,30.08-4.39,3.27-8.7,6.83-13.61,9.4-10.58,5.54-22.37,8.34-33.26,13.23-15.73,7.06-63,40.63-36.91,59.5C3154.83,4395.83,3180.51,4394.18,3199,4394.31Z"/><text class="cls-10" transform="translate(3396.67 4491.64) rotate(-90.52)">P</text><text class="cls-10" transform="translate(3396.59 4453.83) rotate(-84.45)">a</text><text class="cls-10" transform="translate(3399.86 4422.29) rotate(-81.51)">r</text><text class="cls-10" transform="translate(3402.8 4402.79) rotate(-80.12)">t</text><text class="cls-10" transform="translate(3406.05 4384.27) rotate(-79.6)">a</text><text class="cls-10" transform="translate(3412.03 4352.53) rotate(-80.96)">b</text><text class="cls-10" transform="matrix(0.08, -1, 1, 0.08, 3418, 4315.48)">g</text><text class="cls-10" transform="translate(3421.08 4277.88) rotate(-92.4)">a</text><text class="cls-10" transform="translate(3419.01 4242.22) rotate(-100.05)">r</text><text class="cls-10" transform="translate(3415.01 4217.97) rotate(-109.91)">h</text></g><g id="Jhalawar"><path class="cls-11" d="M4113.59,4315.44a83.29,83.29,0,0,0-2.85-9.07c-2.81-7.38-6.77-14.27-10.71-21.12-1.61-2.8-4.32-6.07-5.11-9.22-.57-2.3-.36-5.32-.31-7.67.13-6.89,2.45-13.59,5.55-19.68a76.76,76.76,0,0,1,26.11-29.06c4.87-3.21,11.7-5,15.81-8.89,5-4.78,9.68-9.37,15.63-13.11s12.57-7.06,15.4-13.35c5.39-12-6.47-24.46-8.46-37.45-.89-5.8-.88-12.48,3.47-16.72a45.11,45.11,0,0,1,14.18-9.19c10.46-4.36,22.05-5.5,33.1-6.84,3.78-.46,7.91.28,11.73.55a41,41,0,0,1,14.59,3.29,27.65,27.65,0,0,1,13,12.81c-.95-8.67-.29-17.55-.13-26.3q.25-13.73.73-27.46c.43-12.56.76-25,.88-37.55.29-31.24.92-62.47.9-93.73,0-13.21,0-26.58-3.23-39.39-7.06-28.34-34.57-50-63.78-36.56-16.32,7.49-27.84,22.37-38.33,36.93-31.53,43.75-61.32,91.07-106.76,120.11-11.3,7.22-24,13.72-30.74,25.3-4.63,7.91-5.93,17.29-6.72,26.43-4.24,49.28,3.62,98.91,1,148.3s-18.43,101.88-58.3,131.15c-32.81,24.08-75.69,28.21-116.25,31.52-7.26,8.49,1.23,21.16,9.82,28.29,43.06,35.77,114.19,66.44,169.26,43l3.21-1.39c18.24-8,35.83-17.76,51.73-29.81,16.93-12.84,33.16-26.72,49.67-40.13-.12-12.68-.2-25.23.42-37.81.36-7.23-1-15.2-1.91-22.39A119.65,119.65,0,0,0,4113.59,4315.44Z"/><text class="cls-12" transform="matrix(0.29, -0.96, 0.96, 0.29, 4062.64, 4313.24)">J</text><text class="cls-12" transform="matrix(0.32, -0.95, 0.95, 0.32, 4073.09, 4278.8)">h</text><text class="cls-12" transform="matrix(0.34, -0.94, 0.94, 0.34, 4085.32, 4242.19)">a</text><text class="cls-12" transform="translate(4098.21 4207.11) rotate(-68.9)">l</text><text class="cls-12" transform="translate(4103.62 4192.79) rotate(-67.82)">a</text><text class="cls-12" transform="translate(4117.55 4158.27) rotate(-65.97)">w</text><text class="cls-12" transform="matrix(0.44, -0.9, 0.9, 0.44, 4139.11, 4110.21)">a</text><text class="cls-12" transform="matrix(0.46, -0.89, 0.89, 0.46, 4155.46, 4076.64)">r</text></g><g id="Banswara"><path class="cls-13" d="M3015.15,4908.36l21.12,33.65c2-9.36,4-18.73,6.09-28.08,11.72-52.85,48.34-99,100.28-116.48,13.44-4.52,26.29-5.51,40.13-6.92,11.78-1.2,24.62-13.08,30.12-23,7-12.68,7.13-27.91,10.55-42,11.82-48.66,60.9-77.79,107.11-97.06,5.77,0,12.72-6.67,16.78-10,6-5,13.92-8.74,20.59-12.9a83,83,0,0,1-39-44.25c-8.14-21.58-6.09-43.84.47-65.63,3-9.89,7.06-19.52,8.46-29.75a44.42,44.42,0,0,0-10-34.15,109.32,109.32,0,0,0-73.05-38.94c-10.29-1.06-19.89.73-30.06.93-20.85.41-41.35,1.95-62.2-1.25-6.71-1-13.49-2.43-19.44-5.7s-11-8.67-12.49-15.3l1.11-2.63c-11,1.72-20.16,8.94-28.8,15.91l-57.67,46.49c-18.26,14.72-36.61,28.84-53,45.54-15,15.29-30,30.59-44.25,46.59-8,9-15.73,18.16-23.07,27.66-6.67,8.64-14.31,17.71-19.6,27.18a273.42,273.42,0,0,0-26.39,64.19,300,300,0,0,0-8.22,45.77c-.62,6.16-2.14,13.6-.71,19.59,1.23,5.14,2.46,10.38,1.51,15.67-.41,2.3-3.32,10.81-7.47,8.92,6.34,2.89,12.69,4.88,18.29,9,12.31,9,24.6,18.1,37.46,26.35,15.35,9.84,31.22,19.74,41.93,34.9,14.68,20.77,20.67,46,30.94,68.9,5.18,11.57,12.46,20.88,19.07,31.42Z"/><text class="cls-7" transform="translate(3067.72 4790.26) rotate(-72.25)">B</text><text class="cls-7" transform="matrix(0.61, -0.79, 0.79, 0.61, 3083.94, 4742.64)">a</text><text class="cls-7" transform="translate(3108.54 4710.75) rotate(-40.85)">n</text><text class="cls-7" transform="matrix(0.81, -0.59, 0.59, 0.81, 3141.74, 4682.91)">s</text><text class="cls-7" transform="matrix(0.77, -0.64, 0.64, 0.77, 3176.73, 4659.07)">w</text><text class="cls-7" transform="translate(3228.86 4612.71) rotate(-54.57)">a</text><text class="cls-7" transform="translate(3256.23 4572.15) rotate(-64.23)">r</text><text class="cls-7" transform="matrix(0.28, -0.96, 0.96, 0.28, 3270.54, 4542.93)">a</text></g><g id="Jaipur"><path class="cls-14" d="M3375.27,1723.8c3.54-6.33,8-12.55,10.51-18.27a237.16,237.16,0,0,0,13.67-39.87c2.06-8.37,5.71-19.1,4.94-27.8-.74-8.39-5.89-14-3.24-23,2.31-7.87,7.67-14.4,12.4-21.1,26-36.79,28.65-76.7,28.37-120a84.85,84.85,0,0,1,6.33-31.82c10.34-25.93,32.65-45,56.92-57.56,12.45-6.46,25.65-10.18,38.56-15.43a167.3,167.3,0,0,0,40.89-23.91,163,163,0,0,0,26.17-26c3.42-4.29,5.64-8.74,9.56-12.53,5.23-5.05,10.27-10,14.63-15.89,6.13-8.24,11-17.39,17.62-25.26a148.41,148.41,0,0,1,14-14c7.26-6.62,14.59-13.3,23.16-18.11,8.33-4.68,17.57-7.45,26.73-10.18,11.71-3.49,21.23-2.83,32.63,1.79,10.52,4.27,20.07,11.31,26.39,20.75a49.66,49.66,0,0,1,7.09,16.65c1.89,8.34-1.83,20.24,2,27.75,6.23,12.17,22.31,13.34,33.92,10.3,10.05-2.63,19.45-7.33,28.43-12.56a135.66,135.66,0,0,0,18.91-12.92c5.79-4.84,10-10.88,15.41-16,11-10.61,20-22,26.93-35.67,3.42-6.74,6.85-13.49,9.71-20.48,10.43-25.47,13.08-53.35,15.63-80.75.39-4.18.76-8.52-.69-12.46,3.13,8,6.29,16,11,23.14,8.38,12.83,15.81,25.35,25.56,37.17q16.66,20.2,34,39.82,34.67,39.24,72,76.05,43.6,43,90.53,82.51c11.81,9.93,24.55,20.95,27.37,36.12,3.28,17.58-8,34.53-20.48,47.33-31.82,32.55-40.21,44.53-25.89,88.66,8.63,26.61,9.1,55.14,7.94,83.09-.32,7.71-.7,15.73,2.31,22.84,10.76,25.43,62.3,45.07,84.19,62.07,9.4,7.3,20.08,14.15,19.73,26.92-.42,15.09,2,30.46,3.29,45.5,2.66,30.42,5.33,61,3.62,91.54-3.53,62.91-25.77,121.92-49.67,179.49-10.78,26-26.21,50.79-26.84,79.44a89.71,89.71,0,0,0,11.64,45.9c4,7.14,10.68,17.71,18.63,20.78,5.55,2.14,13.29,1.95,19.19,2.8l19.49,2.82c5.76.83,11.59,1.69,17,3.92,20.31,8.45,25.46,40.06,51.49,37.45,8.43-.84,15.95-5.56,22.72-10.64s13.28-10.75,21.09-14c12.62-5.32,24.23,3.86,36.32-1.36,4.77-2.06,8.93-5.29,13.18-8.28a161.71,161.71,0,0,1,75.73-28.41c13.14-1.39,26,8.29,34.57,17.57,6.64,7.22,12.17,11.52,22.09,12a51.89,51.89,0,0,0,31.56-8.19c8.65-5.47,14.93-13.77,23.16-19.77,4-2.91,7.67-3.52,12-5.3,5.68-2.33,11.09-6.91,16.27-10.2,6.9-4.39,14-8.84,21.93-10.74,11.11-2.66,23,0,33.21,5.07,2.28,1.13,32.8,20.51,33.75,18.48-3.76,8,4.38,17.15,7.21,24.33,3.4,8.64,5.79,17.66,9.51,26.18,10.41,23.86,21,47.64,31.54,71.46,4.39,9.94,8.83,20,15.31,28.69,13.58,18.27,34.77,29.12,51.43,44.66,48.16,44.92,40.74,102.47,5.42,152.52-27,38.3-81.24,30.07-112,60.83-14,14-9.71,29.2-15,47.39-6,20.55-19.51,39.09-38.23,49.76-12.36,7-26.39,10.84-38.57,18.2-13.51,8.16-24.08,20.28-35.76,30.91-20.58,18.72-63.71,25.28-69.79,57.34-2.43,12.79,4.18,25.86,13.42,35s20.95,15.35,31.92,22.36c25.24,16.14,83,57.64,74.57,94.89-1.37,6.06-7.38,9.69-12.81,12.71A531.71,531.71,0,0,0,4534,3040c-7.21,6.95-12.5,15.69-19.94,22.42-7.69,7-17.23,8.66-24.12,17.35-4.9,6.17-8.63,13.19-13.3,19.53-3,4.13-6.06,8.22-9,12.44-11.57,6.64-22.55,13.75-35.43,17.68-8.52,2.6-16.9,9.8-25,13.85l-29.33,14.59c-19.41,9.65-28.05,32.24-38.28,50-3.08-6.4-4.38-11.55-11.15-14.64a27.11,27.11,0,0,0-17.63-1.73c-8.14,2-16.1,3.8-24.33,5.53-4.53,1-9.13,2.07-13.75,1.7s-11.68-3.29-12.47-8.65c-.39-2.67,1.83-5.28,2.83-7.72a59.07,59.07,0,0,0,2.69-8.69c2.83-11.82,3.12-24.75,9.8-35.3,9.81-15.5,30.37-20.56,42.55-34.28a42,42,0,0,0,10.46-25.69c.51-10.92-2.79-21.87-7.7-31.52-4.07-8-11.59-15.83-10.89-25.26.45-6,3.19-11.65,6.19-16.91s6.33-10.41,8.18-16.17,3.11-15.94-.31-21.58c-3.21-5.3-14-6.25-19.45-7.07a89.8,89.8,0,0,0-96.81,53.9,90.46,90.46,0,0,0-6.71,24.69c-.95,7.8.43,15.9.07,23.72-.47,10.43,6.64,22.85,10.13,32.63-2.06-5.77-8.63-11.78-13-15.84-13.69-12.69-34.48-16.8-52.68-17.49-6.09-.23-12-1-18-1.22-7.37-.31-14.78.71-22.16.48a120,120,0,0,1-25.05-3.76c-41.39-10.56-76.08-43.5-93.06-82.29-3.23-7.39-3.57-16.87-2.56-24.81.87-6.82,3.65-13.65,8.94-18a18.19,18.19,0,0,1,12.46-4.18c5.68.34,11.38,4.48,16.28,7l17.56,9.11c6.77,3.51,13.62,7.06,21,8.92a49.86,49.86,0,0,0,21.17.65c18.6-3.42,37.22-15.26,51.07-27.73,2.91-2.62,5.7-5.38,8.39-8.23a223.33,223.33,0,0,0,14.52-17.31q3.41-4.45,6.7-9c1.62-2.24,3.88-3.88,5.75-6a39.85,39.85,0,0,0,9.35-34.16,39,39,0,0,0-2.55-7.83,56.13,56.13,0,0,0-11.18-15.69c-2.26-2.35-4.71-4.51-7-6.79-6.18-6-9.23-15.77-12.61-23.54-6.3-14.5-10.73-30.47-23-41.3-2.68-2.37-4.84-5.43-8.06-6.92-10.57-4.92-21.52-5.37-32.65-7.85-9.37-2.09-19.85-2.16-27.51-8.84-5.09-4.43-8-11-13.4-15.11a19.49,19.49,0,0,0-8.59-3.66,13,13,0,0,0-4.58-.23c-1.62.39-2.68,1.72-4.53,1.53s-3.23-1.7-4.44-3.11l-3.61-4.23c-3.36-3.95-6.76-7.5-10.37-11.28a127.05,127.05,0,0,0-18.07-15.92,73.28,73.28,0,0,0-18-9.63,32.34,32.34,0,0,0-18.36-1.41,67.82,67.82,0,0,0-53.82,55c-1.5,8.5,1.26,17.73,3.57,25.91,4.52,16,12,30.76,19.1,45.72,2.84,6,1.77,12.33,2.05,18.69q.5,11.35,1.94,22.63t3.75,22.13c1.57,7.43,4.42,14.81,5.65,22.26s.71,15.74.53,23.24c-.08,3.3-.15,5.39-1.44,8.41a100.88,100.88,0,0,0-7.78,32.28c-.34,4.83-.35,9.76-1.81,14.38-1.35,4.28-3.92,8.15-4.87,12.53a18.11,18.11,0,0,0,1.24,11.21c2.83,6.27,5.66,12.65,8.43,19,3.17,7.27,6.34,14.54,9.79,21.69,3.89,8.06,4.37,15.47,2.09,24.16-1,3.76-2.24,7.44-3.23,11.2-1.7,6.41-2.45,10.59,1.68,16.24a31.65,31.65,0,0,0,14.89,10.62c7.34,2.65,16.2,3.88,24,4.39,8.84.59,16.32,1,23.48,7.06a30.93,30.93,0,0,1,10.81,24.34,39.39,39.39,0,0,1-2.95,13,24.17,24.17,0,0,1-6.93,10.16c-3.17,2.71-5.58,6.09-9,8.61a52.38,52.38,0,0,1-24.47,9.3c-13,1.65-26.23-.45-39.21-2.55l-30.07-4.86a203.15,203.15,0,0,1-21.94-4.39c-6.68-1.85-12.19-4.71-18.13-8-3-1.66-7.13-2.17-10.38-3.3q-5.34-1.86-10.51-4.14a144.19,144.19,0,0,1-19-10.14,145.75,145.75,0,0,1-19.84-15.68c-2.88-2.62-5.6-5.62-8.63-8-3.21-2.5-6.76-4.61-10-7a176,176,0,0,1-35-34l-.59-.78c-2.93-3.89-4.38-9-6.93-13.26-2.17-3.61-4.71-8-7.69-10.89-3.55-3.5-7.68-6.51-11.36-9.88-7.36-6.73-14.32-14-19.75-22.42a72.19,72.19,0,0,1-11.9-40.38c.13-5.73,1.53-10.91,2.59-16.47,1-5,1.65-10.11,2.88-15.14a182.8,182.8,0,0,1,6.39-20.6c5.86-15.59,11.38-32.67,11.09-49.65-.23-13-4.48-26.31-13.83-35.29-4.54-4.36-10.33-7.63-16.59-8.24-9.71-.94-19.41,3.34-26.27,10.08-1.74,1.71-3.51,3.07-5.32,4.63-2.29,2-3.92,5.26-5.65,7.73l-11.7,16.73c-10.5-2.78-18.84-10.47-27.75-16.68a110.13,110.13,0,0,0-12.14-7.34c-4.23-2.2-8.64-3-13.24-4.27l-31.53-8.88c-7.17-2-15.11-4.63-18.59-11.23-1.78-3.37-2.08-7.3-2.48-11.09a159.94,159.94,0,0,0-9.26-39.21c1.13,3,6.81,4.88,9.52,6,4.28,1.69,8.5,3.52,12.74,5.33,5.25,2.24,11.62,2.38,17.28,2.84a73.26,73.26,0,0,0,19.68-.67,39.54,39.54,0,0,0,19.91-9.8c8.42-8.06,11.1-20.83,13.74-31.79,2.13-8.85,5.16-19.36,4.44-28.5-.74-9.49-2-18.32-5.17-27.41-3-8.73-6.67-17.27-8.84-26.24a104.93,104.93,0,0,1-2.44-29c.27-6.59.85-13.16,1.52-19.73.62-6,1.95-12.15,1-18.13-2-12.93-5.35-25.52-11.8-36.91-3.17-5.6-5.45-11.67-8.79-17.22a130,130,0,0,0-11.63-16.36c-4.22-5.06-8.82-9.78-13.42-14.5l-19.9-20.45c-13.69-14.07-26.35-27.52-31.22-47.19a76.94,76.94,0,0,1-1.88-25.69c.75-7.92,3.92-15,5-22.7.56-4.1.71-7.48,2.52-11.22l7.13-14.8c3.95-5.92,6.49-13.48,9.58-19.9,2.47-5.12,4.65-12.87,9.39-16.38,3.15-2.33,7-3.48,10.72-4.66a293,293,0,0,0,50.39-21.34c18.37-9.89,36.72-21.65,52-35.88,17.62-16.36,37.39-30.92,56-46.18,11-9,22.23-18.24,30.36-30,4.35-6.26,7.79-13.29,9-20.81s.1-15.59-4.06-22c-6.74-10.36-20.07-11.46-31.08-14.22-3.2-.8-7.31-2.65-10.59-2.65-7.15-1.79-14.49-3.67-20.44-8a29.13,29.13,0,0,1-11.12-17.52c-1.43-6.88-3.51-13.3-3.91-20.43q-.48-8.47-1-16.94c-.27-4.67.88-9.22.42-13.89a55,55,0,0,0-6.69-21.35c-4.36-7.79-6.85-15.55-13.57-21.85a65.39,65.39,0,0,0-25-14.31c-21.35-6.75-44.65-4-66.58-2.33l-24.06,1.86c-7.48.58-15.49,2.07-23,1.71-5.26-.26-11.13-3.78-16-5.72-6-2.38-11.76-5.45-16.41-10-4.15-4-7.23-9-10.27-13.87-8.41-13.57-15-28.55-22.4-42.81-9.59-17.38-18.24-35.51-26.14-53.7-7.78-17.92-12.35-37.39-15.58-56.62-2.56-15.22-.21-30.62-3-45.84-1-5.4-2.4-10.93-5.88-15.18s-9.53-6.82-14.61-4.76C3370.11,1734.12,3372.4,1728.92,3375.27,1723.8Z"/><text class="cls-2" transform="translate(3920.57 1572.29) rotate(95.24)">J</text><text class="cls-2" transform="matrix(-0.05, 1, -1, -0.05, 3910.46, 1683.14)">a</text><text class="cls-2" transform="translate(3905.77 1797.07) rotate(90.75)">i</text><text class="cls-2" transform="translate(3904.49 1848.31) rotate(88.74)">p</text><text class="cls-2" transform="translate(3907.47 1974.73) rotate(85.93)">u</text><text class="cls-2" transform="matrix(0.11, 0.99, -0.99, 0.11, 3916.35, 2092.5)">r</text></g><g id="Tonk"><path class="cls-15" d="M3975.57,2761.09c10.22-12.86,18.66-27.54,31.78-37.42,6.57-4.94,21.33-12.68,29.77-8.43,8.84,4.42,9.27,16.35,19,21,10.09,4.84,30.43,4.42,42.11,6.89,4.72,1,9.52,2,13.77,4.32,4.54,2.45,8.19,6.23,11.77,9.95,17.59,18.32,18.06,39.6,31.37,60,8.85,13.56,23.53,22,23.88,40.4.22,11.22-6.38,21.32-13,30.37-17.61,24-38.26,47.08-65.34,59.45-12.21,5.58-25.94,8.83-39.12,6.28-19.57-3.79-34.34-22.3-53.58-25.2-9.14-1.38-16.17,3.52-19.72,11.76a46.69,46.69,0,0,0-3.27,13.65c-.25,2.45-.36,4.91-.38,7.38,0,2-.62,6,.92,7.6a43,43,0,0,0-20.24-11.51,53.42,53.42,0,0,0-11.69-1.25c-4.4-.13-8.56-.48-12.94.3a40.08,40.08,0,0,0-8.73,2.6c-5.19,2.22-11.77,5.55-15.2,10.27a32.3,32.3,0,0,0,5.67-14.79c.36-2.59-.17-5.08,0-7.7.25-5.27,1.79-10.52,2.65-15.71a79.15,79.15,0,0,1,6.58-20c2.66-5.84,1.66-14.54,1.08-20.84-1.36-14.87-5.77-29.22-8.85-43.77-3.24-15.31-8-46.84,6.57-58.46,5-4,15-3.37,21-6.16C3961,2777.56,3969,2769.31,3975.57,2761.09Z"/><path class="cls-15" d="M4217.37,3116.48c1.18,8.81,1,17.82,3,26.46,4.88,20.28,21.42,35.35,37.12,49.08,7.55-7.39,7.3-19.3,9.17-29.7a64.29,64.29,0,0,1,32-44.37c6.28-3.43,13.29-5.9,18.29-11a33.2,33.2,0,0,0,6.67-10.75,59.51,59.51,0,0,0-4-52.54c-3.66-6.07-8.55-11.77-9.65-18.78-1.62-10.37,5.4-19.81,10.88-28.76s9.45-21.27,2.66-29.26c-3.53-4.15-9.09-5.9-14.43-7-30.17-6-63.13,4.43-84.28,26.78-17.18,18.16-24.95,42.22-24.76,66.88C4200.24,3077.19,4214.3,3093.65,4217.37,3116.48Z"/><path class="cls-15" d="M3067.68,3909.63c-6.46-13.55-7.44-32.36,4.73-41.14,22.74-16.39,66.8-1.34,88.4,9.92,8.89,4.63,17.74,10.14,27.72,11.08,19,1.8,23.85-12.68,23.21-28.34-1.19-28.85,3.08-65.46,42.22-64,8.2.31,16.09,3,24.14,4.6,10.18,2,20.62,2.23,31,2.45s88.34,8,85.55-6.46c9.63,14.76,3.54,28.8,4.12,44.63.54,14.55,8.84,26.78,9.47,41.52.62,14.58-3.19,29-8.37,42.67-9.08,23.95-16,48.06-23.75,72.63-.52,1.65-1.16,3.45-2.66,4.31s-3.4.5-5.08,0a75.1,75.1,0,0,1-42.3-30.09c-3.27-4.82-6-10-9.92-14.33-6.48-7.07-17.21-8.64-26.42-7.1-8.61,1.44-13.68,10.08-19.66,16.44-14.19,15.08-39.21,18.49-56.91,7.74-5.89-3.57-11.37-8.63-18.23-9.24-11.92-1.06-20.16,11.27-25.59,21.94l-22.62,44.42c-1.88,3.69-4.22,7.77-8.25,8.75-3.6.88-7.21-1.05-10.86-1.7-5.81-1-11.81,1.26-17.64.35-10.59-1.66-16.89-13.39-17.24-24.1-.7-21.37,10.13-39.51,1.82-61C3088.22,3939.23,3075.26,3925.53,3067.68,3909.63Z"/><path class="cls-15" d="M4221.8,4267c18.12-34.94,27.81-73.75,32.78-112.8,1.12-8.77,1.89-18.2-2.34-26-7.67-14.08-27.11-15.62-43.05-13.91-10.49,1.13-21.27,3.18-30.66,8.23a37.46,37.46,0,0,0-12,9.72c-3.58,4.65-2.59,12.08-1,17.34,1.5,5.07,3.94,9.8,5.84,14.73s3.27,10.25,2.49,15.48a18.31,18.31,0,0,1-10.84,14.18,60,60,0,0,0-16.69,11.68c-2.49,2.46-4.54,6.18-7.63,7.7-3.87,1.9-7.91,3.34-11.66,5.53l-1.07.64c-14.09,8.72-23.18,23.64-29.62,38.9-1.51,3.57-2.92,7.31-2.83,11.18.16,6.55,4.5,12.12,7.92,17.71,16.69,27.24,16.93,72,15.29,103C4160.92,4362.27,4197.92,4313.07,4221.8,4267Z"/><path class="cls-15" d="M4551.79,3831.09a272.57,272.57,0,0,0,22.85,56.46q2.51,4.56,4.82,9.23,4.7,9.49,8.53,19.38c2,5.26,4.07,10.62,5.58,16.07,1.42,5.1,4.13,10.18,4.34,15.57a30.69,30.69,0,0,1-.52,5.84,34.53,34.53,0,0,0,1.53,16.41c3.11,9,9,16.63,14.44,24.37s10.75,16,12.4,25.32c10.57,3.71,20.42,8.29,31.71,8.84l48.08,2.35c4.36.21,8.86.4,12.94-1.14,5.06-1.92,8.77-6.25,12.13-10.49,12.82-16.19,24.27-34.66,26-55.23,2.53-31-17.19-58.91-36-83.72-9.16-9.16-15.77-20.34-25.76-28.93-4.66-4-10.26-8.69-16-11s-12.34-1.33-18.63-1.25c-2.56,0-5.26,0-7.5-1.21-3.91-2.16-5-7.19-5.43-11.64a91.63,91.63,0,0,1,.73-21.59c1.12-7.48.22-9.33-5.47-14.75a449.25,449.25,0,0,0-45.78-37.95l-19.49-14.18c-8.88-6.46-17.58-13.41-27-19.11-.75-.46-8.35-4-8.34-4.21l-1.52,21.85c-.42,6.05.07,11.87-.16,17.94a165.53,165.53,0,0,0,4.07,43.37c1.33,5.79,2,11.62,3.3,17.44Q4549.52,3823.11,4551.79,3831.09Z"/><path class="cls-15" d="M5018.51,4459.74c7.67,4.22,16.16,9.39,24.57,7,4.54-1.31,8.14-4.66,11.68-7.79,39.16-34.68,89.9-53.75,141-64.75,27.22-5.86,54.94-9.66,81.55-17.84s52.55-21.25,70.66-42.39,27.16-51.4,18.08-77.71c-6.79-19.66-23-36.59-23-57.39,0-13.35,6.93-26.33,5-39.55-3-21.11-26.7-32.69-47.9-35-50.35-5.52-98.16,19.74-146.26,35.59a405.54,405.54,0,0,1-113.28,20.1c-18.41.61-37.94-.36-53.36-10.44-3.51-2.29-6.83-5.07-10.84-6.28-12.6-3.8-24,9.15-28.6,21.48-8.75,23.35-7.41,49.06-7.28,74a700.2,700.2,0,0,1-17.43,158.93c-6.79,29.81,7.1,28.2,28.81,25.94C4974.06,4441.27,4999.39,4449.24,5018.51,4459.74Z"/><text class="cls-16" transform="translate(5182.99 3698.06)"><tspan class="cls-17">T</tspan><tspan x="60.19" y="0">onk</tspan></text><path class="cls-18" d="M4677.34,3858.94A1328.27,1328.27,0,0,1,5056.42,3671"/><path class="cls-6" d="M4633.81,3891.42c26.17-7.63,61.28-13.55,87.28-11.52l-38-25.13L4670,3811.19C4664.48,3836.67,4648.67,3868.57,4633.81,3891.42Z"/><path class="cls-18" d="M5132,4209.66c15.24-171.22,81.47-337.77,188.68-472.22"/><path class="cls-6" d="M5128.91,4263.89c11-24.94,29.09-55.61,47.39-74.19l-43.66,12.86-41.78-18.05C5106.78,4205.17,5121,4237.8,5128.91,4263.89Z"/><path class="cls-18" d="M4230.84,4282.12c96.63,62.85,228.77,66.11,338.81,25.25,127.23-47.24,229.83-143.56,319.79-245.19s171.76-211.63,275.51-299.13"/><path class="cls-6" d="M4188.38,4248.25c14.29,23.22,29.3,55.5,34.23,81.11l14.17-43.25,38.56-24.17C4249.29,4263.32,4214.35,4256.53,4188.38,4248.25Z"/><path class="cls-18" d="M3381.21,3928.84c89.33,62.39,154.54,159.22,177,266,17.63,83.83,11.17,175.31,53.77,249.62,53.5,93.33,166.74,130.9,270,160.93,87.83,25.54,181.7,51.13,269.26,24.67,66.62-20.13,120.7-68,172.47-114.49,86.93-78.1,175.87-157.14,274.28-219.7"/><path class="cls-6" d="M3334.75,3900.7c16.82,21.45,35.38,51.83,43.17,76.72l9.2-44.58,35.58-28.37C3397,3908.79,3361.49,3906,3334.75,3900.7Z"/><path class="cls-18" d="M4096.51,2856.29c215.9,60.13,432,123.66,629.88,224.79,213.86,109.3,407.63,267.34,512.58,475.14"/><path class="cls-6" d="M4044.17,2841.76c22,16.06,48.16,40.24,62.43,62.06l-3.29-45.4,26.51-37C4106.25,2832.6,4071.34,2839.57,4044.17,2841.76Z"/><path class="cls-5" d="M4306.62,3079.57a1488.48,1488.48,0,0,1,386.91-12.65"/><path class="cls-6" d="M4275.83,3085c15.43,2.87,35,8.93,47.83,16.72l-13-22.75,4.58-25.79C4305.79,3064.8,4289.39,3077.09,4275.83,3085Z"/></g><g id="Udaipur"><path class="cls-19" d="M2962,3067.19c4.36-4.15,9.32-7.36,13.42-11.91q7-7.83,14.63-15.14c8.7-8.39,17-16.36,25.44-25a181.63,181.63,0,0,1,62.45-41.64c25.36-10.08,54.58-4.55,79.41,4.41a225.41,225.41,0,0,1,37.54,17.7c4.61,2.7,9.45,4.44,14.19,6.81a92.74,92.74,0,0,0,46.66,9.62c4.08-.26,8.62.07,12.49-1.2,5.51-1.81,10.94-3.92,16.4-5.87,11-3.92,22.21-9.22,33.42-12.09s25.32-1.14,36.32,2.51c-4.15,1.58-7.62,2.28-10.65,5.75-8.84,10.17-7.26,25.35-5.2,37.78,1.28,7.7,2.34,16.83,6.06,23.71a123.16,123.16,0,0,0,14.64,21.34c3.31,3.88,6.33,7.46,10.88,9.78,4.38,2.23,8.82,4.53,12.33,8,5.17,5.17,13.61,7,19.81,10.7a65.52,65.52,0,0,1,17.91,15.29c8.22,10.31,12.73,23.91,10.58,36.91-2,12-6.61,23.41-12.36,34.05-4.84,9-11.91,17.37-15.51,26.88-4.16,11-7.88,22.44-9,34.19-1.24,13.17,1.27,27.22,9.64,37.47,9.66,11.82,23.08,13.79,36.9,17.54,12.42,3.36,25.84,1.05,38.13-1.73,4.15-.94,7.6-2.13,11.78-2.79a23.17,23.17,0,0,0,12-6.19c4.7-4.42,7.88-10.18,11-15.84,6.55-9.83,11.58-21.13,17.26-31.49l17.61-32.13c10.16-18.55,20.4-37.66,24.62-58.58,2.18-10.78,2.08-21.18.89-32-.48-4.41.28-8.64-.32-13.14a142.88,142.88,0,0,0-3.48-17c-1.17-4.51-2.49-9-3.8-13.45,16.86,5.39,31.5,14.57,47.52,21.82a218.09,218.09,0,0,0,49.34,15.89c16.77,3.14,34.57,3.88,50.43-2.41,8.92-3.53,18.06-12.11,22-21,2.26-5.15,2.77-11.3,4.89-16.65a64.53,64.53,0,0,1,10.73-17.95c3.77,9.34,15,14.51,21.89,21.41,6.64,5.79,13.74,10.6,20.68,16.05,13.3,10.46,26,22.47,42,28.6,5.93,2.26,12.21,3.79,18,6.19,6.44,2.67,12.81,5.53,19.22,8.29a101.63,101.63,0,0,1-4.16,18.28c-1,3-2.36,5.8-3.3,8.76-.62,1.93-.54,3.9-1.09,5.84-3.13,10.91-12.12,20.6-18.57,29.66-10.62,14.92-19.57,31-28.49,47l-50,89.7c-12.95,23.22-19.86,57.14-15.17,83.31,3.88,21.64,15.76,40.84,25.73,60.44,18,35.3,23.66,72.88,38.34,108.17,6.92,16.62,24.92,25.34,41.68,31.92,43.28,17,89.71,30.21,124.4,61.17,17.3,15.44,30.74,34.57,42.76,54.25,8.07,13.22,12.83,27.55,15.66,42.69q2.5,13.33,3.65,26.87c.22,2.54-.09,25,1,25.45-9.58-4-19.32-9.26-29.26-12.29-4.29-1.31-9.15-.51-13.73-.68-5-.18-9.9-.57-14.85-.76-35-1.38-69.74,6.46-104.73,6.11-60.08-.6-119.89-25.26-178.9-14-1.28-20.43,14.06-38.1,30.47-50.34s35.33-22.11,47.16-38.81c2.33-3.29,4.42-7.12,4-11.13-.8-7.5-9.3-11.16-14.44-16.67-10.67-11.44-6-29.9.47-44.16,16.62-36.81,5.26-66.25-39.24-69.19-20.15-1.33-39.74,6.81-57.31,16.76-10.06,5.7-30.57,20.14-31.87,33.11-1,10.06,9,22.31,8.85,35-.18,17.84-1.81,23.79-18.34,26.53-19,3.15-36.28,5.61-54.25,13.2-11.41,4.82-23,10.71-35.37,10.15-48.45-2.19-32.11-86.16-86.12-89.68a46.33,46.33,0,0,0-38.6,16.86c-2.67,3.34-4.9,7.19-5.49,11.43-1.13,8.07,3.75,15.64,8.4,22.33,24.45,35.2,53.37,66.51,70.08,106.47,4.8,11.48,7.38,24.68,3,36.32-.71,1.87-1.7,3.81-3.48,4.73a8.67,8.67,0,0,1-4.37.65c-18.05-.7-25.85-12.55-40.28-19.61q-1.88-.92-3.83-1.68c-8.23-3.23-17.11-4.58-25.87-5.34-4.58-.4-9.17-.61-13.77-.75-1.17,0-2.36,0-3.53-.09-1.4-.09-1.25,0-1.45-1.32-.26-1.7-.49-3.64-2.2-4.54-1.32-.69-2.93-.33-4.38,0a166.47,166.47,0,0,1-28.79,4.47c-9.46.63-19-.39-28.43-.39q-15.77-.41-31.53-.76c-2.63-.06-5.26-.06-7.89-.17-2-.08-3.87-.92-5.81-1.36l-15.21-3.41c-7.77-1.75-15.63-3.5-23.6-3.43s-16.17,2.15-22.27,7.28c-4.4,3.7-7.4,8.72-10,13.75-1.23,2.33-2.56,4.12-3.21,6.7-.79,3.12-1.36,6.29-1.89,9.46-1.72,10.17-1.85,20.27-1.59,30.54.13,5,0,10-2.71,14.36a20,20,0,0,1-9.9,8c-5.6,2.14-11.89,2-17.7.48s-11.21-4.24-16.43-7.2-10.3-6.17-15.74-8.7a63.63,63.63,0,0,0-16.3-5.25c-5.44-.88-10.89-2.4-16.34-3.49a84.15,84.15,0,0,0-16.57-1.8,66.39,66.39,0,0,0-16.34,2.05c-5,1.27-9.67,2.54-13.28,6.38a27,27,0,0,0-6.39,11.77c-1.85,7.26-.89,15,1.7,22.08,3.44,9.35,8.82,17.47,14.31,25.67,2,3,4,6,5.88,9a127.83,127.83,0,0,1,6.67,12.41c1.94,4.13,4.12,8.33,4.35,12.91a143.16,143.16,0,0,1-1.92,29c-1.63,10.59-3.79,21.74-.69,32.25a23.68,23.68,0,0,0,7.69,12.07,16,16,0,0,0,10.4,3.49c3.91-.17,7.83.08,11.75,0a10.38,10.38,0,0,1,4.67.53,17.8,17.8,0,0,0,6.07,1.19,11.13,11.13,0,0,0,6.9-2.06c3.19-2.42,4.59-6.7,6.32-10.14l4-8.09,8.09-16.17,5.34-10.67a113,113,0,0,1,9-15.73,74.51,74.51,0,0,1,5.43-6.28c2-2.25,3.79-4.22,6.64-5.49a16.64,16.64,0,0,1,10.72-.89c3.34.84,6.07,3,9,4.8,6.44,4,13.23,7.55,20.64,9.28a44.43,44.43,0,0,0,26.71-2.19c6.37-2.51,14.67-6.24,18.39-12.25,4-6.53,8.86-11.72,16.49-14a28.1,28.1,0,0,1,12-.81,29.73,29.73,0,0,1,16.6,8.54c4.7,4.75,6.78,11.07,10.62,16.41a65.45,65.45,0,0,0,13.51,13.85c7.75,5.89,16.33,8.84,25.32,12.17,2.84,1.05,5.87,2.53,8.4-.1-7.8,8.12-7.13,17.38-5.08,27.47,2.16,10.62,3.31,21.64,8,31.56,8.31,17.63,27.46,31.64,26.11,51.08-.47,6.71,2.22,15.09,2.6,21.8-20.78,4.44-42.47-1.31-63.57,1.18-16.51,2-32.18,8.91-48.76,10.14-14.66,1.09-29.24-2.34-43.91-3.36a134.34,134.34,0,0,0-57.86,8.82c-3.55,1.38-7.36,3.22-8.86,6.72-1.21,2.82-.63,6.06.14,9a79.24,79.24,0,0,0,21.25,36.57c11.17,10.89,26.39,19.74,29.88,34.94,3.55,15.47-6.84,31.19-5.06,47,1.41,12.49-13.5,23.28-24.77,28.85s-23.79,8.34-34.89,14.24c-7.89,4.2-14.89,9.86-21.71,15.59-3.28,2.75-6.79,5.19-9.1,8.79-1.44,2.24-3.36,4.52-4.41,7-1.14,2.63-1.78,5.71-2.68,8.46-.08.22-6.27,1.11-6.91,1.3a33.74,33.74,0,0,0-8.4,3.8,13.22,13.22,0,0,1-3.78,1.95c-1.74.42-2.32-.47-3.72-1a44.53,44.53,0,0,0-4.81-.95c-3-.71-5.61-2.28-8.5-3.11-2.21-.63-4.47-.32-6.72-.56s-4.53-.87-6.77-1.25q-7.67-1.29-15.41-2.07c-12.29-1.28-24.55-.61-36.84-1.32-12.79-.75-25.58-1.85-38.41-1.85-4.65-.23-9.49-.51-13.54-2.81l-.26-.15c-4.4-2.61-7.14-7.1-10.23-11-10.09-12.82-28.82-16.47-44.28-16.89-12.89-.35-25.71,1.43-38.59,1.65a97.19,97.19,0,0,1-19.18-1.32,63.2,63.2,0,0,1-9.35-2.44c-9.49-3.29-18.38-8.63-27.33-13.23-5.15-2.65-10.34-5.32-15.93-6.82-5.18-1.39-11.09-2-16.29-.67q-9.57,2.39-19,5.28-10,3.07-19.83,6.7c-6.09,2.25-12,6-18.52,6.88-6.72.91-13.52,4-20,6.11l-42,13.92-41.85,13.88c-6.3,2.09-13.62,3.56-19.26,7-6,3.68-12.51,6.75-18.65,10.26-5.81,3.32-11.52,6.85-17.48,9.79-3.13,1.54-6,4.2-8.89,6.2l-9,6.35c-6,4-11.74,8.25-17.6,12.37-8.3,5.83-16.75,11.21-24.75,17.49a69,69,0,0,0-5.11,4.72c-1.41,1.35-3.31,2.24-4.84,3.56-2.69,2.33-4.37,5.29-6.05,8.37s-1.5,6.92-1.8,10.5c-2.19-2.69-2.24-5.22-2.62-8.4-.44-3.76-1.87-7.49-2.68-11.19l-4.18-19.08-8.35-38.15-6.1-27.85c-.69-3.16-1.38-6.32-2.11-9.46-.62-2.67-2.27-6.3-1.44-8.84,1.76-5.38,3-9.9,2.17-15.67a48.12,48.12,0,0,0-5.92-16c-5-9-11.62-17.08-18.18-25.07-3-3.6-5.88-8.47-9.66-11.24a118.56,118.56,0,0,1-9.8-8.51,260.92,260.92,0,0,0-23.16-18.9,165.35,165.35,0,0,0-14.3-9.4c-2.91-1.68-6-2.54-9-3.89-3.52-1.6-6.83-4-10.24-5.83a238.56,238.56,0,0,0-21.68-10.29c-8.64-3.58-18.71-5.65-28.09-4.42a65.58,65.58,0,0,0-9.12,2.11c-.87.25-7.95,3.78-7.05,5.13a99.25,99.25,0,0,1-11.55-23.87c-1.63-5-3.45-10.25-2.82-15.54a34,34,0,0,1,4.83-13.29c5.12-8.6,12.49-15.56,18.9-23.15a108.94,108.94,0,0,0,24.29-84.76c-.82-5.67-2.15-11.41-5.31-16.19a37.61,37.61,0,0,0-9.58-9.35c-10.87-7.89-23.48-13.24-33.87-21.76-3.63-3-5.67-6.8-8.82-10-3.62-3.64-10.22-5.15-14.88-7.14-1.27-.54-2.69-1.24-3.05-2.58a4.66,4.66,0,0,1,.81-3.3c8.61-16,16.93-32.24,25.46-48.33a281.87,281.87,0,0,1,40.45-57.58c10-11,19.4-22.3,29.35-33.34l16.29-18.07c4.71-5.22,9.82-13.47,15.64-17.35,7.44-8.25,14.94-16.58,20.59-26.15a68.42,68.42,0,0,0,5.92-12.71c2.15-6.31,1.06-14,3.33-19.81,2.53-6.42,9.58-13.1,13.67-18.72,9.11-12.5,18.16-25,27-37.75,17.57-25.28,34.27-51.23,48.59-78.51,9.34-17.81,18.06-36.08,30-52.28,9.81-13.33,21.62-25,32.85-37.18,30-32.43,61.24-65.1,88.28-100.54a457.42,457.42,0,0,0,37.51-56.87c5.19-9.44,9.06-19.49,15.85-27.85,8.19-10.07,16.37-20.12,25-29.83a618.35,618.35,0,0,1,48.77-49.14c25.32-22.81,47.07-49.89,65.64-78.32,16.09-24.63,35.1-47.22,55.19-68.66,10.1-10.78,20.48-21.28,31-31.67,5.24-5.19,10.45-10.42,15.79-15.51Z"/><text class="cls-2" transform="matrix(0.7, -0.72, 0.72, 0.7, 2767.32, 4050.71)">U</text><text class="cls-2" transform="matrix(0.7, -0.72, 0.72, 0.7, 2867.91, 3947.11)">d</text><text class="cls-2" transform="translate(2953.04 3859.45) rotate(-45.84)">a<tspan x="111.21" y="0">i</tspan><tspan x="159.4" y="0">p</tspan></text><text class="cls-2" transform="matrix(0.7, -0.72, 0.72, 0.7, 3149.23, 3657.41)">u</text><text class="cls-2" transform="translate(3229.19 3575.07) rotate(-45.84)">r</text></g><g id="Sirohi"><path class="cls-20" d="M1891.45,3877.18c22.5,13.23,50.35,14.34,76,9.66,13.28-2.42,27.31-6.22,39.89-1.33,9.17,3.56,16,11.23,22.19,18.91a328.58,328.58,0,0,1,23.13,32.79c6.65,10.77,14.07,22,17.34,34.34a72.7,72.7,0,0,1,2.41,16.69,25.11,25.11,0,0,0,0,4.23c.34,1.58.31,1.35,2,2.05a69.1,69.1,0,0,1,7.45,3.61c2.31,1.3,5.65,2.77,7.36,4.8a93.73,93.73,0,0,0,21.1,18.81c2.86,1.87,6.35,4.61,9.7,5.44,3,.74,5.92,1.22,8.93,2.12,3.77,1.12,7.6,2,11.44,2.83a143.57,143.57,0,0,0,40.93,2.5c6.62-.55,13.25,0,19.9-.59a115.82,115.82,0,0,0,20.27-3.68c4.29-1.16,9.9-2.14,13.63-4.62,2.93-1.94,5.78-5.28,8.33-7.75,30.86-29.79,44.65-72,67.4-107.4,30.17-47,75.76-82.51,106.28-129.3,7.33-11.23,13.68-26.34,6-37.32-4.19-6-11.43-8.84-18-12-56.1-27-82.41-102.82-55.11-158.79,5.57-11.43,13-22,16.75-34.2s2.88-26.89-6.36-35.62c-12.67-12-33.71-7.19-49.43-14.73-20.52-9.83-25.44-36.12-29.75-58.46s-15.17-48.61-37.78-51.11c-15.79-1.75-29.85,9.42-41.29,20.45a489.94,489.94,0,0,0-90.32,118.5c-16.09,29.57-30,61.95-56.47,82.79-17.34,13.66-38.76,21.23-56.58,34.25-42.18,30.83-56.9,84-82.06,127.29a110.47,110.47,0,0,1-11.23,15.34c-4,4.79-9.62,8.29-14.59,12.1l-33,25.28c-2.26,1.73-4.21,3.7-6.55,5.41,3.12,2.15,3.92,6.72,5.47,10,2,4.27,4.07,8.53,5.95,12.86s3.4,8.85,6.14,13A68.78,68.78,0,0,0,1891.45,3877.18Z"/><text class="cls-16" transform="translate(2172.19 3914.51) rotate(-60.26)">S</text><text class="cls-16" transform="translate(2215.36 3835.34) rotate(-66.29)">i</text><text class="cls-16" transform="translate(2228.56 3805.55) rotate(-70.06)">r</text><text class="cls-16" transform="translate(2245.09 3761.78) rotate(-75.9)">o</text><text class="cls-16" transform="matrix(0.11, -0.99, 0.99, 0.11, 2264.56, 3681.99)">h</text><text class="cls-16" transform="matrix(0.02, -1, 1, 0.02, 2272.2, 3604.91)">i</text></g><g id="Bundi"><path class="cls-21" d="M3933.16,3160.9l.08,0c19.49,4.78,44.34,3.09,60.78-9.3,16.88-12.72,21.87-41.83,4.9-54.42-11.34-8.41-26.93-6.56-40.85-8.91-8.27-1.4-17.51-6.12-22.12-13.39-6.35-10-.45-18.11,2.83-28a28.43,28.43,0,0,0-2.23-22.69c-2.14-3.77-5.16-7.06-6.71-11.11-1.06-2.79-1.37-5.8-2-8.71-2.26-10.06-12.76-19.33-12.37-29.64.2-5.51,5.5-9.25,10.23-12.09,4.2-2.52,8.5-5.07,13.3-6a40.62,40.62,0,0,1,9.25-.41c8.86.31,17.93.92,26,4.51,13.21,5.85,18,20.83,24.34,32.75,19.2,35.82,56.48,61.33,96.83,66.24,35.31,4.3,76.25-4.73,102.7,19.06,5.78,5.19,10,11.71,14.22,18.16s4,14.4,5,21.88c1.35,10.56,2.73,21.21,6.32,31.23,6.08,16.93,19.39,32.7,35.3,41.27,4.17,2.24,11.65,7.48,16.13,8a24.91,24.91,0,0,0,8.42-1.06l18.21-4.45c5.37-1.31,10.8-2.63,16.32-2.57s11.24,1.64,15.24,5.45c2.73,2.73,6,7.72,5.85,11.8-.17,4.8-3.28,10.73-4.61,15.42q-4.59,16.25-7.62,32.89c-5.67,31.18-22.5,60.24-43.21,83.88-23.42,26.74-52.49,48.61-82.35,67.6-2.5,2.5-6.75,4.18-9.67,6.28q-22.56,16.26-46.36,30.71-11.89,7.22-24.05,14c-6,3.33-11.9,7-18.41,9.3-2.93,1-5.95,1.22-8.69,2.59a85.61,85.61,0,0,1-9.78,4.26,76.93,76.93,0,0,1-27.08,4.36c-4.53-.09-9.17-1.51-13.62-1.44-2,0-4.3.66-6.28.35s-4-1.53-5.84-2.17l-13-4.62c-5-1.76-10.22-3.54-15.41-2.6a15.45,15.45,0,0,0-10.79,8c-2.21,4.27-1.38,7.78-.78,12.21.49,3.61-.67,7.74-.51,11.54.28,6.83,1.32,12.8.46,19.64a141.89,141.89,0,0,1-4.1,20.42,129,129,0,0,1-6.76,18.36c-2.55,5.65-4.37,10.59-9.19,14.49l-16.55,13.39-8.28,6.7c-1.35,1.09-5.73,6-7.36,6-8.08,6.54-16.4,13.33-22,22.22-5.81,9.24-7.22,19.77-9.6,30.33-.79,1.08-18.49-8-20.73-8.63-15.91-4.58-31.09-9.62-45.74-17.79-2.9-1.62-5.87-3.24-8.62-5.12-6.24-4.26-11.14-8.38-14.89-15.16-3.26-5.89-5.36-12.34-7.45-18.75l-22.65-69.67c-1.43-4.39-2.45-9.2-4.19-13.4-2.09-5-5.32-9.86-7.91-14.66-8.62-16-17.32-32.15-22-49.7-3.06-11.58-4.27-23.82-2.41-35.7s3.44-23.72,7.47-35.19a119,119,0,0,1,11-23.17c2.15-3.48,4.84-6.67,6.82-10.21,2.31-4.13,4.2-8.54,6.34-12.77q12.86-25.43,27.15-50.11,4-6.91,8.08-13.76,11.13-18.66,22.3-37.3c6.69-11.13,15.11-21.07,21-32.73a109.06,109.06,0,0,0,11-37.35c0,.81,28.62,5,31.33,5.5,4.73.83,9.34,2.09,14.1,2.16A70,70,0,0,1,3933.16,3160.9Z"/><text class="cls-22" transform="matrix(0.54, -0.84, 0.84, 0.54, 3971.13, 3433.07)">B</text><text class="cls-22" transform="matrix(0.62, -0.78, 0.78, 0.62, 4007.17, 3376.93)">u</text><text class="cls-22" transform="translate(4040.83 3334.72) rotate(-45.94)">n</text><text class="cls-22" transform="matrix(0.76, -0.65, 0.65, 0.76, 4078.27, 3295.8)">d</text><text class="cls-22" transform="matrix(0.8, -0.59, 0.59, 0.8, 4122.91, 3258.58)">i</text></g><g id="Jaisalmer"><path class="cls-23" d="M1787,1183.83c4.14.41,8.26,1,12.37,1.69s8.07.76,12.08,1.21c24.59,2.76,49,7,73.56,10.19,12.39,1.62,24.8,3.05,37.24,4.1,12,1,24.19.88,36.13,2.22l18.92,2.13c10.67,1.2,21.34,2.33,31.24,6.64a49.5,49.5,0,0,1,29.5,39.06c.5,3.69,0,7.42.38,11.06.36,3.35,1,6.66,1.19,10.08.5,8,3.51,15.79,7.7,22.6,5.46,8.86,12.86,16.34,20.19,23.73,6,6.09,12,11.6,17.26,18.38,2.16,2.8,5.55,4.78,8.14,7.26a68.73,68.73,0,0,1,8.07,9.26,71.25,71.25,0,0,1,11.61,25.2,67.62,67.62,0,0,1,1.85,14.08,89.31,89.31,0,0,0,1.58,14.37c9.37,52.29-17.46,103.36-40.72,151.12-10.23,21-20.07,42.84-21.86,66.13s5.92,48.62,24.91,62.23c7.94,5.69,17.35,9.06,25.37,14.63s14.9,14.57,13.72,24.26c-2.59,21.2-9.44,40.09-7.38,61.34s5.06,43.67-3.58,63.19c-9.74,22-32.55,35.63-55.73,42.1s-47.53,7.18-71.22,11.39a238.23,238.23,0,0,0-52.26,15.7,251.35,251.35,0,0,0-77.31,52.14q-5.55,5.5-10.75,11.33c-3.43,3.85-7,7.38-10.18,11.42q-11.26,14.34-23.64,27.76-6.18,6.7-12.63,13.15c-4.07,4.07-8.84,7.18-13.58,10.47a122.62,122.62,0,0,1-27.23,13.89,250,250,0,0,1-24.87,7.62c-8,2.08-15.91,4.47-24,6.11-38.06,7.68-81,1.84-109.44-24.55-6.84-6.33-12.64-13.65-18.33-21-3.86-5-9.28-9.63-12-15.3-6.72-13.94-12.47-25.75-27.76-32.18a49.94,49.94,0,0,0-29.74-2.45c-2.33.53-4.61,2.69-6.6,4-2.48,1.58-5.08,3-7.41,4.77a57.07,57.07,0,0,0-7.43,7.19c-6.7,7.45-12.44,15.61-18.7,23.34a22.19,22.19,0,0,0-2.6,4.69,35,35,0,0,1-2.83,4.36,87.67,87.67,0,0,0-11,23.23,128.66,128.66,0,0,0-3.5,12.69c-1.63,8.35-.28,17.34,5.55,23.84,3.53,3.93,7.11,3.41,12.14,4q7.81.89,15.52,2.44c4,.8,8,1.77,11.5,3.89,6.71,4.11,10.33,12.22,10.3,20.08s-3.31,15.44-7.88,21.84a96,96,0,0,1-12.67,13.89c-3.91,3.68-6.54,7.11-11.61,9.4l-24,10.87c-6.51,2.95-13,5.89-19.35,9.22a181.26,181.26,0,0,0-27.93,18.15c-26,20.55-46.51,47.6-56.46,79.35-2.47,7.87-3.41,16.8-4.47,25a345.63,345.63,0,0,0-2.69,54.87c.51,16.51,2.36,32.88,4,49.3.69,7.1,1.31,14.21,2.19,21.38q1.46,11.79,2.35,23.64c1.8,24.12,1.82,52.3-13.75,72.43-6.6,8.53-16.72,14-27,16.71-14.42,3.74-29.57,2.86-44.46,3.29q-2,.06-4,.15a252.61,252.61,0,0,0-78.72,16.39q-9.43,3.6-18.55,8c-5.36,2.56-10.71,4.07-16.12,6.43-13,5.69-25.65,12.08-38,19-17.48,9.7-35.78,19.31-50.78,32.41a518.74,518.74,0,0,1-48.12,37.24A535,535,0,0,1,786,2751.42q-19.33,3.11-38.85,4.76c-6.23.52-13.29,1.85-19.52,1.21-5.68-.59-11.57-2.87-17.3-3.85l-27.18-4.68c-17.94-3.09-35.85-6.35-53.81-9.27l-27.21-4.68c-8.23-1.42-16.93-3.84-25.24-3.82a48.81,48.81,0,0,1-6.88-.53c-1.9-.27-3.57-.92-5.49-1.13a140.17,140.17,0,0,1-14-2.1c-2.32-.5-4.63-1.1-6.91-1.74-2-.56-4.19-1.6-6.25-1.63-4.39,0-9-1.41-13.33-2.21-6.48-1.19-13-2.38-19.6-2.39a77.09,77.09,0,0,0-17.77,2.33c-4.91,1.16-9.69,3.17-14.71,3.09-1.73,0-22.77,2.14-22.85.38-1.51-35.41,4-70.94,2.49-106.62a921.76,921.76,0,0,1,3.29-127.11c1.92-20.1,2.9-39.13-6.26-57.77-7.19-14.64-17.88-17.4-32.91-22.6-23.56-8.16-47.56-15.55-70.84-24.48-17.41-6.68-32.56-16.84-50.4-23.46-41.13-15.28-82.23-33.7-114.79-63.84A205.83,205.83,0,0,1,118,2188.45c-8.83-45.36,1.61-88,14.13-131.2,12.23-42.24,55.86-78.76,86.31-108.17L346,1825.78c77.53-74.91,135.26-168.38,170.53-270.26,7.75-22.39,14.76-45.83,30-63.93,9.82-11.62,22.53-20.38,35.07-29L659.86,1409c23.51-16.13,48.76-32.85,77.25-33.75,53.61-1.69,77.84,43.16,99.38,83.9,10.36,19.59,20.83,39.51,25.36,61.2,5.92,28.42,1.64,59.64,15.6,85.09,12.55,22.89,38.05,36.43,63.83,40.54s52.11,0,77.76-4.87a1229.44,1229.44,0,0,0,155.18-40.24c67.7-22.36,136.54-38,207.8-35.86,41.64,1.26,83.52,7.31,124.77,1.47s83.39-26.32,101.75-63.72c14.48-29.5,12-64.29,20.4-96.06,9.21-34.92,31.11-64.89,52.55-93.95,18.09-24.5,39.6-47.44,56.72-72.43,5.08-7.42,8.79-15.64,13-23.57,3.68-7,7.78-13.88,13.47-19.41,2.73-2.66,5.93-4.57,8.81-7s5.09-5.57,8.76-6.43a14.17,14.17,0,0,1,4.6-.09Z"/><text class="cls-2" transform="translate(542.69 2289.78) rotate(-16.9)">J</text><text class="cls-2" transform="matrix(0.93, -0.37, 0.37, 0.93, 675.29, 2247.55)">a</text><text class="cls-2" transform="translate(802.17 2196.07) rotate(-23.31)">i</text><text class="cls-2" transform="translate(868.74 2167.17) rotate(-23.51)">s</text><text class="cls-2" transform="translate(986.48 2116.16) rotate(-23.33)">a<tspan x="135.78" y="0">l</tspan></text><text class="cls-2" transform="translate(1178 2033.55) rotate(-23.33)">m<tspan x="198.6" y="0">e</tspan></text><text class="cls-2" transform="translate(1493.14 1897.07) rotate(-29.24)">r</text></g><g id="Kotah"><path class="cls-24" d="M3969.6,3575.33a68.22,68.22,0,0,0,12.73-20.79,138.73,138.73,0,0,0,10-50.83c.08-15.2-8.3-34.87,15.23-34.4,11.62.23,22.19,8.43,33.94,9.45,13.8,1.2,29,.22,42.3-3.58,28.41-8.11,53.73-24.26,78.6-40.21,44.87-28.77,90.49-58.19,124.58-99.17,23.15-27.82,37.3-58.56,43.39-93.71,4.82-27.86,18-61.23,41.67-78.63,27.55-20.24,65.12-34.23,95.67-51A434.4,434.4,0,0,0,4457,3236.25c1.2,21,4,42.05,10.48,62.06,19.42,59.62,72.09,105.27,131.91,124.05s125.62,12.72,184.58-8.62c32.38-11.72,63.07-27.86,95.81-38.5s68.87-15.49,101.37-4.14c7.24,2.53,14.68,6.26,18.32,13,3,5.49,2.9,12.05,2.76,18.29l-2.15,98.49c-.86,39.67-5.26,86-38.79,107.18-16.79,10.63-37.53,12.33-57.35,13.75l-148.26,10.57c-11.38.81-23.08,1.71-33.31,6.76-27.48,13.56-33.15,49.54-35.74,80.08s-9.41,66.65-37.54,78.81a537.27,537.27,0,0,0-106.76-83.53,294.69,294.69,0,0,0,22.52,151.27c12,27.44,28.34,53.55,33.48,83.05-7,12,4.5,28.75,12.14,40.29s16.94,23.76,15.53,37.53c-1.47,14.33-14.41,25.8-14.87,40.21-.31,9.71,5.12,18.52,9.66,27.11,22.35,42.3,25.75,94.17,9.12,139a363.34,363.34,0,0,1-93.24-27.29c-19.47-8.67-39.27-19.31-60.57-18.47-12.3.48-24.07,4.81-35.73,8.75-32.76,11.08-67.51,19.6-101.71,14.53s-67.83-26.37-78.86-59.14c-5.32-15.83-5.1-32.91-4.83-49.61l2.47-148.76c.34-20.41.46-41.8-8.93-59.92-5.83-11.24-16.36-20.57-28.56-24.26-12.64-3.82-25.61-3.65-36.87,4-8.54,5.77-15,14-21.33,22.18-8.76,11.28-17.07,23.29-26.26,34.12-5,5.95-9.17,13-13.91,19.34-5.34,7.1-11.27,13.85-16.12,21.22-2.55,3.88-6.3,7.34-9.34,10.86-2.71,3.15-7.15,6.74-9,10.44,6.53-12.39,7.76-26.16,1.27-39-6-11.79-18.17-14.75-25.88-25-4.65-6.18-6.88-13.81-8.8-21.31-8.66-33.83-7.23-69-11.91-103.39a209.8,209.8,0,0,0-5-25.74c-2.11-7.91-4.41-17.15-9-24-9.8-14.75-19.44-29.28-31.32-42.53q-8.5-9.49-17.89-18.12c-3.1-2.85-6.22-5.84-9.58-8.39s-7.33-4.35-11-6.36q-12.31-6.73-25-12.83c-2.18-1.05-25.17-10.71-25.05-11.34,1.87-10,2.87-19.9,8.13-28.85a72.69,72.69,0,0,1,16.88-19.9C3947.18,3592.94,3959.69,3586.34,3969.6,3575.33Z"/><text class="cls-25" transform="translate(4196.01 3771.58) rotate(-33.54)">K</text><text class="cls-25" transform="matrix(0.87, -0.49, 0.49, 0.87, 4279.7, 3716.34)">o</text><text class="cls-25" transform="translate(4355.71 3673.93) rotate(-26.52)">t</text><text class="cls-25" transform="translate(4398.8 3651.94) rotate(-23.69)">a</text><text class="cls-25" transform="translate(4473.17 3619.2) rotate(-20.08)">h</text></g><g id="Matsya_Union" data-name="Matsya Union"><path class="cls-26" d="M5126.73,2411.63c5.46-4,12-6.39,18.59-8,17.07-4.15,34.93-3.62,52.27-6.48,45.54-7.5,88.21-38.23,133.71-30.45,13.84,2.37,27.31,8.3,41.31,7.24,18.69-1.42,33.91-14.79,50.52-23.49,38.61-20.24,77.67-24.19,110.58,8.33,5.95,5.88,11.44,12.42,14.72,20.11,9.34,21.94-5.28,31.36-20.4,43.9l-53.63,44.49a433.16,433.16,0,0,1-104.12,63.35c-42.41,18.2-87.31,32.38-124.93,59.94-39.74,29.13-76.78,61.32-120.84,83.57l-62.25,31.44c-3.47,1.75-6.63,4-10.07,5.87a12.68,12.68,0,0,1-5.17,1.87,16.69,16.69,0,0,0-5.65,1.42c-2,.75-4.38,1.06-6.48,1.75a92.25,92.25,0,0,0-12.81,5.37c-8.28,4.18-16,9.35-23.78,14.39-2.63,1.71-5.28,3.4-7.95,5a284.65,284.65,0,0,1-54.87,26.42,573.87,573.87,0,0,0-198.57,119.45c-25.55,23.59-52.4,45.33-82.13,63.51,6.57-4,3.71-18.1,2-23.84a57.49,57.49,0,0,0-4.09-9.7q-1.82-3.51-3.93-6.85c-3-4.72-6.14-10.18-10.18-14l-6.85-6.51-3.32-3.15c-.9-.85-2-2.39-3.09-2.94l-11-10.49c-1.84-1.75-3.66-3.52-5.52-5.24-1.49-1.38-3.49-2.27-5.21-3.4l-7.35-4.87-25.36-16.8c-3.53-2.34-6.91-4.82-10.39-7.26a66.11,66.11,0,0,1-9.91-8.54c-5.36-5.63-10.9-12.71-12.75-20.37-.71-3-.62-6-1-9-.85-5.91,2.79-13.09,6-17.86a50,50,0,0,1,10.72-11.39c4.06-3.2,8.23-6.44,12.58-9.24a221.36,221.36,0,0,1,20.11-11c7-3.52,14.14-7,20.65-11.33,1.27-.85,1.89-2.08,2.9-3.2q2.07-2.28,4.23-4.49,4.23-4.32,8.75-8.34,3.91-3.47,8-6.69c2.52-2,4.79-4.24,7.39-6.13,6.9-5,15.21-7.6,23-11.09,4-1.78,7.67-4.28,11.66-5.94a81.71,81.71,0,0,0,29.2-20.65,79.73,79.73,0,0,0,19.23-38.6q1-5.71,1.89-11.46a9.13,9.13,0,0,1,.52-2.35,6.28,6.28,0,0,0,.54-2.06c.14-1.69-.13-3.39.06-5.07a33.45,33.45,0,0,1,1.67-7.27,39.52,39.52,0,0,1,7.48-12.81l.6-.67a53.17,53.17,0,0,1,11.54-9.48,71.49,71.49,0,0,1,6.6-3.61c1.12-.54,2.26-1.11,3.42-1.56a30.08,30.08,0,0,0,3.06-1.6c7.84-4.05,16.32-6.63,24.77-9,5.12-1.46,10.27-2.85,15.33-4.49,2.53-.82,5-1.69,7.51-2.66,1.1-.43,2.13-.95,3.18-1.44,1.22-.58,2.57-.8,3.78-1.44s2.43-1.92,3.81-2.65c1.54-.81,3.3-1.32,4.88-2.07a63.26,63.26,0,0,0,17.14-11.94l.16-.15a93.05,93.05,0,0,0,13.3-17.24,189.24,189.24,0,0,0,10.63-18.93c9.66-20.36,15.26-44.13,11.17-66.54a111.07,111.07,0,0,0-29.26-56.46,91.45,91.45,0,0,0-14.72-12.68l-17.42-11.71c-3.4-2.28-6.81-4.66-9.06-8.16s-6-5.91-8.76-8.87a83.5,83.5,0,0,1-14.85-21.51c-5.18-11.13-9.8-22.58-14.77-33.81-10-22.67-20-45.37-28.65-68.61-3-7.94-6.54-15.71-9.8-23.53-1.24-3-1.29-7.86-4.83-9.14-6.26-2.26-10.75-9.35-16.39-12.8-9.82-6-21.59-10-32.71-12.67a23.11,23.11,0,0,0-8.76-.88c-3.17.46-6,2.11-8.79,3.72-13.45,7.83-27,15.41-40.61,23-9.79,5.5-16.85,13.87-26.66,19.66-8.24,4.86-17.1,9-26.59,10.23s-19.72-.85-26.88-7.19c-4.8-4.25-8-10.13-12.79-14.34-12.86-11.2-32.45-7.37-48.9-2.89-15.05,4.09-27.93,6.77-40.59,16.19-10.28,7.65-20.14,17.41-33.8,17.68-6.48.12-12.85-2.19-19.31-1.75-19.43,1.32-31,26-50.48,27.27-11.94.8-22.46-7.72-30.19-16.85-8.68-10.25-15-21.61-28.35-24.71-14.39-3.33-29.79-.32-43.88-5.35-31.32-11.18-40-59.67-33.45-88,3.18-13.78,9.94-26.38,16.36-39q1.14-2.24,2.25-4.47c14.07-28.37,24.36-58.44,33.89-88.63,12.12-38.42,23.16-78.08,21.1-118.31-.64-12.53,1.67-24.1,1.86-36.18.17-11-2.87-22.65-4.32-33.51-2.57-19.37-7.53-44.31,1.59-62.72,4.59-9.26,18.19-11.68,24-20.39,9.91-15,6-30.55,3.94-47.37a116.44,116.44,0,0,1,19.32-79.19c3.35-4.89,7.34-9.71,12.85-11.89,7.36-2.9,15.74-.46,23.53-1.84,18.83-3.32,26.54-25.89,29.09-44.83s5.65-41.27,22.55-50.2c-7.83,4.13,18.25,36.64,23,39.7,13.67,8.9,30.35,12.13,43.36,22.21,9.71,7.52,16.39,18.17,23.41,28.25a353,353,0,0,0,33.13,40.75c19.21,20.33,37.61-4.23,45.83-22.84,12.53-28.38,19.48-59.26,35.09-86.07,16.22-27.87,44.47-51.18,77.78-45.4,32.4,5.62,61.82,23.74,68.25,58.74,1.77,9.66,1.54,19.57.9,29.38a360.53,360.53,0,0,1-18.78,93.57c-7,20.46-15.91,40.34-21.34,61.33-2.66,10.26-6.09,22.85-4.86,33.54,1.15,10,7.45,19.51,10.77,28.93,2.58,7.33,2.2,15.12,9.68,20.07,5.42,3.59,12.06,4.69,18.48,5.7l14.43,2.28c4.16.66,8.43,1.36,12,3.52,1.21.73,3.18,1.15,3.45-.23.61-3.18,4.59-7.33,6.55-9.83a86.45,86.45,0,0,1,17-16.39,97.88,97.88,0,0,1,43.07-17.7c29.87-4.51,60.7,3.91,86.89,19,8.36,4.8,16.59,10.54,21.58,18.79,10.79,17.86,3.32,40.56,3,61.43-.69,43.88,31.54,81.38,66.45,108,29.81,22.7,63.3,41.05,89.87,67.81,20.86,21,50.41,53.81,54.43,84.13,1.05,7.94.21,16-1.19,23.9-4.48,25.07-16,45.7-27.16,68-8.31,16.61-3.94,37.44,7.54,51.45,16.11,19.66,35.82,8.6,56.73,18.18,11.1,5.09,20.22,16.64,18.44,28.71-2.07,14-16.6,22-29.27,28.33-23.5,11.7-115.34,50.55-108.72,82.71,2.2,10.69,13.13,17.88,24,19a36.93,36.93,0,0,0,12.6-.85C5121.57,2419.59,5123.16,2414.28,5126.73,2411.63Z"/><g id="Alwar"><text class="cls-25" transform="translate(4447.96 2088.87) rotate(-63.77)">A</text><text class="cls-25" transform="translate(4492 2001.14) rotate(-61.02)">l</text><text class="cls-25" transform="translate(4507.78 1970.36) rotate(-57.95)">w</text><text class="cls-25" transform="translate(4568.79 1873.9) rotate(-53.92)">a</text><text class="cls-25" transform="matrix(0.63, -0.78, 0.78, 0.63, 4617.13, 1808.14)">r</text></g><g id="Bharatpur"><text class="cls-27" transform="matrix(0.19, -0.98, 0.98, 0.19, 5017.86, 2405.3)">B</text><text class="cls-27" transform="translate(5029.75 2344.07) rotate(-81.1)">h</text><text class="cls-27" transform="matrix(0.1, -1, 1, 0.1, 5037.85, 2292.44)">a</text><text class="cls-27" transform="translate(5042.51 2241.81) rotate(-88.07)">r</text><text class="cls-27" transform="translate(5043.93 2208.68) rotate(-92.73)">a</text><text class="cls-27" transform="translate(5040.87 2156.72) rotate(-98.15)">t</text><text class="cls-27" transform="translate(5036.71 2123.8) rotate(-105.07)">p</text><text class="cls-27" transform="translate(5020.24 2065.37) rotate(-115.62)">u</text><text class="cls-27" transform="translate(4996.87 2018.49) rotate(-119.38)">r</text></g><text class="cls-22" transform="matrix(0.88, -0.47, 0.47, 0.88, 4716.1, 2806.92)">K</text><text class="cls-22" transform="matrix(0.83, -0.56, 0.56, 0.83, 4778.6, 2772.81)">a</text><text class="cls-22" transform="matrix(0.79, -0.62, 0.62, 0.79, 4825.46, 2740.54)">r</text><text class="cls-22" transform="translate(4854.27 2718.16) rotate(-42.4)">a</text><text class="cls-22" transform="translate(4896.78 2679.16) rotate(-47.61)">u</text><text class="cls-22" transform="matrix(0.62, -0.78, 0.78, 0.62, 4935.71, 2635.56)">l</text><text class="cls-22" transform="matrix(0.6, -0.8, 0.8, 0.6, 4950.56, 2616.94)">i</text><text class="cls-7" transform="translate(5156.71 2598.84) rotate(-36.52)">D</text><text class="cls-7" transform="matrix(0.82, -0.57, 0.57, 0.82, 5201.72, 2565.61)">h</text><text class="cls-7" transform="matrix(0.83, -0.55, 0.55, 0.83, 5237.87, 2540.27)">o</text><text class="cls-7" transform="translate(5275.98 2515.04) rotate(-32.71)">l</text><text class="cls-7" transform="matrix(0.85, -0.53, 0.53, 0.85, 5290.64, 2505.47)">p</text><text class="cls-7" transform="matrix(0.86, -0.51, 0.51, 0.86, 5330.72, 2480.7)">u</text><text class="cls-7" transform="matrix(0.87, -0.49, 0.49, 0.87, 5368.92, 2458.41)">r</text></g><g id="Layer_26" data-name="Layer 26"><text class="cls-28" transform="translate(4569.37 1261.21)"><tspan class="cls-29">M</tspan><tspan class="cls-30" x="162" y="0">a</tspan><tspan x="257.6" y="0">ts</tspan><tspan class="cls-31" x="402.99" y="0">y</tspan><tspan x="496.39" y="0">a Union</tspan></text><path class="cls-32" d="M4750.31,2016.22c275.31-160.09,427.2-415.6,388.42-661.4"/><path class="cls-6" d="M4697.3,2045.07c30-4.41,69.51-5.57,97.81.63l-37.94-33.44-7.77-50C4739.4,1989.49,4717.14,2022.19,4697.3,2045.07Z"/></g><g id="Shahpura"><path class="cls-33" d="M3367.31,3092c20.72,16.2,51.09,23.33,61.18,47.62,6.18,14.89,2.39,32.14-4.38,46.77s-16.37,27.87-22.47,42.79a100.83,100.83,0,0,0-7.22,30.57c-.67,8.91-.1,18.1,3.35,26.34,6.34,15.13,21.81,25,37.9,28.22s32.77.56,48.65-3.52c6.82-1.75,13.78-3.88,19.2-8.38,5.12-4.25,8.42-10.23,11.6-16.07,11.15-20.46,22.3-40.91,33.27-61.47,11.79-22.08,23.6-45,25.84-69.92,1.74-19.33-2.4-38.65-6.52-57.62-.66-3-1.44-6.29-3.8-8.31-3.19-2.74-7.95-2.19-12-3.17-13.78-3.29-16.47-21.57-25.6-32.41-4.15-4.92-9.76-8.33-15.27-11.64l-49-29.53c-4.25-2.56-8.74-5.19-13.69-5.34-8-.25-14.58,5.87-21.52,9.92-14.25,8.31-32.73,7.43-46.71-1-13.08-7.86-20.7-30.29-35-14.49C3323.16,3025.52,3346.81,3076,3367.31,3092Z"/><path class="cls-5" d="M3417.14,3085.23c-60.94,1.17-119.12,8.19-164.82,56.16"/><path class="cls-6" d="M3446.72,3085c-14-5-31.34-13.6-42.16-22.8l8.71,23.2-8.15,23.4C3415.71,3099.31,3432.87,3090.3,3446.72,3085Z"/><text class="cls-12" transform="translate(3086.79 3207.93)">Shahpura</text></g><g id="Lawa"><path class="cls-34" d="M4000.32,2730.18q2.76-2.46,5.72-4.68c5.25-4,10.32-7.89,16.07-11l-16.39-15.91c-4.35-4.22-7-9.72-11.59-13.71-28-24.4-60.43-20-84.57,8.41-6.73,7.9-11.7,17.26-13.41,27.56-2.37,14.31,1.59,28.7,7.21,41.78,1.52,3.54,3.18,7,4.92,10.46,1.59,3.14,2.46,6.27,3.86,9.45a179.32,179.32,0,0,1,8.72,24.21c.7-5.34,2.56-10.66,6.15-14.68a27.14,27.14,0,0,1,12-7.33,82.05,82.05,0,0,1,10.53-2.27c2.81-.52,4.32-2,6.69-3.53a81.52,81.52,0,0,0,14.69-12.5,80.49,80.49,0,0,0,9.83-13.06,110.55,110.55,0,0,1,10.16-13.56A91.22,91.22,0,0,1,4000.32,2730.18Z"/><text class="cls-22" transform="translate(4230.36 2743.11)">Lawa</text><path class="cls-5" d="M4004.13,2690.61A1003.61,1003.61,0,0,1,4201,2720.54"/><path class="cls-6" d="M3977.53,2689.6c12.33,5.14,27.54,13.68,36.83,22.45l-6.75-21.26,8.41-20.65C4006.07,2678.15,3990.23,2685.45,3977.53,2689.6Z"/></g><g id="Kishengarh"><path class="cls-34" d="M3398.33,2402.83c3.55-10.38,6.63-21.1,11.07-31,5.23-11.67,8.35-24.15,11.44-36.56,2.16-8.67,4.33-17.36,5.32-26.24a101.28,101.28,0,0,0-1.49-31.72c-.5-2.44-7-26.17-8.73-25.35a85.08,85.08,0,0,1,59-4.41c18.94,5.44,34.28,19.42,43.11,37a77.38,77.38,0,0,1,8.17,34c0,5.56,0,11.27-2.55,16.28-2.75,5.47-5.82,10.79-8.65,16.22-14.14,27.09-21.8,59.9-10.19,88.17,9,22,28.16,37.88,44.46,55.2,22.89,24.32,52.73,63.08,47.79,98.27-3.42,24.37-5.75,49.77,5.5,72.52,11.75,23.78,9.92,43.61,3.92,69.59-1.69,7.33-3.46,14.84-7.62,21.12-7.61,11.5-22,16.81-35.81,17.51a74.35,74.35,0,0,1-30.67-5c-24.66-9.6-42.15-31.37-58.42-52.24-21.17-27.17-42.47-54.68-57-85.91-9.85-21.13-16.43-43.61-22.77-66q-7.64-27-14.89-54.19c-5.67-21.23,1-34.57,2.9-55.3.37-4,.3-7.78,1.66-11.5,1.46-4,3-8,4.44-12l9.09-25.74Q3397.88,2404.16,3398.33,2402.83Z"/><path class="cls-34" d="M3611.25,2847.78q8.31,5.44,17.12,10.05l-8.19,14.81c-11.51,20.81-24.75,40.85-37.25,61.13-1.72,2.79-2.72,5.71-4.4,8.49l-5.92,9.87-11.85,19.74c-1.95,3.24-3.89,6.48-5.87,9.71-3.09,5-6.26,10-9.64,14.86-1.46,2.1-3.44,4.19-4.4,6.54-1.06,2.59-2,5.29-3,7.92-5.26,13.82-13.43,29.65-8.94,44.62-6.85-6.32-15.67-10.61-23.6-15.62l-26.88-17c-9-5.72-18.17-11.48-28.15-15.32-4.2-1.62-4.39-2.71-3.82-7a41.42,41.42,0,0,1,3.73-11.7c8.81-19.15,23.86-35.64,28.37-56.24,2.35-10.71,1.66-21.95,4.31-32.59,3.12-12.51,10.62-23.4,18-34,5.22-7.5,9.85-15.37,15-22.94a269.73,269.73,0,0,1,16.82-21.72c1-1.23,2.18-2.54,3.75-2.86a7.2,7.2,0,0,1,3.54.48c5.63,1.76,11.28,3.93,17,5.32,3.83.93,7.75,1.52,11.59,2.46a100.64,100.64,0,0,1,24,8.71c6,3.23,11.42,7.35,17.07,11.12Z"/><text class="cls-22" transform="translate(3831.24 2440.41)">Kishengarh</text><path class="cls-5" d="M3557.54,2526.46a498.83,498.83,0,0,1,232.16-99.7"/><path class="cls-6" d="M3535.1,2545.07c13.83-4.78,32.49-8.88,46.48-8.47l-21-12.47-8.16-23C3550.1,2514.92,3542.46,2532.43,3535.1,2545.07Z"/><path class="cls-5" d="M3591.39,2864.55a1617.87,1617.87,0,0,1,378.26-384.08"/><path class="cls-6" d="M3574.9,2888.59c12-8.41,28.77-17.5,42.33-21l-23.63-6.18-14.2-19.87C3581,2855.47,3578.49,2874.41,3574.9,2888.59Z"/></g><g id="Ajmer-Merwara"><path class="cls-35" d="M2739.34,3253.4q.66-5.6,1.2-11.21c1.64-16.89.52-34.3,4.12-50.86,1.92-8.84,1.81-17.52,3.55-26.45a155.71,155.71,0,0,1,7.93-27.2c2.75-7,6.51-13.35,9.65-20.13,2.8-6,5.09-12.14,8.7-17.83,11.81-18.62,30.74-35.39,46.39-50.77,18.37-18.06,40.94-31,61.9-46.21,3.64-2.64,6.14-6.74,9.58-9.52,4.27-3.46,10.19-5.76,14.95-8.53q15.16-8.83,29.84-18.45,23.12-15.15,44.93-32.17c13.91-10.86,29.06-20.85,41.12-33.84s23.74-26.69,33.26-41.78a162.61,162.61,0,0,0,23.4-65.13c3.27-25.15-5.76-50-18.9-71.07-6.2-10-13.52-18.75-18.83-29.36a141.7,141.7,0,0,1-11.78-32.65c-4-17.84,1.44-38,18.67-46.75,10.62-5.37,22.95-4.67,34.45-6.45a332.88,332.88,0,0,1,40.87-3.78c9.42-.29,18.89.65,28.28.35,8-.26,16.38-2.75,24-5.12,26.18-8.2,59.73-25,75.49-48.64a133.7,133.7,0,0,0,16.32-23c12.59-22.77,26.42-55.44,57.55-57.42,5.5-.35,12.4.12,17.57,2,5.41,1.93,9.16,3.91,15.18,2.11,5.39-1.61,10-5.31,13.53-9.65,3.4-4.13,5.44-10.91,9.38-14.23-.11,7.57-1.51,15.35-2.29,22.9a148.21,148.21,0,0,0-.58,15.09c0,6-2.45,11.2-.94,17.07,1.77,6.88,3.84,13.69,5.76,20.53,2.54,5.09,3.37,12,4.91,17.51,1.81,6.44,3.86,12.86,5.43,19.35,2.95,12.16,7.22,23.85,11.67,35.65q6.3,16.71,13.11,33.22c4.13,10,7.24,20.61,12.71,30a168.09,168.09,0,0,0,11.25,16.24c6.69,8.89,13.38,17.77,20.3,26.47q17.75,22.29,37.52,42.87c6,6.25,13.67,11.67,16.49,20a103.59,103.59,0,0,1,5.23,26.77c.34,5.32.73,10.2,3.34,15s7,7.06,11.51,9.86c-9.46,8.55-16.89,19.22-24.48,29.42s-15.36,20.89-20.65,32.72a181.87,181.87,0,0,0-11.92,36.6c-1.21,5.71-1.45,11.07-1.88,16.78-.44,5.87-4.66,10.8-7.31,15.93-5.11,9.9-10.14,19.84-15.16,29.78-2.42,4.79-5.22,9.53-7.31,14.46-1.9,4.46.26,10.61-3.68,14-3,2.63-6.83,1.51-10.15,4-3.06,2.29-5.85,4.86-9.41,6.4a50.3,50.3,0,0,1-50.18-6.62c-4.88-3.88-9-8.66-14.08-12.3-14.61-10.48-34.83-9.33-51.13-4.1-16.84,5.4-32.69,14.43-50.45,16.65-23.28,2.91-46.21-6.8-66.86-18-89.73-48.49-131.68-25.08-197.89,41.93-46.63,47.19-102.56,95.93-137.76,151.68q-1.87,3-3.82,5.89a393.22,393.22,0,0,1-28.28,37.18c-4.86,5.71-9.58,11.57-15.19,16.51q-9.16,8.07-18,16.44-17.15,16.14-33.25,33.35-8,8.6-15.82,17.45c-4.77,5.44-10.48,10.89-14.29,17-1.93,3.12-2.88,5.91-6.38,7.78,5.48-4.77,5.65-14.6,6.71-21.25,1.37-8.55,2.54-17.13,4.45-25.58A380.86,380.86,0,0,0,2739.34,3253.4Z"/><path class="cls-35" d="M3534.32,3064.73a49.29,49.29,0,0,1,2.86,5.93c2.18,5.56,5.1,11.53,10.63,13.81,3.17,1.3,6.71,1.17,10.11,1.62a14.87,14.87,0,0,1,7.7,3.48,30,30,0,0,0,8.55,4.68c7.92,3,15.49,5.65,22.82,9.81a196.89,196.89,0,0,0,55.9,21.27c11.16,2.39,22.65,5.46,34.07,6,14.56.73,29.45-2.74,39.77-13.61a52.63,52.63,0,0,0,10.88-18.18c1.41-3.82,2-7.68,3-11.55,1.25-4.93,4.29-9.58,6.64-14.14a16,16,0,0,0,1.26-2.93,8.11,8.11,0,0,0-1.18-6.79c-1.44-2-4.19-2-5.51-3.52-1.1-1.29-1.32-4.39-1.95-6a49.17,49.17,0,0,0-7-12c-6.84-8.92-15.52-16.37-23.45-24.28-47.2-47-9.53-93.6-1.71-145.6,3.45-23-7.41-52.14-30.58-54-20.34-1.64-35.14,18.18-45.66,35.66L3560,2973.27c-4.39,7.3-9.23,14.31-13.84,21.46-2,3.08-4.68,6.39-5.9,9.85-1.09,3.11-1.45,6.78-2.45,10-2.19,7.08-7,13-8.78,20-1.4,5.35-.89,11.56-.27,17C3529.29,3056.59,3531.85,3060.29,3534.32,3064.73Z"/><path class="cls-5" d="M3570.91,2993.31q-2.15-2.09-4.33-4.15"/><path class="cls-36" d="M3557.27,2980.59a476.58,476.58,0,0,0-144.8-89"/><path class="cls-5" d="M3406.56,2889.34q-2.81-1-5.63-2.06"/><path class="cls-6" d="M3592.62,3015.81c-6.35-14.35-12.41-33.92-13.23-48.91L3568,2990.47l-23.86,10.8C3559,3002.49,3578.45,3009.07,3592.62,3015.81Z"/><text class="cls-7" transform="translate(3170.61 2758.56)">Ajmer<tspan x="-68.08" y="96">-Merwara</tspan></text></g></svg>